<svg width="291" height="290" viewBox="0 0 291 290" fill="none" xmlns="http://www.w3.org/2000/svg">
<path d="M148.596 117.461C148.47 117.23 148.28 117.04 148.048 116.915C147.816 116.79 147.552 116.736 147.29 116.759C147.007 116.758 146.732 116.858 146.516 117.042C146.301 117.225 146.158 117.48 146.114 117.759C145.843 117.843 146.114 119.681 146.114 119.681C146.203 119.857 146.309 120.025 146.429 120.181C146.581 120.372 146.782 120.518 147.011 120.603C147.24 120.689 147.487 120.711 147.727 120.667C147.968 120.623 148.191 120.515 148.375 120.354C148.559 120.194 148.695 119.986 148.77 119.754C148.946 119.391 149.023 118.987 148.993 118.584C148.962 118.182 148.825 117.794 148.596 117.461ZM146.614 118.956C146.546 118.879 146.461 118.818 146.367 118.776L146.339 118.731C146.249 118.574 146.282 118.372 146.142 118.237L146.327 117.742C146.462 117.68 146.598 117.568 146.733 117.568C146.868 117.568 147.059 117.742 147.132 117.933C147.335 118.484 147.234 118.686 146.626 118.962L146.614 118.956ZM147.796 119.777C147.705 119.782 147.616 119.755 147.542 119.7C147.469 119.646 147.418 119.568 147.397 119.479C147.386 119.422 147.386 119.364 147.398 119.308C147.41 119.251 147.433 119.198 147.466 119.15C147.499 119.103 147.541 119.063 147.59 119.033C147.64 119.002 147.694 118.982 147.751 118.973C147.81 118.969 147.868 118.977 147.923 118.996C147.978 119.015 148.029 119.045 148.072 119.083C148.116 119.122 148.151 119.169 148.176 119.221C148.201 119.274 148.216 119.331 148.219 119.389C148.207 119.492 148.16 119.588 148.084 119.66C148.009 119.732 147.911 119.775 147.808 119.782L147.796 119.777Z" fill="black"/>
<path d="M140.761 117.849C140.647 117.682 140.494 117.546 140.316 117.451C140.137 117.357 139.938 117.307 139.736 117.307C139.534 117.307 139.335 117.357 139.157 117.451C138.978 117.546 138.825 117.682 138.712 117.849C138.354 118.341 138.165 118.936 138.174 119.544C138.183 120.152 138.39 120.74 138.763 121.221C138.884 121.382 139.042 121.51 139.224 121.596C139.406 121.683 139.606 121.723 139.808 121.716C140.009 121.708 140.205 121.652 140.38 121.552C140.555 121.452 140.703 121.312 140.811 121.142C141.15 120.689 141.325 120.134 141.307 119.569C141.314 118.952 141.122 118.349 140.761 117.849ZM139.207 119.709C138.971 119.777 138.695 119.546 138.644 119.243C138.627 119.129 138.627 119.014 138.644 118.9C138.657 118.802 138.7 118.709 138.767 118.637C138.835 118.564 138.924 118.515 139.021 118.495C139.118 118.477 139.218 118.492 139.306 118.537C139.393 118.581 139.464 118.654 139.506 118.743C139.556 118.859 139.596 118.979 139.624 119.102C139.59 119.428 139.46 119.614 139.207 119.709ZM140.333 120.603C140.102 120.603 139.849 120.328 139.916 120.12C139.936 120.023 139.987 119.935 140.061 119.87C140.135 119.805 140.229 119.767 140.327 119.76C140.575 119.76 140.823 120.035 140.761 120.249C140.737 120.344 140.683 120.428 140.607 120.489C140.531 120.55 140.436 120.584 140.339 120.586L140.333 120.603Z" fill="#080707"/>
<path d="M198.004 128.702C197.555 128.437 197.09 128.199 196.614 127.988C194.188 127.004 191.835 125.863 189.448 124.801C187.758 124.046 186.117 123.187 184.535 122.227C183.049 121.329 181.684 120.247 180.471 119.007C179.317 117.827 178.275 116.545 177.223 115.269C176.82 114.768 176.372 114.305 175.883 113.887C175.238 113.33 174.431 112.995 173.581 112.931C173.299 112.922 173.018 112.885 172.743 112.819C171.96 112.617 171.735 112.358 171.735 111.554C171.722 110.141 171.982 108.739 172.501 107.424C173.479 104.948 174.911 102.677 176.722 100.724C177.129 100.274 177.608 99.8938 178.14 99.6004C178.478 99.4184 178.856 99.3253 179.239 99.33C179.622 99.3347 179.998 99.437 180.33 99.6273C180.663 99.8175 180.941 100.089 181.139 100.417C181.337 100.745 181.448 101.118 181.461 101.5V102.832C181.452 103.074 181.521 103.312 181.658 103.512C181.709 103.599 181.788 103.667 181.882 103.704C181.975 103.742 182.079 103.747 182.176 103.72C182.254 103.698 182.321 103.649 182.367 103.582C182.412 103.516 182.432 103.435 182.424 103.355C182.424 102.753 182.39 102.146 182.424 101.545C182.449 101.116 182.37 100.687 182.192 100.295C182.015 99.9038 181.745 99.5611 181.405 99.2969C180.426 98.4819 179.339 98.0436 178.062 98.5887C177.932 98.6413 177.791 98.6576 177.653 98.6358C177.515 98.614 177.386 98.555 177.279 98.4651C174.532 96.6442 172.45 94.3455 171.797 90.9903C171.708 90.5578 171.574 90.1359 171.397 89.7314C171.177 89.1852 170.759 88.7417 170.226 88.4887C169.693 88.2358 169.085 88.1919 168.521 88.3657C168.215 88.4673 167.901 88.5388 167.581 88.5792C167.383 88.6264 167.175 88.6087 166.987 88.5288C166.8 88.4489 166.643 88.3109 166.54 88.1353L166.348 87.8261C166.141 87.4764 165.822 87.2061 165.442 87.0584C165.063 86.9107 164.645 86.8941 164.255 87.0112C164.02 87.0641 163.789 87.1317 163.562 87.2135C163.322 87.3176 163.059 87.3622 162.798 87.3436C162.536 87.3251 162.283 87.2438 162.059 87.1068C161.673 86.8817 161.225 86.7824 160.78 86.8227C160.334 86.863 159.912 87.0408 159.572 87.3316C159.247 87.5692 158.942 87.8323 158.66 88.1184C158.5 88.3017 158.294 88.439 158.064 88.5161C157.833 88.5932 157.586 88.6073 157.348 88.5568C156.744 88.4641 156.127 88.607 155.626 88.9558C154.936 89.3712 154.304 89.8757 153.746 90.4564C153.431 90.7599 153.183 91.2151 152.789 91.3331C152.355 91.3664 151.918 91.3109 151.506 91.1701C151.474 91.0503 151.451 90.9281 151.438 90.8048V90.3215C151.347 89.396 151.046 88.5033 150.558 87.7108C150.071 86.9184 149.409 86.2468 148.624 85.7467C148.373 85.5378 148.055 85.4279 147.729 85.4376C147.648 85.4461 147.571 85.4776 147.507 85.5283C147.443 85.5791 147.395 85.6471 147.369 85.7242C147.335 85.7981 147.329 85.8818 147.353 85.9596C147.377 86.0373 147.429 86.1035 147.498 86.1457C147.633 86.2244 147.808 86.2469 147.937 86.3368C148.711 86.7777 149.355 87.4146 149.804 88.1833C150.252 88.952 150.49 89.8252 150.493 90.7149C150.519 91.1025 150.404 91.4864 150.169 91.7961C149.934 92.1059 149.596 92.3206 149.215 92.4009C148.671 92.5867 148.076 92.5575 147.552 92.3192C147.029 92.0809 146.617 91.6517 146.401 91.1196C146.043 90.312 145.728 89.4866 145.455 88.6467C145.354 88.3713 145.539 88.1971 145.753 88.0566C145.967 87.9161 146.384 87.9666 146.699 87.9104C146.902 87.8711 147.087 87.7587 147.065 87.517C147.054 87.4166 147.01 87.3227 146.94 87.2503C146.869 87.1779 146.777 87.1313 146.676 87.118C146.444 87.0475 146.199 87.0306 145.959 87.0686C145.719 87.1065 145.491 87.1984 145.292 87.3372C145.155 87.4474 144.986 87.5104 144.811 87.5164C144.635 87.5225 144.462 87.4715 144.318 87.3709C143.588 87.0259 142.787 86.8583 141.98 86.8818C141.173 86.9052 140.383 87.119 139.674 87.5058C139.392 87.6456 139.078 87.7113 138.763 87.6969C137.223 87.7202 135.699 88.0112 134.26 88.5568C133.898 88.7215 133.489 88.7534 133.106 88.6467C132.643 88.4908 132.147 88.4656 131.67 88.5736C130.675 88.7511 129.721 89.1113 128.856 89.6358C126.852 90.9903 125.355 92.7101 124.888 95.1661C124.837 95.4021 124.781 95.6382 124.725 95.8742C124.318 97.3509 124.129 98.8786 124.162 100.41C124.231 101.856 124.419 103.294 124.725 104.709C125.027 106.212 125.7 107.616 126.683 108.794C127.666 109.971 128.927 110.886 130.353 111.453C130.759 111.627 131.344 111.577 131.53 111.976C131.634 112.402 131.66 112.844 131.609 113.28C131.637 113.965 131.676 114.646 131.715 115.331C131.755 116.017 131.777 116.781 131.851 117.501C131.881 117.718 131.862 117.939 131.795 118.148C131.729 118.357 131.617 118.548 131.468 118.709C130.961 119.271 130.517 119.906 130.055 120.513C128.27 122.797 126.688 125.232 125.327 127.791C124.877 128.603 124.5 129.453 124.201 130.331C123.441 132.872 124.522 134.62 127.106 135.108C129.698 135.574 132.369 135.313 134.823 134.355C135.076 134.26 135.301 134.024 135.622 134.187C135.993 134.788 136.365 135.406 136.747 136.008C137.431 137.008 138.305 137.863 139.32 138.526C140.349 139.248 141.574 139.64 142.832 139.65C143.758 139.667 144.684 139.637 145.607 139.56C148.126 139.272 150.629 138.853 153.104 138.306C153.496 138.206 153.903 138.183 154.303 138.239C154.464 138.261 154.617 138.32 154.752 138.411C154.886 138.501 154.999 138.621 155.08 138.762C155.24 139.085 155.3 139.449 155.251 139.807C155.201 140.165 155.046 140.5 154.804 140.768C154.456 141.109 154.009 141.332 153.526 141.403C153.284 141.437 153.042 141.403 152.806 141.471C152.584 141.491 152.369 141.559 152.175 141.67C151.982 141.781 151.815 141.932 151.685 142.113C151.556 142.295 151.467 142.502 151.426 142.721C151.384 142.94 151.39 143.165 151.444 143.381C151.521 143.943 151.746 144.475 152.097 144.921C152.742 145.749 153.565 146.422 154.506 146.888C155.24 147.224 156.049 147.364 156.853 147.293C157.976 147.185 159.074 146.898 160.106 146.444C161.988 145.725 163.71 144.642 165.172 143.258C166.004 142.461 166.635 141.477 167.011 140.388C167.386 139.299 167.497 138.137 167.333 136.997C167.305 136.733 167.12 136.474 167.26 136.193C167.524 136.091 167.811 136.065 168.088 136.12C169.786 136.161 171.484 136.025 173.153 135.715C175.838 135.187 178.518 134.591 181.18 133.996C185.817 132.808 190.375 131.327 194.824 129.561C195.02 129.495 195.208 129.408 195.387 129.303C195.702 129.095 195.634 128.859 195.42 128.628C195.546 128.59 195.678 128.578 195.808 128.595C195.938 128.611 196.063 128.655 196.175 128.724C196.642 128.954 197.12 129.162 197.587 129.398C197.829 129.522 198.043 129.561 198.229 129.325C198.415 129.089 198.347 128.904 198.004 128.702ZM153.436 92.3672C153.587 92.0803 153.776 91.8155 153.999 91.5804C154.508 91.0657 155.044 90.578 155.603 90.1192C155.856 89.8874 156.158 89.7163 156.487 89.6189C156.815 89.5215 157.162 89.5004 157.5 89.5572C157.799 89.6029 158.105 89.5756 158.391 89.4778C158.677 89.3799 158.936 89.2143 159.144 88.9951C159.442 88.731 159.707 88.4331 160.044 88.1971C160.271 87.9919 160.558 87.8656 160.862 87.8373C161.167 87.8089 161.472 87.8799 161.733 88.0397C162.04 88.235 162.391 88.3493 162.755 88.3719C163.118 88.3946 163.481 88.3247 163.81 88.169C163.956 88.1072 164.125 88.0903 164.271 88.0341C164.389 87.9726 164.518 87.9353 164.65 87.9244C164.782 87.9136 164.915 87.9293 165.041 87.9707C165.167 88.0121 165.283 88.0783 165.383 88.1655C165.483 88.2527 165.564 88.3589 165.622 88.4781C166.264 89.6752 167.277 89.7314 168.437 89.456C169.849 89.1132 170.429 89.456 170.829 90.8385C170.925 91.187 171.009 91.5411 171.088 91.8895C171.476 93.5816 172.294 95.1455 173.463 96.4306C174.438 97.546 175.565 98.5185 176.812 99.3194C176.176 100.056 175.591 100.708 175.028 101.382C174.039 102.552 173.212 103.848 172.568 105.237C172.416 105.559 172.2 105.847 171.935 106.083C171.669 106.32 171.358 106.5 171.02 106.614C169.473 107.21 167.795 107.388 166.157 107.131C165.392 107.029 164.68 106.684 164.125 106.148C163.089 105.249 162.322 104.082 161.907 102.776C161.599 101.652 161.36 100.511 161.193 99.3587C161.029 98.4089 160.883 97.4591 160.692 96.5149C160.566 95.9677 160.407 95.429 160.213 94.9019C160.04 94.4062 159.762 93.9537 159.397 93.5756C159.136 93.2359 158.761 93.0021 158.341 92.9174C157.921 92.8326 157.484 92.9027 157.112 93.1147C156.301 93.4632 155.496 93.8341 154.692 94.1938C154.399 94.323 154.129 94.4635 153.808 94.5759C153.752 94.6045 153.691 94.6191 153.628 94.6187C153.565 94.6183 153.504 94.6028 153.449 94.5736C153.393 94.5443 153.346 94.5022 153.311 94.4508C153.275 94.3993 153.253 94.3401 153.245 94.2781C153.072 93.6392 153.141 92.9593 153.436 92.3672ZM140.462 88.1353C141.421 87.8174 142.451 87.7842 143.429 88.0397C143.663 88.0965 143.881 88.2061 144.066 88.36C144.252 88.5139 144.399 88.7081 144.498 88.9277C144.605 89.1862 144.735 89.4391 144.825 89.7033C145.097 90.6966 145.539 91.6357 146.13 92.4796C145.921 92.8 145.624 93.0536 145.275 93.2103C145.043 93.3309 144.785 93.3939 144.523 93.3939C144.262 93.3939 144.004 93.3309 143.772 93.2103C143.293 92.996 142.872 92.6703 142.545 92.2604C141.703 91.0866 140.936 89.8609 140.249 88.5905C140.23 88.5468 140.221 88.4997 140.222 88.4523C140.222 88.4048 140.233 88.3581 140.253 88.3151C140.274 88.2721 140.303 88.2339 140.339 88.2029C140.375 88.1719 140.417 88.1489 140.462 88.1353ZM138.025 88.6017C138.224 88.5715 138.426 88.5583 138.627 88.5624C138.786 88.5425 138.946 88.5732 139.085 88.6499C139.225 88.7267 139.337 88.8455 139.404 88.9895C139.871 89.8325 140.384 90.6756 140.885 91.4792C141.138 91.8895 141.447 92.2829 141.695 92.682C141.943 93.081 141.999 93.3395 141.656 93.7329C141.396 94.0452 141.058 94.2835 140.677 94.4237C140.295 94.5638 139.883 94.6008 139.483 94.531C138.561 94.3942 137.706 93.9692 137.04 93.317C136.911 93.2194 136.814 93.0867 136.759 92.9349C136.404 91.6254 135.543 90.5969 134.738 89.3267C135.903 89.0682 136.961 88.8265 138.025 88.6017ZM131.71 110.846C131.383 111.071 131.147 110.886 130.967 110.796C128.966 109.999 127.33 108.492 126.374 106.564C126.069 105.951 125.848 105.301 125.715 104.63C125.314 102.906 125.125 101.14 125.153 99.3699C125.19 98.4868 125.341 97.6122 125.603 96.7678C125.764 96.2276 126.039 95.7276 126.408 95.3009C126.659 94.96 127.018 94.7147 127.428 94.6054C127.837 94.496 128.271 94.5293 128.659 94.6996C128.923 94.8 129.179 94.9202 129.425 95.0593C129.632 95.1785 129.832 95.3119 130.021 95.4583C130.314 95.6663 130.584 95.8798 130.922 96.1271C130.24 97.4527 129.719 98.8545 129.368 100.303C129.166 101.163 128.963 102.028 128.805 102.899C128.597 104.132 128.7 105.397 129.104 106.581C129.492 107.671 130.055 108.536 131.322 108.677C131.569 108.677 131.654 108.885 131.659 109.098C131.71 109.7 131.71 110.301 131.71 110.846ZM130.528 94.6546C130.011 94.2799 129.442 93.9826 128.839 93.7723C128.52 93.6471 128.178 93.5895 127.835 93.603C127.492 93.6166 127.155 93.701 126.847 93.851C126.814 93.8836 126.776 93.9095 126.733 93.9271C126.691 93.9448 126.645 93.9539 126.599 93.9539C126.553 93.9539 126.507 93.9448 126.465 93.9271C126.422 93.9095 126.384 93.8836 126.351 93.851C126.83 92.8291 127.524 91.9231 128.387 91.1954C129.25 90.4677 130.261 89.9356 131.35 89.6358C131.967 89.428 132.637 89.4348 133.25 89.6552C133.863 89.8756 134.384 90.2966 134.727 90.8498C134.98 91.3106 135.29 91.7321 135.543 92.193C135.926 92.9044 136.108 93.7072 136.066 94.5141C136.01 95.773 135.29 96.3969 134.012 96.2845C133.329 96.2148 132.671 95.9919 132.087 95.6325C131.502 95.3347 131.001 94.9806 130.505 94.6546H130.528ZM134.924 133.394C134.243 133.642 133.562 133.889 132.864 134.069C130.95 134.579 128.941 134.615 127.01 134.176C126.589 134.118 126.191 133.948 125.858 133.684C125.526 133.42 125.27 133.071 125.119 132.675C124.975 132.297 124.936 131.887 125.006 131.489C125.145 130.697 125.401 129.93 125.766 129.213C126.523 127.615 127.4 126.076 128.389 124.61C129.481 123.02 130.64 121.463 131.766 119.895C131.881 119.773 132.005 119.66 132.138 119.558C132.402 121.21 132.633 122.716 132.898 124.222C133.263 126.562 133.799 128.873 134.502 131.135C134.693 131.697 134.901 132.259 135.143 132.821C135.222 133.113 135.155 133.299 134.901 133.394H134.924ZM153.588 137.373C152.119 137.553 150.667 137.935 149.204 138.188C147.262 138.585 145.287 138.795 143.305 138.818C141.843 138.825 140.425 138.315 139.303 137.379C138.216 136.476 137.332 135.353 136.708 134.086C135.729 132.191 135.008 130.174 134.564 128.089C133.827 124.875 133.274 121.621 132.909 118.344C132.608 115.249 132.508 112.138 132.61 109.031V105.586C134.941 104.327 138.802 103.641 141.053 104.096L139.928 104.659C139.341 104.917 138.819 105.301 138.397 105.783C138.305 105.863 138.242 105.972 138.218 106.092C138.194 106.211 138.209 106.336 138.262 106.446C138.318 106.554 138.403 106.644 138.507 106.708C138.611 106.771 138.731 106.805 138.853 106.805C139.099 106.815 139.345 106.808 139.59 106.783C143.373 106.354 147.2 107.005 150.628 108.66C150.734 108.718 150.835 108.784 150.932 108.857C150.932 109.52 150.414 109.104 150.149 109.183C149.885 109.261 149.446 109.127 149.108 109.284C148.753 109.357 148.399 109.419 148.05 109.503C147.949 109.525 147.857 109.577 147.787 109.652C147.716 109.728 147.671 109.823 147.656 109.925C147.649 110.047 147.683 110.168 147.752 110.27C147.822 110.371 147.922 110.448 148.039 110.487C148.189 110.543 148.344 110.59 148.5 110.627C150.869 111.429 153.063 112.677 154.962 114.303C157.074 116.121 159.025 118.118 160.793 120.271C160.872 120.361 160.934 120.468 161.007 120.564C161.123 120.754 161.3 120.899 161.51 120.976C161.72 121.053 161.949 121.056 162.161 120.985C163.011 120.755 163.849 120.592 164.727 120.356C165.053 120.252 165.397 120.219 165.736 120.26C166.075 120.301 166.401 120.414 166.692 120.592C166.983 120.771 167.232 121.009 167.423 121.292C167.613 121.576 167.74 121.896 167.795 122.233C167.96 123.394 167.809 124.579 167.356 125.661C167.046 126.404 166.669 127.117 166.23 127.791C165.684 128.636 165.223 129.532 164.851 130.466C164.422 131.431 164.335 132.514 164.604 133.535C164.654 133.663 164.66 133.804 164.621 133.937C164.582 134.069 164.501 134.184 164.39 134.265C163.608 135.026 162.665 135.602 161.632 135.952C160.244 136.371 158.825 136.677 157.388 136.868C156.121 137.031 154.849 137.222 153.566 137.373H153.588ZM166.607 138.216C166.595 139.041 166.42 139.856 166.091 140.613C165.763 141.37 165.288 142.055 164.694 142.628C163.352 143.902 161.775 144.902 160.05 145.573C159.064 146.026 158.011 146.318 156.932 146.439C156.374 146.535 155.8 146.45 155.294 146.197C155.294 146.012 155.44 145.933 155.575 145.871C156.547 145.382 157.445 144.76 158.243 144.022C160.896 141.685 163.151 138.932 164.919 135.873C165.059 135.631 165.189 135.384 165.392 135.013C165.806 135.433 166.128 135.935 166.338 136.487C166.547 137.038 166.639 137.627 166.607 138.216ZM195.437 128.702V128.651C195.201 128.572 195.004 128.696 194.784 128.775C191.255 130 187.743 131.298 184.146 132.327C180.082 133.501 175.946 134.407 171.763 135.041C170.327 135.25 168.874 135.322 167.424 135.255C167.202 135.265 166.983 135.213 166.79 135.105C166.597 134.996 166.438 134.836 166.332 134.642C166.206 134.434 166.067 134.235 165.915 134.046C165.646 133.689 165.466 133.272 165.391 132.831C165.316 132.39 165.347 131.938 165.482 131.512C165.859 130.241 166.428 129.036 167.17 127.937C167.261 127.805 167.397 127.711 167.553 127.673C169.13 127.139 170.506 126.135 171.493 124.796C172.9 123.019 173.753 120.87 173.947 118.613C174.105 117.22 174.274 115.803 174.437 114.421C174.462 114.351 174.496 114.285 174.538 114.224C174.769 114.157 174.915 114.32 175.073 114.432C175.614 114.852 176.102 115.338 176.525 115.876C177.167 116.652 177.808 117.427 178.461 118.192C180.342 120.408 182.612 122.263 185.159 123.666C188.086 125.284 191.148 126.605 194.205 127.954C194.604 128.134 195.015 128.302 195.415 128.488C195.443 128.488 195.415 128.578 195.415 128.645H195.448L195.437 128.702ZM254.757 208.957C254.605 208.957 254.555 208.845 254.521 208.727C254.488 208.569 254.493 208.405 254.535 208.249C254.577 208.092 254.655 207.948 254.763 207.828C255.264 207.103 255.77 206.378 256.316 205.686C257.825 203.764 259.362 201.865 260.887 199.954C262.53 197.886 264.174 195.825 265.818 193.772C266.589 192.799 267.349 191.816 268.114 190.838C268.236 190.679 268.374 190.532 268.525 190.4C268.595 190.322 268.692 190.274 268.796 190.263C268.899 190.253 269.004 190.282 269.088 190.343C269.131 190.374 269.168 190.414 269.195 190.46C269.222 190.505 269.24 190.557 269.246 190.609C269.253 190.662 269.248 190.716 269.232 190.767C269.216 190.818 269.19 190.865 269.155 190.905C268.964 191.209 268.767 191.512 268.547 191.799L262.243 199.836C261.23 201.134 260.268 202.466 259.21 203.719C257.921 205.259 256.671 206.822 255.5 208.446C255.348 208.632 255.176 208.802 254.988 208.952C254.926 208.946 254.83 208.94 254.757 208.957ZM215.25 17.6473C215.216 17.7203 215.143 17.9002 215.059 18.08C213.816 20.5994 212.441 23.0513 210.938 25.4256C209.503 27.6736 208.034 29.9217 206.582 32.2091C205.957 33.187 205.332 34.1705 204.702 35.1484C204.6 35.319 204.481 35.479 204.347 35.6261C204.302 35.6937 204.231 35.7405 204.151 35.7563C204.071 35.772 203.988 35.7556 203.92 35.7104C203.849 35.6705 203.793 35.6092 203.76 35.5355C203.726 35.4618 203.717 35.3794 203.734 35.3002C203.808 35.0327 203.911 34.7744 204.043 34.5302C204.556 33.6647 205.062 32.7992 205.614 31.9618C207.681 28.8557 209.676 25.7047 211.597 22.5087C212.216 21.4746 212.762 20.4011 213.342 19.3502C213.657 18.7882 213.984 18.2261 214.293 17.6641C214.405 17.4501 214.597 17.2886 214.828 17.2145C215.014 17.1639 215.278 17.355 215.25 17.6473ZM259.795 64.8622C259.818 65.1196 259.739 65.3758 259.575 65.5759C258.856 66.7838 258.198 68.0274 257.605 69.3021C256.198 72.0054 254.791 74.7256 253.395 77.4232C252.663 78.8058 251.881 80.1603 251.11 81.5203C250.985 81.7216 250.839 81.9098 250.677 82.0823C250.611 82.1646 250.518 82.2202 250.414 82.2388C250.311 82.2574 250.204 82.2377 250.114 82.1835C250.07 82.1581 250.033 82.1243 250.003 82.0841C249.973 82.0438 249.951 81.998 249.939 81.9494C249.927 81.9007 249.925 81.8501 249.932 81.8005C249.94 81.751 249.958 81.7035 249.984 81.6608C250.131 81.3292 250.288 81.0033 250.463 80.6885C251.318 79.1037 252.208 77.53 253.046 75.9339C254.538 73.0901 255.996 70.2294 257.476 67.38C257.847 66.6719 258.247 65.975 258.658 65.2837C258.812 65.0514 258.992 64.8366 259.193 64.643C259.217 64.6109 259.247 64.5841 259.282 64.5641C259.317 64.544 259.356 64.5313 259.396 64.5266C259.436 64.5218 259.476 64.5252 259.515 64.5366C259.553 64.5479 259.589 64.5669 259.62 64.5924C259.695 64.6704 259.754 64.762 259.795 64.8622ZM253.564 154.869C253.502 154.867 253.443 154.843 253.397 154.802C253.35 154.761 253.32 154.705 253.311 154.644C253.278 154.507 253.278 154.364 253.311 154.226C253.343 154.089 253.406 153.961 253.496 153.852C253.936 153.183 254.358 152.497 254.836 151.857C256.949 149.024 258.941 146.111 260.814 143.117C261.731 141.656 262.722 140.24 263.673 138.801C263.831 138.518 264.091 138.305 264.399 138.205C264.456 138.184 264.519 138.183 264.577 138.201C264.635 138.22 264.685 138.257 264.72 138.306C264.777 138.404 264.81 138.514 264.816 138.627C264.816 138.694 264.759 138.773 264.714 138.84C262.981 141.538 261.281 144.264 259.497 146.933C258.163 148.928 256.716 150.867 255.32 152.812C254.898 153.402 254.481 153.987 254.048 154.565C253.997 154.651 253.927 154.723 253.843 154.776C253.759 154.829 253.663 154.86 253.564 154.869ZM54.1755 177.794C54.1225 177.936 54.0506 178.07 53.9617 178.193C52.8359 179.57 51.8847 181.042 50.9109 182.514L47.0778 188.337L43.9765 193.058C43.9063 193.157 43.8251 193.247 43.7344 193.328C43.6811 193.388 43.6069 193.427 43.5266 193.435C43.4462 193.443 43.3657 193.421 43.301 193.373C43.2311 193.33 43.1772 193.266 43.1477 193.19C43.1182 193.113 43.1147 193.03 43.1378 192.951C43.3129 192.5 43.5237 192.064 43.7682 191.647C44.5787 190.355 45.4174 189.084 46.2504 187.809C47.4718 185.926 48.6764 184.026 49.9372 182.189C50.9389 180.641 52.0348 179.156 53.2187 177.743C53.3593 177.549 53.5556 177.402 53.7815 177.321C53.956 177.271 54.2149 177.473 54.1755 177.794ZM9.51238 100.685C9.49848 101.008 9.42002 101.325 9.28161 101.618C7.89134 105.839 6.46729 110.048 4.77871 114.173C4.48039 114.915 4.21584 115.674 3.92316 116.421C3.85388 116.608 3.76121 116.786 3.64735 116.95C3.60945 117.02 3.54876 117.076 3.47517 117.107C3.40157 117.139 3.31942 117.145 3.24209 117.124C3.166 117.095 3.1 117.044 3.05205 116.978C3.00411 116.913 2.97628 116.834 2.97192 116.753C2.95537 116.391 3.03911 116.031 3.21395 115.713C3.7149 114.32 4.24399 112.931 4.75619 111.543C5.21774 110.307 5.69054 109.07 6.13521 107.828C6.86693 105.788 7.57051 103.748 8.29097 101.708C8.43731 101.292 8.6118 100.887 8.78066 100.477C8.86509 100.269 9.00581 100.14 9.23658 100.207C9.46735 100.275 9.4955 100.488 9.51238 100.685ZM279.743 21.2048C279.719 21.3212 279.678 21.4331 279.619 21.5364C277.334 24.1947 275.578 27.2296 273.591 30.0959C272.701 31.3829 271.857 32.7037 271.092 34.075C270.933 34.3483 270.744 34.6029 270.529 34.8337C270.477 34.859 270.42 34.8722 270.363 34.8722C270.305 34.8722 270.248 34.859 270.197 34.8337C270.1 34.7715 270.029 34.6753 270 34.5639C269.978 34.4444 269.98 34.3218 270.007 34.2031C270.033 34.0845 270.082 33.9722 270.152 33.8727C270.546 33.1758 270.906 32.4508 271.339 31.782C273.456 28.511 275.606 25.2682 277.93 22.1378C278.218 21.7497 278.546 21.3936 278.91 21.0756C278.982 21.0032 279.073 20.9534 279.173 20.9324C279.274 20.9115 279.377 20.9202 279.473 20.9575C279.573 21.0279 279.664 21.111 279.743 21.2048ZM218.897 74.9728C218.835 75.2983 218.689 75.6022 218.475 75.8552C217.428 77.4232 216.376 78.9856 215.34 80.5593C214.147 82.369 212.965 84.1843 211.777 85.994C211.655 86.2007 211.518 86.3979 211.366 86.5841C211.345 86.6184 211.317 86.6481 211.284 86.6713C211.251 86.6945 211.214 86.7108 211.174 86.7193C211.135 86.7277 211.094 86.728 211.055 86.7202C211.015 86.7124 210.977 86.6967 210.944 86.674C210.874 86.6327 210.818 86.5716 210.783 86.4986C210.748 86.4256 210.736 86.3439 210.747 86.2637C210.768 86.1052 210.816 85.9513 210.888 85.8085C211.13 85.3023 211.399 84.8089 211.693 84.3304C213.194 82.0599 214.711 79.7931 216.246 77.53C216.809 76.6982 217.372 75.8833 217.963 75.0628C218.049 74.9288 218.151 74.8061 218.267 74.6975C218.327 74.643 218.405 74.6128 218.486 74.6128C218.568 74.6128 218.646 74.643 218.706 74.6975C218.782 74.7802 218.846 74.8728 218.897 74.9728ZM28.6385 46.9339C28.592 47.1247 28.5337 47.3124 28.464 47.4959C27.4508 49.8058 26.6178 52.1887 25.7172 54.5436C25.2782 55.7013 24.8448 56.8647 24.3945 58.0225C24.3054 58.2433 24.184 58.4498 24.0342 58.6351C23.9849 58.7 23.9126 58.7438 23.832 58.7573C23.7515 58.7709 23.6688 58.7533 23.6008 58.7081C23.5256 58.677 23.4625 58.6224 23.4209 58.5525C23.3793 58.4826 23.3614 58.4012 23.3701 58.3203C23.4378 58.0088 23.5281 57.7027 23.6402 57.4042C24.4789 55.1562 25.3288 52.9081 26.1787 50.6601C26.5784 49.6147 27.0287 48.5862 27.4733 47.5577C27.5808 47.2101 27.798 46.9065 28.0925 46.6922C28.1408 46.6626 28.1946 46.6429 28.2506 46.6342C28.3067 46.6255 28.3639 46.628 28.4189 46.6416C28.509 46.6866 28.554 46.8215 28.6385 46.9339ZM114.672 49.4854C114.709 49.7426 114.662 50.0049 114.537 50.2329C113.164 53.532 111.723 56.7973 110.034 59.9558C109.882 60.2368 109.736 60.5178 109.567 60.7988C109.51 60.8824 109.429 60.9468 109.334 60.9839C109.24 61.021 109.137 61.0289 109.038 61.0068C108.863 61.0068 108.723 60.8719 108.751 60.6977C108.79 60.5004 108.86 60.3107 108.959 60.1356C109.702 58.5789 110.462 57.0277 111.21 55.4653C112.004 53.7792 112.764 52.0257 113.541 50.3116C113.693 49.9833 113.868 49.6659 114.064 49.3618C114.086 49.3274 114.114 49.2977 114.148 49.2743C114.181 49.2509 114.218 49.2343 114.258 49.2254C114.298 49.2165 114.339 49.2156 114.379 49.2226C114.419 49.2296 114.458 49.2444 114.492 49.2663C114.564 49.3283 114.625 49.4024 114.672 49.4854ZM77.8552 64.0023C77.8423 64.0877 77.8177 64.1709 77.782 64.2496C77.0784 65.5984 76.3748 66.9529 75.66 68.2905C75.0521 69.4145 74.4442 70.5385 73.8138 71.6626C73.4029 72.3988 72.9583 73.107 72.5249 73.8263C72.463 73.9331 72.4067 74.0399 72.3391 74.1411C72.1815 74.3827 71.9901 74.5907 71.6581 74.4839C71.4216 74.4052 71.371 74.1354 71.568 73.7589C72.0915 72.7697 72.6374 71.7862 73.1778 70.8083C73.932 69.4426 74.6975 68.0825 75.4292 66.7168L76.7069 64.4013C76.7743 64.2345 76.8771 64.0843 77.0083 63.9611C77.1395 63.8378 77.2959 63.7445 77.4668 63.6876C77.5136 63.6785 77.5618 63.6798 77.6081 63.6914C77.6543 63.703 77.6975 63.7245 77.7345 63.7545C77.7715 63.7845 77.8015 63.8222 77.8223 63.8651C77.8432 63.9079 77.8544 63.9547 77.8552 64.0023ZM282.754 92.2155C282.78 92.4155 282.725 92.6175 282.602 92.7775C281.326 94.9057 280.047 97.0376 278.763 99.1732C278.201 100.101 277.638 101.017 277.047 101.933C276.928 102.142 276.792 102.341 276.641 102.528C276.506 102.68 276.326 102.798 276.112 102.669C276.067 102.646 276.028 102.614 275.996 102.574C275.965 102.535 275.942 102.489 275.93 102.44C275.918 102.391 275.916 102.34 275.925 102.29C275.934 102.24 275.954 102.193 275.983 102.152C276.321 101.472 276.625 100.764 277.019 100.112C278.474 97.7101 279.955 95.3234 281.459 92.9517C281.623 92.5839 281.872 92.2603 282.186 92.0075C282.251 91.9608 282.33 91.9357 282.411 91.9357C282.491 91.9357 282.57 91.9608 282.636 92.0075C282.689 92.0683 282.729 92.139 282.754 92.2155ZM56.3988 140.33C56.5434 139.594 56.7778 138.878 57.0968 138.2C57.6597 136.952 58.2225 135.721 58.7854 134.485C59.3482 133.248 59.9393 132.012 60.5246 130.775C60.6509 130.526 60.7938 130.286 60.9524 130.056C60.9974 129.988 61.0663 129.939 61.1455 129.92C61.2247 129.9 61.3084 129.91 61.3802 129.949C61.4756 129.985 61.5543 130.055 61.6011 130.145C61.6479 130.235 61.6595 130.34 61.6335 130.438C61.6006 130.553 61.5553 130.664 61.4984 130.77C60.8567 132.197 60.2376 133.636 59.5678 135.047C58.898 136.457 58.2788 137.812 57.7103 139.228C57.5268 139.673 57.3201 140.108 57.0912 140.532C57.0011 140.712 56.866 140.886 56.6296 140.847C56.3932 140.807 56.427 140.566 56.3988 140.33ZM35.1283 102.495C34.92 102.495 34.6949 102.247 34.7343 102.079C34.8412 101.612 34.9594 101.146 35.0945 100.685C35.618 98.9203 36.3384 97.2174 36.9857 95.4977C37.3797 94.4467 37.785 93.4013 38.179 92.3504C38.2353 92.2042 38.2747 92.0413 38.3366 91.8951C38.4548 91.6141 38.6799 91.4792 38.8994 91.5467C39.0265 91.6068 39.1265 91.7123 39.1796 91.8423C39.2327 91.9723 39.2352 92.1175 39.1865 92.2492C38.5167 94.0926 37.8356 95.936 37.1715 97.7794C36.7324 98.9821 36.3159 100.196 35.8825 101.399C35.7758 101.702 35.6479 101.996 35.4998 102.281C35.4689 102.352 35.4162 102.411 35.3493 102.449C35.2824 102.488 35.2049 102.504 35.1283 102.495ZM18.5182 158.927C18.4407 158.903 18.372 158.856 18.3209 158.793C18.2698 158.73 18.2386 158.653 18.2311 158.573C18.2294 158.249 18.3454 157.935 18.5576 157.69C19.0304 156.948 19.5257 156.212 20.0154 155.476C21.1411 153.79 22.2668 152.048 23.235 150.255C23.4301 149.903 23.6463 149.563 23.8823 149.238C23.9843 149.118 24.111 149.022 24.2538 148.957C24.329 148.926 24.4115 148.917 24.4914 148.932C24.5712 148.947 24.6451 148.985 24.704 149.041C24.7686 149.088 24.8119 149.159 24.8246 149.238C24.8372 149.317 24.8182 149.397 24.7716 149.462C23.1022 152.485 21.2799 155.42 19.3118 158.258C19.1421 158.478 18.9538 158.683 18.749 158.87C18.6927 158.915 18.5745 158.91 18.5182 158.927ZM229.648 51.2895C229.4 51.3345 229.158 51.0703 229.237 50.9017C229.395 50.5328 229.583 50.1775 229.8 49.8395C230.267 49.137 230.774 48.4626 231.258 47.7713C232.383 46.1302 233.549 44.4779 234.697 42.8312C234.962 42.4277 235.302 42.0787 235.699 41.8027C235.767 41.7567 235.851 41.7392 235.932 41.7539C236.013 41.7686 236.085 41.8143 236.132 41.8814C236.175 41.9228 236.204 41.976 236.216 42.0341C236.228 42.0921 236.222 42.1525 236.2 42.2073C236.146 42.3588 236.072 42.5025 235.98 42.6345C235.192 43.5562 234.612 44.6184 233.926 45.6019C232.749 47.288 231.579 48.974 230.397 50.6263C230.253 50.8297 230.089 51.0181 229.907 51.1884C229.828 51.2395 229.74 51.2739 229.648 51.2895ZM183.735 58.5732C183.476 58.607 183.212 58.3316 183.308 58.118C183.578 57.556 183.831 56.9434 184.157 56.3926C185.356 54.3975 186.583 52.4248 187.799 50.4409C188.052 50.0306 188.294 49.6147 188.559 49.2157C188.657 49.0889 188.775 48.9789 188.908 48.8897C189.06 48.7661 189.325 48.8897 189.386 49.092C189.414 49.2093 189.417 49.3312 189.393 49.4495C189.37 49.5678 189.322 49.6797 189.251 49.7777C188.632 50.8568 188.024 51.9414 187.377 53.0037C186.319 54.7571 185.238 56.4882 184.169 58.2304C184.056 58.4102 183.955 58.5732 183.735 58.5732ZM30.327 222.727C30.1019 222.727 29.8655 222.468 29.9105 222.311C29.9742 222.082 30.0609 221.859 30.1694 221.648C30.7661 220.524 31.3909 219.4 31.9762 218.242C32.7248 216.775 33.5016 215.331 34.374 213.931C34.5166 213.641 34.7368 213.396 35.0101 213.223C35.0797 213.183 35.1594 213.165 35.2394 213.17C35.3194 213.175 35.3962 213.203 35.4604 213.251C35.527 213.299 35.5736 213.369 35.5912 213.449C35.6089 213.529 35.5964 213.613 35.556 213.684C35.4322 213.931 35.2521 214.156 35.117 214.398C34.4866 215.567 33.8618 216.734 33.2427 217.899C32.5222 219.248 31.8017 220.591 31.0925 221.94C30.9821 222.2 30.8102 222.429 30.5916 222.609C30.5095 222.66 30.4204 222.7 30.327 222.727ZM280.75 248.124C280.768 248.202 280.768 248.284 280.752 248.362C280.735 248.441 280.702 248.515 280.655 248.579C280.294 249.293 279.945 250.018 279.568 250.721C278.443 252.879 277.159 254.964 275.82 257.004C275.774 257.093 275.709 257.17 275.629 257.229C275.549 257.288 275.456 257.329 275.358 257.347C275.279 257.364 275.197 257.359 275.121 257.331C275.045 257.303 274.979 257.254 274.93 257.189C274.872 257.087 274.855 256.966 274.885 256.852C275.002 256.599 275.138 256.355 275.291 256.122C276.838 253.643 278.291 251.108 279.692 248.551C279.809 248.344 279.955 248.155 280.126 247.989C280.272 247.849 280.722 247.961 280.75 248.124ZM245.763 110.919C245.643 110.905 245.534 110.846 245.456 110.754C245.379 110.663 245.34 110.545 245.346 110.425C245.392 110.225 245.472 110.035 245.583 109.863C246.106 109.098 246.624 108.334 247.176 107.615C248.386 106.013 249.618 104.428 250.834 102.832C250.999 102.557 251.221 102.321 251.487 102.141C251.553 102.095 251.632 102.071 251.712 102.071C251.793 102.071 251.871 102.095 251.937 102.141C252.005 102.187 252.052 102.258 252.07 102.338C252.088 102.419 252.075 102.503 252.033 102.573C251.881 102.857 251.706 103.128 251.51 103.383C250.496 104.782 249.495 106.193 248.459 107.564C247.688 108.593 246.843 109.565 246.157 110.655C246.123 110.732 246.068 110.797 245.998 110.844C245.928 110.891 245.847 110.917 245.763 110.919ZM258.101 9.55424C258.119 9.81198 258.047 10.068 257.898 10.2792C256.615 12.9207 255.281 15.5341 253.75 18.0407C253.623 18.3407 253.385 18.5803 253.086 18.7095C253.029 18.7233 252.97 18.7249 252.913 18.7142C252.856 18.7036 252.801 18.6809 252.753 18.6477C252.709 18.6113 252.673 18.5649 252.649 18.5121C252.626 18.4594 252.615 18.4018 252.618 18.3442C252.635 18.1856 252.685 18.0324 252.765 17.8946C253.108 17.2539 253.457 16.6188 253.817 15.9949C254.909 14.1178 255.967 12.2238 256.93 10.2736C257.055 9.93399 257.246 9.62257 257.493 9.35754C257.622 9.24513 257.774 9.17769 257.921 9.29572C257.998 9.36869 258.059 9.45668 258.101 9.55424ZM75.2153 23.6046C75.1853 23.7058 75.1496 23.8053 75.1084 23.9025L72.356 29.9217C72.0915 30.4837 71.8325 31.0907 71.5624 31.6696C71.4459 32.0568 71.2045 32.3947 70.8757 32.6306C70.8236 32.6544 70.7669 32.6667 70.7096 32.6667C70.6523 32.6667 70.5957 32.6544 70.5436 32.6306C70.4926 32.6026 70.4487 32.5631 70.4155 32.5153C70.3823 32.4676 70.3606 32.4128 70.3522 32.3552C70.3777 32.1165 70.4345 31.8822 70.5211 31.6583C70.7068 31.175 70.9038 30.6916 71.129 30.2196C72.0896 28.1926 73.0577 26.1655 74.0333 24.1385C74.1358 23.7934 74.3303 23.4825 74.5962 23.2393C74.6985 23.186 74.8173 23.1739 74.9283 23.2056C75.0128 23.2323 75.0865 23.2855 75.1382 23.3575C75.19 23.4294 75.217 23.5161 75.2153 23.6046ZM189.724 82.1105C189.647 82.0868 189.579 82.0381 189.532 81.972C189.485 81.9059 189.462 81.8261 189.465 81.7451C189.48 81.5493 189.534 81.3584 189.623 81.1831C190.024 80.4338 190.437 79.7013 190.861 78.9856C191.891 77.2209 192.932 75.4674 193.968 73.7083C194.057 73.4791 194.214 73.2828 194.418 73.1463C194.486 73.101 194.567 73.0802 194.648 73.0873C194.729 73.0945 194.805 73.1292 194.863 73.1856C194.901 73.2285 194.93 73.2783 194.948 73.3323C194.966 73.3864 194.974 73.4435 194.97 73.5004C194.905 73.7301 194.817 73.9524 194.705 74.1635C193.692 76.0744 192.662 77.9796 191.497 79.7837C191.109 80.3907 190.743 81.0145 190.371 81.6159C190.256 81.779 190.12 81.9263 189.966 82.0542C189.899 82.1217 189.797 82.0992 189.724 82.1105ZM56.6409 103.855C56.6693 104.07 56.6216 104.289 56.5058 104.473C55.245 106.519 54.1305 108.649 52.7909 110.655C52.4588 111.155 52.1549 111.678 51.8397 112.184C51.7977 112.276 51.724 112.35 51.6321 112.392C51.5401 112.434 51.436 112.442 51.3387 112.414C51.2843 112.389 51.2354 112.353 51.1949 112.309C51.1544 112.265 51.123 112.213 51.1026 112.156C51.0822 112.1 51.0732 112.04 51.076 111.98C51.0789 111.92 51.0935 111.862 51.1192 111.807C51.2736 111.395 51.4618 110.997 51.6821 110.616C52.6446 109.042 53.6239 107.485 54.5977 105.923C54.9973 105.277 55.3969 104.63 55.8022 103.984C55.8606 103.88 55.9325 103.783 56.0161 103.697C56.0694 103.636 56.1428 103.596 56.2232 103.583C56.3036 103.571 56.3858 103.588 56.4551 103.63C56.5307 103.693 56.5937 103.769 56.6409 103.855ZM56.3988 223.384C56.3362 223.312 56.2814 223.232 56.2356 223.148C56.1828 223.04 56.1554 222.92 56.1554 222.8C56.1554 222.679 56.1828 222.56 56.2356 222.451C56.4257 222.055 56.6361 221.668 56.866 221.294C57.6653 220.038 58.4721 218.794 59.2863 217.562C59.7353 216.848 60.1413 216.109 60.5021 215.347C60.6278 215.099 60.7669 214.856 60.9186 214.622C60.952 214.573 61.0032 214.537 61.0618 214.524C61.1203 214.51 61.1818 214.519 61.2338 214.549C61.3052 214.582 61.3657 214.635 61.4083 214.701C61.4582 214.812 61.484 214.931 61.484 215.052C61.484 215.173 61.4582 215.293 61.4083 215.404C61.1899 216.093 60.8854 216.752 60.5021 217.365C59.7141 218.568 58.9261 219.776 58.155 220.99C57.6624 221.663 57.2256 222.376 56.8491 223.12C56.8041 223.294 56.669 223.379 56.3988 223.384ZM41.5787 21.3566C41.566 21.4493 41.5414 21.5399 41.5055 21.6263C40.2953 24.161 39.254 26.7575 38.2409 29.3821C38.1684 29.5746 38.0838 29.7623 37.9876 29.9442C37.8863 30.1296 37.7399 30.2701 37.5035 30.1521C37.4096 30.1143 37.33 30.0476 37.2764 29.9618C37.2228 29.8759 37.1979 29.7753 37.2052 29.6744C37.242 29.4361 37.3043 29.2025 37.391 28.9775C37.6837 28.1851 37.9538 27.387 38.2859 26.6114C38.9614 25.0265 39.6649 23.4473 40.3629 21.8736C40.481 21.5282 40.7081 21.2305 41.0102 21.025C41.0692 21.0024 41.1325 20.9934 41.1955 20.9985C41.2585 21.0037 41.3195 21.0228 41.3741 21.0547C41.4286 21.0865 41.4753 21.1301 41.5107 21.1824C41.5462 21.2346 41.5694 21.2942 41.5787 21.3566ZM264.101 172.988C263.938 172.988 263.718 172.707 263.757 172.556C263.798 172.402 263.851 172.252 263.915 172.106C264.255 171.378 264.672 170.688 265.159 170.049C266.318 168.47 267.478 166.89 268.491 165.204C268.591 165.033 268.716 164.877 268.863 164.744C268.922 164.688 268.998 164.654 269.079 164.648C269.16 164.642 269.24 164.664 269.307 164.71C269.379 164.75 269.433 164.815 269.46 164.893C269.487 164.971 269.485 165.055 269.454 165.131C269.295 165.503 269.107 165.862 268.891 166.205C268.232 167.25 267.551 168.296 266.864 169.324C266.105 170.448 265.328 171.572 264.557 172.696C264.511 172.779 264.446 172.85 264.366 172.901C264.287 172.952 264.195 172.982 264.101 172.988ZM149.26 71.6232C149.28 71.8795 149.209 72.1346 149.057 72.3426C148.494 73.3261 147.977 74.3153 147.419 75.2876C146.716 76.5015 145.995 77.7042 145.28 78.9126C145.166 79.1233 145.034 79.3244 144.886 79.5139C144.729 79.705 144.538 79.8624 144.262 79.7106C144.211 79.6783 144.168 79.6361 144.134 79.5865C144.1 79.537 144.077 79.4811 144.065 79.4223C144.054 79.3635 144.054 79.3029 144.067 79.2443C144.079 79.1857 144.103 79.1302 144.138 79.0812C144.618 78.1969 145.104 77.3202 145.596 76.4509C146.372 75.0909 147.172 73.7477 147.948 72.3876C148.124 72.0281 148.362 71.7027 148.652 71.4265C148.782 71.3197 148.939 71.2467 149.085 71.3647C149.155 71.4424 149.214 71.5294 149.26 71.6232ZM6.11832 81.0426C6.20838 80.6717 6.29844 80.1546 6.46167 79.6657C7.08081 77.8447 7.71122 76.0294 8.35288 74.2197C8.5039 73.8439 8.69248 73.4843 8.91575 73.1463C8.93883 73.1015 8.97069 73.0617 9.00944 73.0294C9.04819 72.9971 9.09304 72.9729 9.14133 72.9582C9.18962 72.9436 9.24037 72.9387 9.29057 72.944C9.34077 72.9493 9.3894 72.9645 9.43358 72.9889C9.5279 73.0277 9.60348 73.1015 9.64442 73.1948C9.68536 73.2881 9.68847 73.3936 9.6531 73.4891C9.54615 73.787 9.40544 74.0792 9.28161 74.3771C8.48797 76.3048 7.942 78.3112 7.31159 80.3008C7.18776 80.6773 7.04704 81.0539 6.9007 81.4248C6.87177 81.5215 6.81107 81.6058 6.72836 81.6639C6.64565 81.722 6.54576 81.7506 6.44478 81.7451C6.21964 81.7339 6.08455 81.4922 6.11832 81.0426ZM86.0617 85.623C86.0069 85.6185 85.9538 85.6019 85.9063 85.5744C85.8587 85.547 85.8178 85.5093 85.7866 85.4641C85.7554 85.419 85.7346 85.3675 85.7257 85.3133C85.7168 85.2591 85.7201 85.2037 85.7353 85.1509C85.8937 84.6568 86.0817 84.1726 86.2981 83.7009C87.1762 81.9868 88.0768 80.2839 88.9717 78.581C89.0858 78.3698 89.2176 78.1686 89.3657 77.9796C89.444 77.8887 89.5397 77.8141 89.6471 77.7604C89.8216 77.6593 90.21 77.8953 90.1819 78.092C90.1647 78.25 90.1209 78.4039 90.0524 78.5473C89.6809 79.306 89.3094 80.0647 88.9267 80.7953C88.2006 82.1779 87.4632 83.5604 86.7315 84.943C86.6406 85.1218 86.5352 85.2928 86.4163 85.4544C86.3784 85.5124 86.3253 85.5587 86.2627 85.5885C86.2002 85.6182 86.1306 85.6302 86.0617 85.623ZM75.9865 223.991C75.8995 224 75.8123 223.977 75.7403 223.928C75.6682 223.879 75.6159 223.806 75.5925 223.721C75.5416 223.485 75.5818 223.238 75.705 223.03C76.0259 222.384 76.3298 221.726 76.6732 221.097C77.4724 219.619 78.2942 218.152 79.1104 216.685C79.2041 216.509 79.3258 216.35 79.4706 216.213C79.5191 216.184 79.5733 216.165 79.6296 216.158C79.6859 216.151 79.743 216.157 79.7971 216.174C79.8775 216.19 79.9492 216.235 79.999 216.3C80.0487 216.365 80.0729 216.446 80.0672 216.528C80.0159 216.759 79.9326 216.982 79.8196 217.191C78.7501 219.255 77.6769 221.316 76.6 223.373C76.5078 223.549 76.3944 223.713 76.2623 223.862C76.1791 223.922 76.0856 223.965 75.9865 223.991Z" fill="black"/>
<path d="M126.532 114.511C126.533 114.591 126.507 114.67 126.458 114.734C126.409 114.799 126.34 114.845 126.261 114.865C126.144 114.894 126.022 114.898 125.903 114.874C125.784 114.851 125.672 114.802 125.575 114.73C124.792 114.246 123.993 113.78 123.228 113.263C121.822 112.242 120.736 110.842 120.098 109.228C120.035 109.079 119.993 108.922 119.974 108.761C119.96 108.683 119.973 108.601 120.011 108.531C120.048 108.461 120.109 108.405 120.182 108.373C120.256 108.339 120.339 108.33 120.418 108.347C120.497 108.365 120.569 108.407 120.621 108.469C120.761 108.664 120.88 108.873 120.976 109.093C121.765 110.825 123.097 112.255 124.77 113.167C125.259 113.443 125.732 113.729 126.211 114.044C126.301 114.087 126.378 114.152 126.434 114.234C126.491 114.316 126.524 114.411 126.532 114.511Z" fill="#090707"/>
<path d="M11.1559 236.609C11.1222 236.682 11.0603 236.867 10.9702 237.041C10.1428 238.592 9.45609 240.217 8.52737 241.723C8.27971 242.128 8.09397 242.577 7.86319 242.999C7.75019 243.201 7.61421 243.389 7.45793 243.561C7.41562 243.599 7.36545 243.627 7.31098 243.643C7.25651 243.66 7.19907 243.664 7.14273 243.656C7.06443 243.636 6.99521 243.59 6.9462 243.526C6.89719 243.462 6.87125 243.383 6.87256 243.302C6.85941 243.184 6.87485 243.065 6.91758 242.954C7.08269 242.462 7.28788 241.984 7.5311 241.526C8.29097 240.256 8.91575 238.913 9.60807 237.592C9.83655 237.171 10.0903 236.763 10.3679 236.372C10.4734 236.257 10.6073 236.172 10.7563 236.125C10.9308 236.047 11.1897 236.283 11.1559 236.609ZM97.06 36.9019C97.0209 37.0689 96.9682 37.2324 96.9024 37.3909C96.6041 38.0035 96.3002 38.6161 95.9737 39.2118C95.4109 40.1954 94.848 41.162 94.2851 42.1343C94.0746 42.4769 93.9385 42.8599 93.8855 43.2583C93.8634 43.3995 93.797 43.5299 93.6958 43.6309C93.5946 43.7319 93.464 43.7983 93.3226 43.8204C93.2264 43.8588 93.1205 43.8665 93.0197 43.8423C92.9189 43.8181 92.8281 43.7634 92.7598 43.6855C92.7128 43.62 92.6848 43.5429 92.6789 43.4626C92.6729 43.3823 92.6892 43.3019 92.726 43.2302C92.8217 43.0111 92.9174 42.7863 93.0299 42.5783C93.9455 40.8361 94.8649 39.0976 95.788 37.3628C95.9564 37.0838 96.1445 36.8171 96.3508 36.5647C96.3953 36.4975 96.461 36.4471 96.5376 36.4216C96.6141 36.3961 96.697 36.3971 96.773 36.4242C96.9812 36.531 97.0263 36.649 97.06 36.9019ZM149.007 35.9971C149.069 36.3006 148.399 36.5198 148.309 36.7446C146.935 40.0436 145.494 43.3089 143.806 46.4675C143.654 46.7485 143.507 47.0295 143.339 47.3105C143.281 47.394 143.2 47.4585 143.106 47.4956C143.012 47.5326 142.908 47.5406 142.81 47.5184C142.635 47.5184 142.494 47.3835 142.522 47.2093C142.561 47.0121 142.632 46.8224 142.731 46.6473C143.474 45.0905 144.234 43.5394 144.982 41.9769C145.776 40.2909 146.536 38.5374 147.312 36.8233C147.465 36.4949 147.64 36.1776 147.836 35.8735C147.858 35.8391 147.886 35.8094 147.919 35.786C147.953 35.7626 147.99 35.7459 148.03 35.7371C148.07 35.7282 148.111 35.7272 148.151 35.7342C148.191 35.7413 148.229 35.7561 148.264 35.7779C148.354 35.8341 148.978 35.9465 149.018 35.9971M108.987 10.1163C108.957 10.2175 108.921 10.3169 108.88 10.4142L106.128 16.4333C105.863 16.9954 105.604 17.6023 105.334 18.1812C105.218 18.5684 104.976 18.9063 104.647 19.1423C104.595 19.166 104.539 19.1783 104.481 19.1783C104.424 19.1783 104.367 19.166 104.315 19.1423C104.264 19.1142 104.22 19.0748 104.187 19.027C104.154 18.9792 104.132 18.9244 104.124 18.8669C104.149 18.6282 104.206 18.3939 104.293 18.17C104.479 17.6866 104.676 17.2033 104.901 16.7312C105.861 14.7042 106.829 12.6772 107.805 10.6502C107.908 10.305 108.102 9.99418 108.368 9.75098C108.47 9.69767 108.589 9.6856 108.7 9.71726C108.785 9.74393 108.858 9.79721 108.91 9.86913C108.962 9.94105 108.989 10.0278 108.987 10.1163ZM130.832 23.4136C130.793 23.5806 130.74 23.7441 130.674 23.9025C130.376 24.5151 130.072 25.1277 129.745 25.7235C129.183 26.707 128.62 27.6737 128.057 28.6459C127.846 28.9886 127.71 29.3715 127.657 29.77C127.635 29.9111 127.569 30.0416 127.468 30.1426C127.366 30.2436 127.236 30.3099 127.094 30.332C126.998 30.3704 126.892 30.3781 126.791 30.3539C126.691 30.3298 126.6 30.275 126.532 30.1971C126.485 30.1316 126.457 30.0545 126.451 29.9742C126.445 29.8939 126.461 29.8135 126.498 29.7419C126.593 29.5227 126.689 29.2979 126.802 29.0899C127.717 27.3477 128.637 25.6092 129.56 23.8744C129.728 23.5954 129.916 23.3287 130.123 23.0764C130.167 23.0091 130.233 22.9587 130.309 22.9332C130.386 22.9078 130.469 22.9087 130.545 22.9359C130.753 23.0426 130.798 23.1607 130.832 23.4136ZM234.151 191.563C234.145 191.642 234.126 191.72 234.095 191.793C232.856 193.727 232.001 195.857 230.943 197.88C230.837 198.094 230.711 198.297 230.565 198.487C230.503 198.574 230.409 198.633 230.304 198.651C230.198 198.668 230.09 198.644 230.003 198.583C229.933 198.542 229.88 198.478 229.852 198.402C229.824 198.326 229.824 198.243 229.851 198.167C229.98 197.744 230.134 197.329 230.312 196.925C230.982 195.559 231.669 194.193 232.367 192.839C232.599 192.418 232.858 192.012 233.143 191.625C233.206 191.524 233.287 191.437 233.384 191.368C233.481 191.3 233.59 191.251 233.706 191.226C233.931 191.198 234.19 191.394 234.151 191.563ZM47.2805 54.9145C47.1172 54.9483 46.8358 54.7235 46.8527 54.5661C46.8691 54.4092 46.9031 54.2546 46.954 54.1052C47.1285 53.6107 47.2917 53.1161 47.5169 52.6384C48.1228 51.1099 48.8473 49.6311 49.6839 48.2153C49.8644 47.9507 50.0678 47.7025 50.2918 47.4735C50.3261 47.4231 50.3714 47.3813 50.4244 47.3512C50.4773 47.321 50.5365 47.3034 50.5973 47.2996C50.6582 47.2958 50.7191 47.3059 50.7754 47.3292C50.8317 47.3526 50.8819 47.3884 50.9222 47.4341C50.9627 47.4689 50.9951 47.5121 51.0174 47.5606C51.0397 47.6091 51.0512 47.6618 51.0512 47.7151C51.0512 47.7685 51.0397 47.8212 51.0174 47.8697C50.9951 47.9182 50.9627 47.9613 50.9222 47.9961C50.3759 48.6908 49.9341 49.4614 49.6107 50.2835C49.1942 51.1547 48.834 52.0483 48.4456 52.925C48.181 53.5151 47.9165 54.094 47.6351 54.6729C47.6021 54.7404 47.552 54.7983 47.4898 54.8406C47.4277 54.883 47.3555 54.9085 47.2805 54.9145ZM88.3075 191.838C88.2569 191.99 88.2118 192.136 88.1555 192.282C87.2306 194.463 86.0698 196.536 84.6939 198.465C84.6317 198.566 84.5581 198.661 84.4744 198.746C84.408 198.828 84.3125 198.881 84.2077 198.895C84.1028 198.908 83.9968 198.881 83.9116 198.819C83.8679 198.788 83.8307 198.75 83.8022 198.705C83.7737 198.66 83.7544 198.61 83.7455 198.558C83.7365 198.505 83.7382 198.452 83.7503 198.4C83.7624 198.348 83.7847 198.3 83.8159 198.257C84.0088 197.772 84.2482 197.307 84.5307 196.868C85.5256 195.451 86.3885 193.946 87.1086 192.372C87.2527 192.087 87.4203 191.815 87.6096 191.557C87.6613 191.494 87.7359 191.454 87.817 191.446C87.8982 191.437 87.9794 191.461 88.043 191.512C88.1449 191.609 88.2338 191.719 88.3075 191.838ZM120.244 73.4892C120.211 73.5735 120.154 73.7645 120.07 73.9388C119.304 75.5293 118.488 77.0973 117.605 78.6316C117.427 78.9473 117.187 79.2244 116.901 79.4465C116.863 79.4836 116.818 79.5125 116.769 79.5313C116.719 79.5501 116.666 79.5585 116.613 79.5559C116.56 79.5532 116.509 79.5396 116.461 79.516C116.414 79.4923 116.372 79.4591 116.338 79.4184C116.258 79.3519 116.201 79.2616 116.175 79.1605C116.15 79.0594 116.158 78.9528 116.197 78.8564C116.213 78.82 116.234 78.786 116.259 78.7552C117.25 77.7549 117.661 76.4229 118.308 75.2314C118.618 74.6694 118.871 74.1074 119.186 73.5116C119.256 73.3684 119.341 73.2328 119.439 73.107C119.464 73.0633 119.498 73.025 119.538 72.9945C119.578 72.964 119.624 72.9418 119.673 72.9292C119.721 72.9166 119.772 72.9139 119.822 72.9213C119.872 72.9287 119.92 72.9459 119.963 72.9721C120.053 73.0239 120.127 73.0996 120.177 73.1909C120.227 73.2822 120.25 73.3854 120.244 73.4892ZM230.211 164.109C230.128 164.11 230.048 164.083 229.983 164.032C229.918 163.981 229.873 163.908 229.856 163.828C229.811 163.589 229.851 163.343 229.969 163.131C230.259 162.468 230.614 161.836 231.027 161.242C231.59 160.422 232.153 159.596 232.716 158.769C232.909 158.462 233.161 158.197 233.459 157.988C233.499 157.958 233.546 157.937 233.595 157.925C233.644 157.914 233.696 157.913 233.745 157.923C233.795 157.932 233.842 157.952 233.884 157.981C233.926 158.009 233.961 158.046 233.988 158.089C234.046 158.146 234.082 158.222 234.087 158.303C234.092 158.384 234.067 158.464 234.016 158.528C233.287 159.487 232.614 160.487 232.001 161.523C231.527 162.22 231.098 162.947 230.717 163.698C230.68 163.807 230.613 163.904 230.523 163.976C230.434 164.049 230.325 164.095 230.211 164.109ZM249.117 226.211C249.241 226.211 249.472 226.459 249.399 226.622C249.325 226.802 249.231 226.974 249.117 227.133C248.493 228.01 247.851 228.875 247.311 229.814C246.918 230.462 246.574 231.138 246.281 231.837C246.229 231.988 246.16 232.131 246.072 232.264C246.014 232.347 245.929 232.407 245.831 232.432C245.733 232.458 245.629 232.448 245.538 232.405C245.464 232.371 245.404 232.314 245.367 232.243C245.329 232.172 245.316 232.091 245.329 232.011C245.393 231.453 245.569 230.914 245.847 230.426C246.534 229.163 247.327 227.959 248.217 226.829C248.314 226.668 248.445 226.529 248.6 226.423C248.755 226.316 248.932 226.244 249.117 226.211ZM94.3808 100.736C94.3974 100.952 94.3463 101.168 94.2345 101.354C93.3845 102.888 92.5459 104.428 91.7016 105.968C91.6014 106.183 91.4747 106.385 91.3245 106.569C91.2646 106.658 91.174 106.722 91.0701 106.748C90.9661 106.773 90.8562 106.76 90.7616 106.71C90.6705 106.666 90.5986 106.59 90.5592 106.497C90.5198 106.404 90.5157 106.3 90.5477 106.204C90.6307 105.937 90.7401 105.679 90.8742 105.434C91.4858 104.31 92.1106 103.197 92.7485 102.096C92.9849 101.68 93.2382 101.275 93.5027 100.876C93.595 100.746 93.714 100.637 93.8517 100.556C93.9003 100.527 93.9543 100.508 94.0104 100.5C94.0665 100.492 94.1235 100.496 94.1782 100.511C94.2908 100.545 94.3358 100.679 94.3808 100.736ZM178.202 20.5585C178.152 20.6878 178.124 20.8058 178.073 20.9126C177.167 22.6492 176.266 24.3859 175.349 26.1169C175.225 26.3529 175.084 26.6452 174.724 26.5609C174.476 26.5047 174.403 26.1731 174.578 25.7291C174.786 25.1689 175.027 24.621 175.298 24.088C175.793 23.1269 176.317 22.1828 176.846 21.2442C177.048 20.9013 177.282 20.5777 177.544 20.2775C177.606 20.2259 177.685 20.1977 177.766 20.1977C177.847 20.1977 177.926 20.2259 177.988 20.2775C178.073 20.3607 178.145 20.4553 178.202 20.5585ZM265.339 256.15C265.348 256.251 265.337 256.353 265.305 256.45C265.273 256.547 265.221 256.636 265.153 256.712C264.591 257.532 264 258.353 263.414 259.162C262.851 259.838 262.352 260.564 261.923 261.332C261.905 261.387 261.877 261.439 261.838 261.483C261.799 261.526 261.752 261.561 261.698 261.585C261.645 261.609 261.587 261.621 261.529 261.621C261.471 261.621 261.413 261.609 261.36 261.584C261.296 261.553 261.24 261.508 261.194 261.454C261.149 261.4 261.115 261.336 261.095 261.268C261.075 261.2 261.069 261.129 261.078 261.059C261.087 260.988 261.11 260.921 261.146 260.859C261.551 260.219 261.973 259.584 262.412 258.96C263.099 257.976 263.808 257.004 264.506 256.032C264.551 255.964 264.606 255.904 264.669 255.852C264.724 255.795 264.796 255.757 264.875 255.745C264.953 255.733 265.033 255.747 265.103 255.784C265.17 255.821 265.226 255.873 265.267 255.937C265.309 256.001 265.333 256.074 265.339 256.15ZM164.249 16.7312C164.248 16.8197 164.231 16.9073 164.198 16.9897C164.003 17.471 163.762 17.9321 163.478 18.3667C162.634 19.4907 161.913 20.6766 161.176 21.8624C161.111 21.9611 161.04 22.055 160.962 22.1434C160.844 22.2839 160.545 22.194 160.478 22.0085C160.426 21.8566 160.412 21.6946 160.437 21.5362C160.461 21.3777 160.524 21.2275 160.618 21.0981C161.097 20.3225 161.553 19.5244 162.043 18.7488C162.465 18.0688 162.915 17.4113 163.354 16.7481C163.452 16.572 163.61 16.4366 163.799 16.3659C163.853 16.3552 163.909 16.3565 163.963 16.3698C164.017 16.3832 164.067 16.4082 164.11 16.443C164.153 16.4779 164.187 16.5218 164.212 16.5716C164.236 16.6214 164.248 16.6759 164.249 16.7312ZM77.9002 153.88C77.8954 153.971 77.8744 154.06 77.8383 154.144C76.9602 155.673 76.0747 157.198 75.1816 158.719C75.1604 158.751 75.1358 158.781 75.1084 158.809C75.0619 158.875 74.9953 158.925 74.9184 158.952C74.8415 158.978 74.7582 158.979 74.6806 158.955C74.5833 158.925 74.4988 158.863 74.4406 158.78C74.3825 158.696 74.354 158.596 74.3598 158.494C74.3724 158.336 74.4144 158.182 74.4836 158.039C74.6919 157.606 74.8889 157.162 75.1365 156.752C75.6994 155.864 76.2623 154.987 76.8251 154.11C76.9632 153.863 77.176 153.667 77.433 153.548C77.4857 153.538 77.5399 153.538 77.5924 153.549C77.6449 153.561 77.6945 153.582 77.7382 153.613C77.782 153.644 77.8189 153.684 77.8468 153.73C77.8746 153.776 77.8928 153.827 77.9002 153.88ZM235.102 22.3233C235.076 22.4361 235.032 22.5441 234.973 22.6436C234.652 23.0988 234.314 23.5428 233.988 23.9981C233.312 24.9366 232.642 25.8808 231.967 26.8081C231.875 26.9377 231.761 27.0499 231.629 27.1397C231.563 27.1862 231.483 27.2067 231.403 27.1974C231.323 27.188 231.249 27.1495 231.196 27.0892C231.158 27.0455 231.129 26.9947 231.11 26.9397C231.092 26.8847 231.085 26.8266 231.089 26.7688C231.143 26.5374 231.236 26.317 231.365 26.1169C232.237 24.8804 233.126 23.6496 234.021 22.4244C234.169 22.1833 234.396 22.0007 234.663 21.9074C234.721 21.8985 234.78 21.9029 234.836 21.9204C234.891 21.9378 234.942 21.9677 234.985 22.0079C235.027 22.048 235.06 22.0973 235.08 22.152C235.1 22.2066 235.108 22.2652 235.102 22.3233ZM276.551 212.358C276.498 212.358 276.445 212.347 276.396 212.325C276.347 212.304 276.303 212.272 276.267 212.232C276.232 212.192 276.205 212.145 276.189 212.094C276.173 212.043 276.168 211.989 276.174 211.936C276.364 211.45 276.649 211.007 277.013 210.632C277.801 209.722 278.476 208.733 279.197 207.777C279.316 207.617 279.45 207.469 279.596 207.333C279.641 207.292 279.699 207.27 279.76 207.27C279.82 207.27 279.878 207.292 279.923 207.333C280.012 207.41 280.076 207.512 280.109 207.625C280.116 207.786 280.091 207.946 280.035 208.097C279.979 208.248 279.893 208.386 279.782 208.502C279.084 209.474 278.375 210.447 277.649 211.397C277.391 211.703 277.108 211.989 276.805 212.251C276.727 212.3 276.641 212.337 276.551 212.358ZM163.163 55.1899C163.084 55.1781 163.012 55.1418 162.955 55.0863C162.898 55.0308 162.861 54.9589 162.847 54.8808C162.829 54.6418 162.872 54.4021 162.971 54.1839C163.283 53.3585 163.65 52.5549 164.069 51.7785C164.271 51.3457 164.485 50.913 164.716 50.4915C164.806 50.3144 164.924 50.1531 165.065 50.0138C165.124 49.9569 165.201 49.922 165.283 49.9148C165.365 49.9076 165.447 49.9287 165.515 49.9744C165.585 50.0133 165.639 50.0745 165.668 50.1481C165.698 50.2217 165.702 50.3032 165.679 50.3791C165.663 50.4583 165.638 50.5355 165.605 50.6095C164.964 51.9864 164.356 53.3915 163.68 54.7459C163.579 54.9651 163.461 55.1843 163.163 55.1899ZM288.934 62.2151C288.886 62.3648 288.82 62.5082 288.737 62.6423C288.405 63.0975 288.045 63.5302 287.707 63.9799C287.281 64.5141 286.913 65.0926 286.61 65.7052C286.525 65.8865 286.415 66.0548 286.283 66.2054C286.226 66.2636 286.151 66.3008 286.071 66.311C285.99 66.3212 285.908 66.3038 285.839 66.2616C285.761 66.2381 285.694 66.1867 285.651 66.1173C285.609 66.0478 285.593 65.9652 285.608 65.8851C285.683 65.5317 285.804 65.1897 285.968 64.8678C286.615 63.8519 287.358 62.8997 288.186 62.024C288.235 61.9603 288.297 61.9078 288.367 61.87C288.438 61.8322 288.516 61.81 288.597 61.8049C288.693 61.8211 288.78 61.8715 288.842 61.9469C288.904 62.0223 288.937 62.1176 288.934 62.2151ZM243.872 68.0039C243.82 68.215 243.753 68.4217 243.669 68.6221C243.168 69.7461 242.543 70.7578 242.149 71.893C242.122 71.9904 242.072 72.0799 242.004 72.1542C241.935 72.2285 241.85 72.2854 241.755 72.3202C241.642 72.3566 241.518 72.3465 241.412 72.2921C241.327 72.2415 241.226 72.0897 241.249 72.0054C241.333 71.621 241.452 71.2449 241.603 70.8814C242.003 69.9597 242.431 69.0549 242.853 68.15C242.942 67.9701 243.047 67.7988 243.168 67.6386C243.207 67.5695 243.268 67.515 243.341 67.4836C243.414 67.4522 243.496 67.4454 243.573 67.4644C243.798 67.5318 243.838 67.7341 243.872 68.0039ZM142.016 54.8021C141.997 54.9367 141.963 55.0688 141.915 55.1956C141.392 56.2331 140.931 57.301 140.536 58.3934C140.501 58.4674 140.456 58.5356 140.4 58.5957C140.355 58.6613 140.288 58.7099 140.212 58.7343C140.136 58.7586 140.054 58.7574 139.978 58.7306C139.901 58.7057 139.833 58.6599 139.78 58.5984C139.727 58.5369 139.693 58.4621 139.68 58.3822C139.666 58.2245 139.685 58.0655 139.736 57.9157C140.155 56.7459 140.681 55.6171 141.307 54.5436C141.322 54.5066 141.345 54.473 141.373 54.4447C141.402 54.4165 141.435 54.3941 141.472 54.379C141.51 54.3638 141.549 54.3562 141.59 54.3565C141.63 54.3567 141.669 54.365 141.706 54.3806C141.87 54.4312 141.954 54.5717 142.016 54.8021ZM37.9369 173.697C37.9528 173.773 37.9525 173.852 37.936 173.929C37.9195 174.005 37.8873 174.077 37.8413 174.141C37.4022 174.95 36.9632 175.759 36.5129 176.557C36.428 176.691 36.307 176.798 36.1639 176.866C36.1091 176.887 36.0503 176.895 35.9919 176.89C35.9335 176.885 35.8769 176.868 35.8262 176.838C35.7783 176.805 35.7386 176.762 35.7103 176.711C35.682 176.66 35.6658 176.604 35.663 176.546C35.6804 176.387 35.7202 176.232 35.7812 176.085C36.0625 175.249 36.4789 174.465 37.0139 173.764C37.1105 173.638 37.2286 173.529 37.3628 173.444C37.4165 173.417 37.4753 173.403 37.535 173.402C37.5947 173.401 37.654 173.413 37.7087 173.437C37.7633 173.461 37.812 173.497 37.8515 173.542C37.8909 173.586 37.9201 173.639 37.9369 173.697Z" fill="black"/>
<path d="M155.879 249.023C156.149 249.254 156.337 249.565 156.414 249.911C157.23 252.306 158.102 254.7 158.39 257.218C158.592 258.574 158.552 259.955 158.271 261.298C158.054 262.284 157.626 263.212 157.017 264.018C156.408 264.824 155.632 265.489 154.742 265.968C153.967 266.399 153.162 266.775 152.333 267.092C148.236 268.66 144.127 270.195 140.029 271.757C136.449 273.105 132.739 274.079 128.957 274.663C127.131 275.004 125.261 275.035 123.425 274.753C122.268 274.556 121.151 274.176 120.115 273.628C119.579 273.358 119.112 272.97 118.747 272.493C118.382 272.017 118.13 271.465 118.009 270.878C117.888 270.29 117.901 269.683 118.047 269.102C118.193 268.521 118.469 267.98 118.854 267.519C119.184 267.114 119.55 266.737 119.946 266.395C120.695 265.727 121.471 265.086 122.231 264.428C124.338 262.607 126.149 260.47 127.601 258.094C128.938 255.938 130.53 253.949 132.34 252.171L133.123 251.418C133.922 250.675 134.87 250.11 135.905 249.762C136.939 249.413 138.036 249.288 139.123 249.394C139.28 249.394 139.444 249.428 139.601 249.451C139.82 249.465 140.026 249.554 140.185 249.704C140.345 249.854 140.447 250.054 140.474 250.271C140.692 251.15 141.116 251.965 141.711 252.649C142.306 253.333 143.054 253.866 143.896 254.205C144.431 254.468 144.999 254.657 145.584 254.767C147.487 255.15 149.449 255.115 151.337 254.666C152.55 254.337 153.638 253.654 154.461 252.705C155.249 251.879 155.697 250.788 155.716 249.647C155.722 249.487 155.739 249.327 155.767 249.17C155.795 249.147 155.829 249.113 155.879 249.023Z" fill="#F38704"/>
<path d="M118.038 273.415C117.937 273.572 117.768 273.555 117.616 273.572C115.454 273.797 113.293 274.033 111.126 274.241C107.148 274.573 103.152 274.635 99.1651 274.427C96.6677 274.401 94.176 274.181 91.7128 273.769C90.3243 273.522 88.9698 273.113 87.6771 272.549C87.1809 272.359 86.754 272.023 86.4526 271.585C86.1512 271.148 85.9894 270.63 85.9885 270.099C85.9789 269.408 86.1747 268.729 86.5514 268.149C87.3718 266.745 88.6433 265.66 90.1593 265.069C90.9157 264.791 91.6906 264.565 92.4783 264.395C95.1721 263.794 97.6197 262.391 99.4972 260.371C100.561 259.246 101.614 258.156 102.666 257.049C104.524 255.088 106.409 253.165 108.413 251.35C109.032 250.773 109.707 250.259 110.428 249.816C111.498 249.159 112.735 248.823 113.991 248.849C114.797 248.894 115.583 249.116 116.293 249.501C116.545 249.641 116.743 249.861 116.856 250.125C117.222 250.743 117.61 251.356 117.982 251.985C118.068 252.144 118.185 252.285 118.326 252.399C118.467 252.513 118.629 252.598 118.803 252.648C121.297 253.407 123.824 253.834 126.419 253.21C127.403 252.983 128.331 252.557 129.143 251.957C129.464 251.745 129.73 251.46 129.918 251.124C130.106 250.789 130.211 250.414 130.224 250.029C130.232 249.828 130.251 249.627 130.28 249.428C130.342 248.866 130.494 248.771 130.95 249.018C131.27 249.187 131.574 249.387 131.856 249.614C132.689 250.299 132.689 250.524 131.907 251.3C129.914 253.24 128.165 255.416 126.7 257.78C125.215 260.193 123.339 262.345 121.151 264.147C120.28 264.867 119.435 265.616 118.618 266.395C118.027 266.95 117.578 267.636 117.307 268.399C117.036 269.161 116.951 269.977 117.059 270.779C117.105 271.546 117.36 272.287 117.796 272.92C117.908 273.05 118.072 273.19 118.038 273.415Z" fill="#F38704"/>
<path d="M247.44 249.304C246.929 248.298 246.277 247.368 245.504 246.545C244.29 245.25 242.926 244.105 241.44 243.133C239.458 241.824 237.37 240.683 235.198 239.722C229.518 237.248 223.62 235.306 217.58 233.922C215.042 233.298 212.464 232.837 209.987 231.966C209.372 231.775 208.746 231.621 208.113 231.505C207.471 231.371 207.454 231.348 207.753 230.724C207.82 230.578 207.893 230.438 207.966 230.291C209.608 226.888 211.059 223.397 212.312 219.832C212.409 219.57 212.474 219.296 212.503 219.017C212.505 218.936 212.478 218.857 212.428 218.794C212.378 218.73 212.307 218.686 212.227 218.669C212.153 218.636 212.069 218.629 211.99 218.648C211.91 218.667 211.84 218.712 211.788 218.776C211.661 218.98 211.555 219.196 211.473 219.422C211.051 220.546 210.64 221.67 210.207 222.794C208.7 226.826 206.841 230.717 204.651 234.422C203.385 236.528 201.861 238.469 200.115 240.2C198.174 242.147 195.811 243.621 193.208 244.51C190.14 245.635 186.907 246.243 183.64 246.309C180.901 246.425 178.158 246.237 175.461 245.747C173.694 245.359 171.932 244.954 170.148 244.623C169.162 244.427 168.201 244.122 167.283 243.712C165.504 242.965 163.849 241.953 162.099 241.133C162.054 241.133 162.037 241.026 162.003 240.97C162.388 240.746 162.816 240.606 163.258 240.559C164.784 240.093 164.699 240.318 164.885 238.503V238.261C164.885 236.732 164.885 235.198 164.823 233.675C164.671 228.201 164.373 222.738 164.029 217.275C163.968 216.309 163.855 215.347 163.804 214.386C163.542 209.399 163.281 204.416 163.022 199.437C162.977 198.594 162.898 197.751 162.819 196.913C162.789 196.633 162.732 196.357 162.65 196.087C162.566 195.801 162.346 195.649 162.133 195.699C161.919 195.75 161.84 195.952 161.834 196.16C161.829 196.368 161.834 196.559 161.874 196.762C162.031 199.173 162.161 201.584 162.363 203.989C162.532 205.996 162.577 208.008 162.65 210.014C162.712 211.621 162.746 213.24 162.904 214.836C163.365 219.568 163.467 224.317 163.742 229.055C163.917 232.028 163.939 235.007 164.029 237.985V238.828C164.042 238.989 163.995 239.148 163.897 239.275C163.8 239.403 163.658 239.49 163.5 239.52C162.46 239.837 161.394 240.063 160.315 240.194C157.951 240.458 155.575 240.593 153.206 240.756C147.807 241.18 142.379 240.479 137.265 238.699C137.001 238.604 136.747 238.486 136.489 238.373C136.355 238.323 136.24 238.235 136.156 238.12C136.072 238.006 136.023 237.869 136.016 237.727C136.016 237.525 135.976 237.328 135.959 237.126C135.779 235.125 135.594 233.118 135.397 231.118C135.183 228.752 134.946 226.391 134.755 224.025C134.547 221.339 134.367 218.646 134.192 215.954C134.018 213.262 133.837 210.492 133.837 207.755C133.837 201.962 133.973 196.17 134.243 190.377C134.38 187.202 134.718 184.039 135.256 180.907C135.687 178.327 136.36 175.792 137.265 173.337C138.695 169.554 141.295 167.008 145.331 166.087C146.198 165.89 147.059 165.693 147.92 165.48C150.011 165.026 152.162 164.923 154.286 165.176C156.774 165.451 159.196 166.151 161.446 167.245C165.966 169.319 169.972 172.364 173.176 176.164C173.88 176.99 174.583 177.822 175.292 178.648C179.293 183.248 182.919 188.158 186.139 193.333C187.884 196.177 189.657 199.01 191.491 201.797C193.113 204.293 194.577 206.887 195.876 209.564C196.364 210.534 196.778 211.539 197.115 212.571C197.144 212.729 197.199 212.881 197.278 213.021C197.362 213.105 197.474 213.155 197.593 213.161C197.633 213.168 197.674 213.168 197.714 213.159C197.753 213.15 197.791 213.133 197.824 213.11C197.857 213.086 197.885 213.056 197.906 213.021C197.927 212.987 197.941 212.948 197.948 212.908C197.984 212.723 197.984 212.532 197.948 212.346C197.848 211.964 197.724 211.588 197.576 211.222C196.835 209.439 195.993 207.7 195.054 206.012C194.936 205.793 194.683 205.591 194.812 205.293C194.885 205.251 194.968 205.229 195.052 205.229C195.136 205.229 195.218 205.251 195.291 205.293C196.535 205.759 197.784 206.203 199.011 206.709C203.975 208.679 208.401 211.793 211.929 215.797C212.013 215.887 212.087 215.983 212.171 216.067C212.503 216.393 212.869 216.359 213.038 215.932C213.281 215.339 213.481 214.728 213.635 214.105C214.098 211.938 214.287 209.722 214.197 207.507C214.056 202.76 213.59 198.028 212.801 193.345C212.036 188.416 211.434 183.47 210.944 178.502C210.747 176.546 210.528 174.568 210.145 172.646C209.405 168.736 208.441 164.873 207.257 161.074C206.737 159.261 206.056 157.498 205.22 155.808L208.282 153.987C210.737 152.604 213.107 151.076 215.379 149.412C217.012 148.164 218.599 146.855 220.096 145.478C222.348 143.381 224.47 141.195 226.699 139.099C227.994 137.831 229.197 136.473 230.301 135.035C231.664 133.288 232.625 131.261 233.115 129.101C233.35 128.285 233.432 127.433 233.357 126.588C232.968 123.399 231.522 120.432 229.248 118.158C226.087 114.929 222.45 112.202 218.464 110.071C215.402 108.458 212.218 107.09 208.94 105.979C206.491 105.082 203.964 104.411 201.392 103.973C199.321 103.653 197.255 103.31 195.201 102.961C192.341 102.478 189.482 101.978 186.6 101.674C185.84 101.59 185.075 101.551 184.309 101.494C184.068 101.456 183.821 101.498 183.606 101.612C183.564 101.638 183.528 101.673 183.501 101.715C183.474 101.756 183.456 101.803 183.45 101.852C183.443 101.901 183.448 101.951 183.463 101.998C183.478 102.045 183.504 102.088 183.538 102.124C183.6 102.174 183.662 102.259 183.73 102.264C184.264 102.298 184.343 102.658 184.371 103.096C184.479 104.175 184.351 105.264 183.996 106.289C183.642 107.313 183.069 108.249 182.317 109.031C182.174 109.171 182.051 109.33 181.951 109.503C181.916 109.577 181.911 109.662 181.936 109.74C181.961 109.818 182.015 109.884 182.086 109.925C182.136 109.954 182.191 109.973 182.248 109.98C182.305 109.986 182.363 109.981 182.418 109.964C182.878 109.71 183.273 109.355 183.572 108.924C184.792 107.349 185.415 105.395 185.334 103.405C185.334 103.096 185.187 102.77 185.429 102.41C186.713 102.573 188.024 102.708 189.33 102.911C192.195 103.349 195.06 103.799 197.919 104.276C199.861 104.602 201.814 104.911 203.734 105.355C207.521 106.304 211.212 107.6 214.76 109.228C218.892 111.053 222.728 113.483 226.141 116.438C228.072 117.968 229.706 119.836 230.965 121.952C231.751 123.449 232.255 125.078 232.451 126.757C232.506 127.197 232.485 127.644 232.389 128.078C232.018 130.226 231.153 132.26 229.862 134.018C228.713 135.57 227.44 137.026 226.057 138.374C223.766 140.526 221.554 142.786 219.303 144.921C215.976 147.984 212.304 150.651 208.36 152.868C205.738 154.369 203.137 155.892 200.599 157.533C199.889 157.988 199.146 158.393 198.42 158.826C198.19 158.966 198.06 159.247 198.161 159.421C198.227 159.522 198.326 159.597 198.442 159.631C198.557 159.666 198.681 159.66 198.792 159.612C199.216 159.493 199.618 159.303 199.979 159.05C200.97 158.438 201.949 157.797 202.94 157.179C204.691 156.089 204.37 155.796 205.282 158.016C205.338 158.162 205.377 158.32 205.428 158.477C206.651 162.009 207.667 165.608 208.473 169.257C208.828 170.909 209.255 172.556 209.475 174.225C209.948 177.85 210.297 181.497 210.73 185.134C210.978 187.247 211.293 189.36 211.574 191.467C211.912 193.895 212.312 196.318 212.616 198.774C212.959 201.488 213.179 204.22 213.274 206.957C213.377 209.088 213.239 211.224 212.863 213.324C212.834 213.841 212.68 214.342 212.413 214.785C212.149 214.785 212.059 214.572 211.923 214.431C209.299 211.637 206.227 209.299 202.833 207.513C200.238 206.137 197.504 205.039 194.677 204.236C194.48 204.208 194.291 204.139 194.123 204.033C193.954 203.928 193.809 203.788 193.698 203.624C192.009 200.87 190.191 198.223 188.525 195.469C186.351 191.8 183.983 188.249 181.433 184.83C178.85 181.424 176.108 178.153 173.277 174.961C169.574 170.73 164.862 167.5 159.577 165.57C156.318 164.357 152.812 163.95 149.361 164.384C147.57 164.65 145.801 165.05 144.07 165.581C142 166.164 140.159 167.369 138.796 169.032C138.644 169.212 138.537 169.442 138.278 169.481C137.964 169.015 137.626 168.564 137.265 168.133C135.96 166.695 134.442 165.467 132.762 164.491C129.487 162.569 125.812 161.428 122.023 161.158C121.048 161.096 120.112 160.755 119.327 160.174C116.513 158.252 113.698 156.285 110.951 154.24C107.272 151.503 104.023 148.232 101.315 144.534C99.4031 141.94 97.9347 139.047 96.97 135.974C96.2639 133.774 96.2015 131.419 96.7899 129.185C97.7525 125.552 99.61 122.217 102.193 119.484C104.54 116.939 106.966 114.466 109.556 112.178C110.732 111.139 111.841 110.02 113.051 109.014C114.847 107.525 116.698 106.103 118.528 104.647C119.029 104.243 119.524 103.832 120.008 103.405C120.156 103.272 120.276 103.112 120.363 102.933C120.387 102.856 120.388 102.773 120.366 102.696C120.344 102.618 120.3 102.548 120.239 102.495C120.184 102.435 120.11 102.397 120.03 102.385C119.95 102.374 119.869 102.391 119.8 102.433C119.63 102.541 119.468 102.662 119.316 102.793L117.531 104.237C115.528 105.856 113.451 107.396 111.531 109.11C108.109 112.173 104.777 115.326 101.653 118.703C99.3397 121.183 97.5482 124.102 96.3846 127.285C95.2179 130.357 95.178 133.741 96.272 136.84C97.2174 139.622 98.5616 142.254 100.263 144.652C103.081 148.589 106.5 152.061 110.394 154.942C113.27 157.083 116.175 159.174 119.344 161.209C118.556 161.534 117.914 161.771 117.306 162.057C114.138 163.632 111.61 166.248 110.147 169.465C109.16 171.535 108.432 173.719 107.98 175.967C107.357 179.25 106.959 182.572 106.786 185.909C106.567 189.04 106.404 192.17 106.223 195.306C105.942 200.049 105.835 204.793 105.936 209.542C105.998 212.481 106.1 215.415 106.308 218.349C106.533 221.479 106.572 224.621 106.921 227.74C106.978 228.302 106.955 228.302 106.359 228.386L100.6 229.061C96.8799 229.488 93.1481 229.87 89.4389 230.359C84.966 230.951 80.5081 231.64 76.0653 232.427C69.249 233.63 62.4778 235.057 55.8022 236.85C50.154 238.312 44.6119 240.156 39.2146 242.369C35.6284 243.811 32.1965 245.609 28.9705 247.736C27.3555 248.805 25.8675 250.053 24.5352 251.457C23.6155 252.418 22.8453 253.511 22.25 254.7C21.6415 255.889 21.3408 257.211 21.3752 258.547C21.4096 259.882 21.778 261.187 22.447 262.343C23.037 263.399 23.7742 264.366 24.6365 265.215C25.6625 266.239 26.7839 267.163 27.9855 267.975C29.8854 269.265 31.8907 270.393 33.98 271.347C38.8989 273.558 44.0007 275.339 49.228 276.669C53.8547 277.911 58.5377 278.917 63.2545 279.76C66.5022 280.322 69.7612 280.884 73.0371 281.3C75.0746 281.559 77.1066 281.862 79.1497 282.081C81.829 282.39 84.5138 282.688 87.1987 282.941C89.6077 283.166 92.0168 283.351 94.4315 283.503C97.9268 283.734 101.428 283.975 104.929 284.127C108.43 284.279 112.015 284.346 115.561 284.453C123.948 284.695 132.329 284.526 140.71 284.234C146.594 284.031 152.466 283.7 158.328 283.239C162.669 282.902 167.003 282.501 171.33 282.036C175.495 281.594 179.651 281.075 183.797 280.479C188.859 279.753 193.901 278.9 198.921 277.922C205.113 276.708 211.304 275.298 217.349 273.539C222.618 272.062 227.774 270.21 232.777 267.997C235.838 266.654 238.762 265.018 241.507 263.113C243.028 262.05 244.416 260.81 245.645 259.421C246.475 258.487 247.16 257.433 247.676 256.296C248.173 255.19 248.41 253.985 248.369 252.773C248.328 251.561 248.01 250.375 247.44 249.304ZM140.952 241.391C141.025 240.885 141.082 240.829 141.566 240.93C142.629 241.144 143.693 241.318 144.774 241.459C147.366 241.808 149.987 241.896 152.598 241.723H152.958C153.465 241.723 153.521 241.723 153.667 242.178C153.83 242.591 153.96 243.015 154.056 243.448C154.361 244.778 154.566 246.129 154.669 247.489C154.669 248.208 154.872 248.917 154.849 249.647C154.832 250.538 154.48 251.391 153.864 252.036C152.982 253.045 151.776 253.717 150.453 253.935C148.701 254.238 146.905 254.161 145.185 253.711C144.287 253.473 143.461 253.022 142.776 252.396C141.964 251.664 141.441 250.668 141.301 249.585C141.09 248.056 140.945 246.519 140.868 244.977C140.818 243.781 140.846 242.583 140.952 241.391ZM143.896 254.222C144.431 254.485 144.999 254.674 145.584 254.784C147.487 255.167 149.449 255.132 151.337 254.683C152.55 254.354 153.638 253.671 154.461 252.721C155.249 251.896 155.697 250.805 155.716 249.664C155.722 249.506 155.739 249.348 155.767 249.192C155.767 249.153 155.8 249.119 155.851 249.029C156.121 249.259 156.309 249.571 156.386 249.917C157.202 252.311 158.074 254.705 158.361 257.223C158.564 258.58 158.524 259.961 158.243 261.303C158.026 262.29 157.598 263.217 156.989 264.023C156.38 264.829 155.604 265.495 154.714 265.974C153.939 266.405 153.134 266.781 152.305 267.098C148.207 268.666 144.098 270.2 140.001 271.763C136.421 273.111 132.711 274.085 128.929 274.668C127.103 275.01 125.233 275.04 123.396 274.758C122.24 274.562 121.123 274.182 120.087 273.634C119.552 273.361 119.086 272.971 118.724 272.493C118.362 272.015 118.112 271.461 117.993 270.874C117.875 270.286 117.891 269.679 118.04 269.098C118.189 268.517 118.467 267.978 118.854 267.519C119.184 267.114 119.55 266.737 119.946 266.395C120.695 265.727 121.471 265.086 122.231 264.428C124.338 262.607 126.149 260.47 127.601 258.094C128.938 255.938 130.53 253.949 132.34 252.171L133.123 251.418C133.922 250.675 134.87 250.11 135.905 249.762C136.939 249.413 138.036 249.288 139.123 249.394C139.28 249.394 139.444 249.428 139.601 249.451C139.82 249.465 140.026 249.554 140.185 249.704C140.345 249.854 140.447 250.054 140.474 250.271C140.689 251.153 141.112 251.972 141.707 252.659C142.302 253.346 143.053 253.882 143.896 254.222ZM116.85 250.125C117.216 250.743 117.605 251.356 117.976 251.985C118.062 252.144 118.179 252.285 118.32 252.399C118.462 252.513 118.624 252.598 118.798 252.648C121.291 253.407 123.819 253.834 126.413 253.21C127.398 252.983 128.325 252.557 129.138 251.957C129.459 251.745 129.725 251.46 129.913 251.124C130.101 250.789 130.205 250.414 130.218 250.029C130.218 249.833 130.252 249.63 130.275 249.428C130.336 248.866 130.488 248.771 130.944 249.018C131.265 249.187 131.568 249.387 131.851 249.614C132.684 250.299 132.684 250.524 131.901 251.3C129.908 253.24 128.16 255.416 126.695 257.78C125.211 260.193 123.337 262.344 121.151 264.147C120.28 264.867 119.435 265.616 118.618 266.395C118.027 266.95 117.578 267.636 117.307 268.399C117.036 269.161 116.951 269.977 117.059 270.779C117.105 271.546 117.36 272.287 117.796 272.92C117.908 273.078 118.072 273.218 118.038 273.443C118.004 273.668 117.768 273.584 117.616 273.6C115.454 273.825 113.293 274.061 111.126 274.269C107.148 274.601 103.152 274.663 99.1651 274.455C96.6677 274.429 94.176 274.21 91.7128 273.797C90.3243 273.55 88.9698 273.141 87.6771 272.577C87.1809 272.387 86.754 272.051 86.4526 271.614C86.1512 271.176 85.9894 270.658 85.9885 270.127C85.9789 269.436 86.1747 268.757 86.5514 268.177C87.3718 266.773 88.6432 265.688 90.1593 265.097C90.9157 264.819 91.6906 264.593 92.4783 264.423C95.1721 263.822 97.6197 262.419 99.4972 260.399C100.561 259.275 101.614 258.184 102.666 257.077C104.524 255.116 106.409 253.194 108.413 251.378C109.032 250.801 109.707 250.287 110.428 249.844C111.498 249.187 112.735 248.851 113.991 248.877C114.797 248.922 115.583 249.144 116.293 249.529C116.538 249.663 116.733 249.872 116.85 250.125ZM115.229 242.324C115.182 242.089 115.158 241.85 115.156 241.61C115.156 241.11 115.156 240.852 115.82 241.048C118.194 241.8 120.652 242.257 123.137 242.409C124.703 242.537 126.278 242.454 127.82 242.161C127.898 242.144 127.977 242.133 128.057 242.128C128.104 242.113 128.154 242.109 128.203 242.116C128.252 242.122 128.299 242.139 128.341 242.165C128.383 242.191 128.42 242.226 128.447 242.267C128.475 242.308 128.493 242.354 128.502 242.403C128.86 243.679 129.101 244.984 129.222 246.303C129.261 247.225 129.408 248.135 129.436 249.063C129.47 249.607 129.333 250.149 129.043 250.612C128.753 251.074 128.326 251.435 127.82 251.642C126.53 252.29 125.092 252.59 123.65 252.514C122.352 252.479 121.062 252.31 119.8 252.008C119.286 251.892 118.838 251.582 118.55 251.142C117.835 250.074 117.24 248.93 116.777 247.731C116.078 245.986 115.559 244.174 115.229 242.324ZM135.999 239.087C137.129 239.604 138.298 240.032 139.494 240.368C140.057 240.565 140.091 240.582 140.057 241.228C140.023 241.875 139.933 242.51 139.928 243.15C139.932 244.755 140.03 246.357 140.22 247.95C140.282 248.512 140.26 248.54 139.77 248.478C137.525 248.167 135.243 248.684 133.353 249.934C132.722 248.995 131.789 248.299 130.708 247.961C130.572 247.93 130.45 247.852 130.365 247.742C130.28 247.631 130.236 247.494 130.241 247.354C130.241 247.113 130.207 246.871 130.19 246.629C130.129 245.427 129.941 244.234 129.627 243.072C129.543 242.764 129.481 242.45 129.442 242.133C129.423 242.034 129.443 241.932 129.497 241.847C129.552 241.763 129.636 241.702 129.734 241.678C131.618 240.983 133.447 240.147 135.205 239.177C135.317 239.092 135.45 239.038 135.59 239.022C135.729 239.006 135.871 239.029 135.999 239.087ZM106.792 209.458C106.696 204.585 106.831 199.723 107.13 194.845C107.248 192.917 107.327 190.99 107.456 189.062C107.698 185.448 107.923 181.834 108.464 178.254C108.838 175.625 109.554 173.056 110.591 170.611C111.569 168.262 113.098 166.183 115.049 164.547C116.263 163.549 117.653 162.787 119.147 162.299C120.23 161.978 121.369 161.888 122.49 162.035C123.695 162.14 124.888 162.356 126.053 162.681C127.954 163.203 129.796 163.916 131.552 164.811C133.397 165.806 135.069 167.091 136.505 168.616C136.757 168.878 136.979 169.167 137.17 169.476C137.373 169.722 137.489 170.029 137.501 170.348C137.512 170.667 137.417 170.981 137.232 171.24C136.694 172.139 136.288 173.11 136.027 174.124C134.932 177.573 134.177 181.121 133.776 184.718C133.292 189.124 133.134 193.541 133.049 197.964C132.959 202.91 132.774 207.861 133.083 212.807C133.286 216.056 133.415 219.315 133.719 222.558C133.939 224.879 134.085 227.206 134.282 229.533C134.535 232.214 134.845 234.889 135.11 237.57C135.166 238.132 135.183 238.132 134.665 238.396C133.251 239.163 131.797 239.853 130.308 240.464C128.421 241.212 126.407 241.594 124.376 241.588C122.415 241.531 120.464 241.287 118.55 240.857C115.519 240.123 112.573 239.075 109.758 237.733C109.575 237.663 109.416 237.543 109.298 237.387C109.181 237.231 109.11 237.045 109.094 236.85C108.773 234.54 108.357 232.242 108.058 229.932C107.822 228.06 107.636 226.172 107.546 224.284C107.282 219.338 106.893 214.403 106.792 209.458ZM246.348 256.667C245.504 258.136 244.41 259.448 243.117 260.545C241.57 261.896 239.896 263.095 238.119 264.125C234.667 266.114 231.051 267.806 227.312 269.183C221.698 271.29 215.959 273.051 210.128 274.455C203.717 276.04 197.244 277.327 190.732 278.389C186.64 279.069 182.536 279.687 178.422 280.215C174.51 280.715 170.581 281.143 166.652 281.53C162.247 281.969 157.83 282.332 153.403 282.621C149.586 282.874 145.759 283.008 141.931 283.183C136.899 283.436 131.862 283.481 126.824 283.548C120.942 283.632 115.055 283.475 109.173 283.295C106.032 283.205 102.891 283.048 99.7561 282.868C96.8968 282.699 94.0487 282.48 91.195 282.244C88.1837 281.997 85.1724 281.744 82.1892 281.418C79.2679 281.103 76.3523 280.727 73.4423 280.322C70.628 279.934 67.8587 279.518 65.0838 279.041C56.5846 277.574 48.1979 275.714 40.0533 272.78C37.1982 271.793 34.4195 270.599 31.7398 269.205C30.0272 268.306 28.4028 267.249 26.888 266.047C25.7084 265.132 24.6676 264.051 23.7978 262.838C23.0073 261.763 22.5001 260.507 22.3231 259.185C22.1602 257.694 22.4609 256.189 23.1843 254.874C23.941 253.494 24.9226 252.25 26.0887 251.193C27.7524 249.669 29.5774 248.331 31.5316 247.202C34.7699 245.321 38.1586 243.71 41.6631 242.386C47.5364 240.146 53.5491 238.289 59.6634 236.828C66.035 235.254 72.4686 233.973 78.9471 232.894C83.3524 232.17 87.7672 231.535 92.1913 230.988C96.1876 230.483 100.191 230.044 104.203 229.673C104.923 229.606 105.649 229.6 106.375 229.544C106.983 229.499 107.034 229.544 107.13 230.134C107.501 232.478 107.878 234.821 108.227 237.165C108.246 237.425 108.336 237.675 108.488 237.887C108.64 238.1 108.848 238.266 109.088 238.368C110.085 238.806 111.058 239.289 112.043 239.733C112.443 239.927 112.859 240.083 113.287 240.2C113.546 240.235 113.782 240.367 113.946 240.57C114.11 240.773 114.191 241.03 114.171 241.29C114.243 242.172 114.392 243.047 114.616 243.903C114.954 245.381 115.402 246.831 115.955 248.242C115.234 248.065 114.497 247.961 113.755 247.933C112.376 247.922 111.025 248.313 109.865 249.057C108.951 249.647 108.097 250.324 107.315 251.08C105.184 253.104 103.12 255.194 101.124 257.352C100.302 258.237 99.4635 259.106 98.6079 259.96C96.9478 261.68 94.8216 262.879 92.4896 263.411C91.8592 263.552 91.24 263.726 90.6209 263.906C88.7055 264.462 87.0538 265.687 85.966 267.356C85.4769 268.053 85.187 268.869 85.1273 269.717C85.0464 270.443 85.1943 271.175 85.5505 271.813C85.9067 272.451 86.4534 272.962 87.1143 273.274C87.9816 273.704 88.8932 274.037 89.8329 274.269C91.7851 274.774 93.7847 275.073 95.7992 275.163C99.3002 275.326 102.801 275.562 106.308 275.421C108.12 275.348 109.933 275.27 111.739 275.084C113.861 274.865 115.995 274.741 118.111 274.449C118.931 274.318 119.772 274.448 120.515 274.82C122.333 275.604 124.312 275.949 126.289 275.826C128.019 275.724 129.738 275.495 131.434 275.14C135.267 274.477 138.898 273.162 142.517 271.813C145.894 270.551 149.271 269.263 152.648 267.952C153.401 267.665 154.136 267.332 154.849 266.957C156.196 266.293 157.333 265.271 158.137 264.004C158.941 262.738 159.381 261.274 159.408 259.775C159.498 258.043 159.308 256.309 158.845 254.638C158.418 253.047 157.928 251.474 157.41 249.911C157.096 248.87 156.556 247.911 155.829 247.101C155.653 246.937 155.534 246.72 155.491 246.483C155.302 244.865 154.986 243.263 154.545 241.695L156.549 241.504C157.433 241.425 158.316 241.369 159.2 241.262C159.638 241.211 160.081 241.279 160.483 241.459C161.522 241.9 162.535 242.399 163.517 242.954C164.89 243.714 166.303 244.399 167.75 245.005C168.957 245.455 170.208 245.779 171.482 245.972C173.57 246.404 175.681 246.73 177.786 247.096C178.302 247.178 178.823 247.227 179.345 247.242C180.555 247.242 181.765 247.242 182.975 247.287C186.446 247.31 189.893 246.728 193.163 245.567C196.236 244.55 199.009 242.789 201.235 240.441C203.018 238.575 204.568 236.499 205.85 234.259C206.154 233.737 206.413 233.208 206.745 232.686C206.981 232.275 207.072 232.219 207.516 232.32C208.268 232.455 209.009 232.643 209.734 232.882C211.644 233.527 213.596 234.042 215.576 234.422C221.428 235.736 227.168 237.504 232.744 239.711C235.135 240.674 237.447 241.82 239.661 243.139C241.154 244.019 242.552 245.051 243.832 246.219C244.731 247.029 245.515 247.957 246.162 248.978C246.919 250.108 247.339 251.429 247.371 252.787C247.404 254.146 247.049 255.485 246.348 256.65V256.667Z" fill="black"/>
<path d="M126.312 93.8566H126.807C126.695 94.0027 126.571 94.1713 126.363 94.132C126.154 94.0926 126.121 93.9915 126.312 93.8566Z" fill="#6F5B5B"/>
<path d="M126.312 272.415C125.319 272.437 124.327 272.355 123.351 272.167C122.867 272.049 122.642 271.824 122.755 271.605C122.912 271.274 123.216 271.352 123.486 271.375C124.244 271.483 125.007 271.553 125.772 271.583C128.395 271.528 130.988 271.02 133.438 270.082C134.268 269.771 135.079 269.415 135.869 269.014C138.675 267.603 141.407 266.05 144.053 264.361C144.804 263.878 145.554 263.404 146.305 262.939C148.167 261.8 150.234 261.036 152.389 260.691C152.659 260.605 152.946 260.591 153.222 260.652C153.425 260.725 153.594 260.826 153.588 261.067C153.588 261.148 153.561 261.226 153.511 261.289C153.461 261.352 153.391 261.397 153.313 261.416C153.004 261.507 152.69 261.58 152.373 261.635C150.102 262.016 147.939 262.872 146.023 264.147C143.131 266.05 140.144 267.805 137.074 269.408C134.59 270.75 131.904 271.68 129.121 272.162C128.19 272.295 127.252 272.38 126.312 272.415Z" fill="#030200"/>
<path d="M109.319 271.521C106.222 271.536 103.127 271.348 100.054 270.959C97.7467 270.655 95.4334 270.358 93.1425 269.936C92.8662 269.891 92.5948 269.819 92.332 269.723C92.2825 269.712 92.2359 269.691 92.1953 269.661C92.1546 269.631 92.1209 269.592 92.0964 269.548C92.0719 269.504 92.0571 269.455 92.0531 269.405C92.0491 269.354 92.0559 269.304 92.0731 269.256C92.0983 269.18 92.1464 269.113 92.2108 269.065C92.2752 269.016 92.3529 268.989 92.4333 268.986C92.5528 268.969 92.6741 268.969 92.7935 268.986C95.9231 269.548 99.0751 269.925 102.233 270.268C105.152 270.585 108.09 270.698 111.025 270.605C111.548 270.605 112.072 270.577 112.595 270.577C112.795 270.577 112.995 270.594 113.192 270.627C113.272 270.639 113.346 270.677 113.401 270.737C113.457 270.796 113.49 270.872 113.496 270.953C113.507 271.033 113.492 271.114 113.452 271.184C113.412 271.255 113.35 271.31 113.276 271.341C112.938 271.473 112.576 271.534 112.212 271.521H109.319Z" fill="#050300"/>
<path d="M147.301 133.58C147.301 133.889 146.963 134.108 146.738 134.007C146.565 133.909 146.4 133.798 146.243 133.675C145.08 132.865 143.718 132.385 142.303 132.287C141.421 132.173 140.526 132.317 139.725 132.703C139.506 132.81 139.258 132.872 139.072 132.641C138.886 132.411 139.072 132.124 139.359 131.956C140.139 131.529 141.021 131.323 141.909 131.36C143.482 131.365 145.022 131.809 146.356 132.641C146.621 132.818 146.868 133.022 147.093 133.248C147.187 133.341 147.258 133.455 147.301 133.58Z" fill="#0B0707"/>
<path d="M136.41 114.224C135.909 114.231 135.412 114.131 134.952 113.932C134.819 113.851 134.701 113.748 134.603 113.628C134.58 113.585 134.567 113.537 134.566 113.489C134.564 113.44 134.573 113.391 134.592 113.347C134.612 113.302 134.641 113.262 134.678 113.23C134.715 113.198 134.758 113.175 134.806 113.162C134.994 113.146 135.184 113.159 135.368 113.201C135.95 113.36 136.559 113.397 137.156 113.308C137.753 113.22 138.325 113.01 138.836 112.69C139.317 112.404 139.781 112.091 140.226 111.751C140.395 111.639 140.547 111.51 140.716 111.403C140.778 111.353 140.855 111.325 140.935 111.325C141.015 111.325 141.093 111.353 141.155 111.403C141.238 111.459 141.298 111.543 141.324 111.641C141.35 111.738 141.34 111.841 141.295 111.931C141.271 112.008 141.231 112.079 141.177 112.139C139.925 113.434 138.212 114.184 136.41 114.224Z" fill="#0C0808"/>
<path d="M150.054 114.572C149.598 114.527 149.237 114.488 148.877 114.46C147.121 114.342 145.945 113.336 145.022 111.942C144.982 111.872 144.953 111.796 144.937 111.717C144.912 111.642 144.913 111.56 144.939 111.484C144.966 111.409 145.016 111.345 145.083 111.302C145.149 111.253 145.228 111.227 145.309 111.227C145.39 111.227 145.469 111.253 145.534 111.302C145.676 111.439 145.809 111.586 145.933 111.74C146.161 112.019 146.403 112.285 146.659 112.538C147.206 113.074 147.918 113.409 148.68 113.488L149.997 113.606C150.196 113.613 150.394 113.637 150.588 113.679C150.687 113.695 150.776 113.749 150.838 113.828C150.899 113.907 150.929 114.006 150.92 114.106C150.914 114.206 150.874 114.301 150.806 114.376C150.739 114.45 150.648 114.5 150.549 114.516C150.386 114.551 150.22 114.57 150.054 114.572Z" fill="#0E0B0B"/>
<path d="M141.318 124.616C141.375 124.181 141.521 123.762 141.746 123.385C141.788 123.315 141.855 123.265 141.933 123.243C142.012 123.221 142.096 123.229 142.168 123.267C142.325 123.334 142.461 123.452 142.438 123.621C142.399 123.936 142.297 124.245 142.252 124.56C142.224 124.646 142.216 124.738 142.227 124.829C142.238 124.919 142.269 125.006 142.317 125.084C142.365 125.161 142.43 125.228 142.506 125.278C142.582 125.328 142.669 125.361 142.759 125.374C143.029 125.448 143.322 125.453 143.586 125.509C143.665 125.527 143.735 125.57 143.786 125.632C143.837 125.694 143.866 125.772 143.868 125.852C143.872 125.934 143.852 126.015 143.81 126.085C143.768 126.155 143.705 126.211 143.631 126.246C142.674 126.735 141.279 125.83 141.318 124.616Z" fill="#131010"/>
</svg>
