<svg width="284" height="198" viewBox="0 0 284 198" fill="none" xmlns="http://www.w3.org/2000/svg">
<g clip-path="url(#clip0_1_160)">
<path d="M217.867 133.848C217.746 133.848 217.626 133.841 217.505 133.834C217.86 131.74 218.229 129.639 218.719 127.531C219.188 129.561 219.55 131.576 219.891 133.599C219.227 133.757 218.549 133.841 217.867 133.848ZM220.153 135.145C220.139 136.355 220.139 137.566 220.139 138.777C220.139 140.102 220.146 141.434 220.139 142.759V180.813C219.706 183.356 219.287 185.891 218.719 188.427C218.151 185.891 217.732 183.356 217.299 180.813V138.955C217.299 137.687 217.299 136.412 217.285 135.145C217.335 134.86 217.377 134.582 217.427 134.297C218.282 134.398 219.147 134.381 219.997 134.247C220.054 134.546 220.104 134.846 220.153 135.145ZM171.966 70.7875C171.966 70.7875 172.115 71.0511 172.406 71.4642L172.392 71.4785L170.304 73.7219C169.452 74.3274 168.6 74.9327 167.684 75.474C168.167 74.5267 168.714 73.6364 169.253 72.7392L170.837 71.0511C171.526 70.9087 171.966 70.7875 171.966 70.7875ZM184.44 57.5401C183.951 58.4803 183.404 59.3777 182.864 60.268L180.77 62.5115L180.386 62.9175C179.876 62.7463 179.354 62.6107 178.824 62.5115L179.733 61.5358L181.827 59.2922C182.68 58.6938 183.532 58.0957 184.44 57.5401Z" fill="black"/>
<path d="M207.649 74.7946C207.759 74.5478 207.928 74.3324 208.142 74.1674C208.302 74.0466 208.49 73.968 208.688 73.9388C208.886 73.9115 209.088 73.9363 209.273 74.0106C209.522 74.1106 209.742 74.2725 209.911 74.4809H209.913L209.922 74.4942L209.913 74.5072L209.915 74.5074C209.805 74.7529 209.635 74.9664 209.421 75.128C209.261 75.2482 209.072 75.3247 208.874 75.35C208.675 75.3737 208.473 75.3468 208.288 75.2718C208.039 75.1681 207.819 75.0042 207.649 74.7946ZM178.727 78.6487L163.192 80.5749C158.013 81.2127 152.832 81.8333 147.649 82.4366C137.283 83.6316 126.924 84.8967 116.55 86.0228L85.4366 89.4844L54.3058 92.7819L54.3019 92.7824C54.216 92.7911 54.1291 92.7819 54.0468 92.7556C49.6084 91.3129 45.1652 89.8848 40.7391 88.4035L27.449 83.9962C23.016 82.5363 18.5903 81.0536 14.1719 79.5481L0.916016 75.0333L14.3213 79.08C18.7894 80.4293 23.2507 81.8004 27.7052 83.1932L41.0761 87.3473C45.537 88.7198 49.9809 90.1455 54.4295 91.5565L54.1707 91.5301L85.2845 88.0742L116.416 84.782C126.79 83.657 137.179 82.6709 147.561 81.6147C152.751 81.0845 157.944 80.5795 163.14 80.0996L178.727 78.6487Z" fill="#020202"/>
<path d="M0.913818 81.67C5.31284 83.2061 9.68412 84.8152 14.0686 86.3898L27.1776 91.2295L33.7293 93.6568L40.2599 96.1388L53.3212 101.103L52.9877 101.063C59.2122 100.219 65.4493 99.4735 71.6814 98.69L90.3825 96.3751L109.1 94.1871C115.344 93.5001 121.585 92.7856 127.837 92.1539C121.628 93.1209 115.409 94.0054 109.193 94.9173L90.5293 97.526L71.8495 100.008C65.6214 100.823 59.398 101.677 53.1623 102.432L53.1545 102.433C53.0441 102.446 52.9322 102.432 52.8284 102.392L39.8092 97.3172L33.2996 94.7799L26.811 92.188L13.8394 86.9889C9.53037 85.217 5.20814 83.4801 0.913818 81.67Z" fill="#020202"/>
<path d="M52.5461 165.531C52.4129 159.41 52.3699 153.291 52.4174 147.174C52.4451 141.057 52.5559 134.941 52.6827 128.826C52.836 122.712 53.0072 116.597 53.2612 110.485C53.4948 104.373 53.8204 98.2621 54.2379 92.1538C54.373 98.2749 54.4167 104.394 54.369 110.511C54.3407 116.628 54.23 122.744 54.1013 128.859C53.9462 134.974 53.7751 141.088 53.5208 147.2C53.2865 153.312 52.9616 159.423 52.5461 165.531Z" fill="#020202"/>
<path d="M242.988 26.2277C242.115 25.836 241.313 25.2997 240.617 24.6412C239.927 23.963 239.33 23.1958 238.842 22.3596C238.363 21.519 237.966 20.6336 237.658 19.7159C237.347 18.7885 237.123 17.8342 236.989 16.8652C236.983 16.8209 236.984 16.7759 236.992 16.7319L237.007 16.6519C237.227 15.6563 237.339 14.6401 237.343 13.6205C237.351 12.6054 237.244 11.5926 237.025 10.6014C236.59 8.62589 235.771 6.75556 234.616 5.09694L234.694 5.17918C233.466 4.00113 232.097 2.97896 230.62 2.13567C229.121 1.31031 227.494 0.745879 225.806 0.466385C222.345 0.0278284 218.834 0.719568 215.795 2.43911C215.031 2.84921 214.294 3.30852 213.59 3.81418C213.238 4.06597 212.893 4.32662 212.562 4.59806C212.406 4.72708 212.21 4.8874 212.106 4.99608C211.974 5.13884 211.839 5.30542 211.709 5.46696C210.692 6.82502 209.927 8.35488 209.449 9.98392C208.968 11.6048 208.716 13.2851 208.699 14.9761C208.716 16.6728 208.919 18.3624 209.304 20.0146C209.329 20.1327 209.331 20.2545 209.31 20.3733C209.149 21.264 208.976 22.1351 208.78 23.0153C208.592 23.9119 208.354 24.7973 208.068 25.6672C207.934 26.0745 207.615 26.7855 207.687 26.6375C207.657 26.5866 207.703 26.7201 207.953 26.8954C208.523 27.2429 209.173 27.4352 209.839 27.4534L209.906 27.4508C210.055 27.4456 210.203 27.4771 210.337 27.5424C210.471 27.6078 210.587 27.7051 210.675 27.8258C211.67 29.2075 212.722 30.5701 213.766 31.9196C214.784 33.2596 215.888 34.5313 217.071 35.7263C217.217 35.8597 217.363 35.9854 217.506 36.0947C217.574 36.1426 217.645 36.1938 217.704 36.2292L217.783 36.2733C217.807 36.286 217.801 36.2771 217.81 36.2874C217.838 36.3031 217.748 36.2723 217.724 36.2973C217.702 36.3105 217.794 36.2827 217.824 36.2777C217.917 36.2581 218.008 36.2337 218.099 36.2046C218.286 36.1525 218.479 36.0838 218.671 36.0189C219.448 35.7317 220.201 35.3823 220.923 34.9741C222.4 34.2115 223.672 33.1016 224.629 31.7391L224.652 31.7033C224.671 31.6732 224.696 31.6473 224.726 31.6269C224.755 31.6065 224.788 31.5921 224.823 31.5845C224.858 31.5769 224.894 31.5763 224.929 31.5826C224.964 31.589 224.997 31.6022 225.027 31.6216L225.057 31.6435C225.482 32.0041 225.877 32.3984 226.239 32.8226C226.422 33.0347 226.587 33.2629 226.73 33.5044C226.884 33.7468 226.99 34.0169 227.042 34.2999C227.046 34.3219 227.04 34.3442 227.028 34.3625C227.015 34.3808 226.997 34.3937 226.975 34.3987C226.953 34.4037 226.931 34.4004 226.912 34.3895C226.892 34.3786 226.878 34.3608 226.871 34.3397L226.87 34.3345C226.667 33.8533 226.352 33.4282 225.951 33.0951C225.565 32.7346 225.151 32.4057 224.712 32.1114L225.139 32.0158C224.283 33.608 223.026 34.9483 221.495 35.904C220.75 36.4032 219.967 36.8414 219.152 37.2142C218.942 37.3032 218.737 37.3978 218.512 37.4742C218.404 37.5154 218.29 37.5536 218.169 37.5877C218.099 37.6114 218.028 37.6296 217.956 37.642C217.821 37.6632 217.684 37.6614 217.549 37.6366C217.246 37.5659 216.959 37.4369 216.705 37.2568C216.496 37.1167 216.307 36.9715 216.125 36.8246C214.802 35.6496 213.574 34.3719 212.451 33.0034C211.312 31.681 210.249 30.3166 209.187 28.9281L210.023 29.3002C209.466 29.3353 208.907 29.2746 208.371 29.1206C207.843 28.9845 207.342 28.7598 206.889 28.4558C206.611 28.2712 206.368 28.0374 206.174 27.7657C205.921 27.4205 205.792 26.9998 205.807 26.5718C205.812 26.3627 205.854 26.1562 205.932 25.962L206.032 25.7106L206.085 25.5897C206.159 25.435 206.229 25.2378 206.296 25.0496C206.817 23.4061 207.25 21.7353 207.591 20.0447L207.597 20.4031C207.23 18.6053 207.063 16.7724 207.099 14.9377C207.172 13.0948 207.533 11.2747 208.166 9.54331C208.322 9.11121 208.519 8.69406 208.702 8.2743C208.922 7.8702 209.106 7.45024 209.356 7.06371C209.817 6.26947 210.358 5.52453 210.97 4.84043C211.129 4.6695 211.282 4.50291 211.461 4.33372C211.642 4.17817 211.831 4.03221 212.028 3.89642C212.396 3.63367 212.771 3.38693 213.152 3.15045C213.913 2.67557 214.707 2.26329 215.507 1.86893C218.719 0.247908 222.303 -0.487176 225.891 -0.260984C227.703 -0.10833 229.477 0.347581 231.138 1.08784C232.803 1.84065 234.345 2.83972 235.714 4.05169C235.74 4.07446 235.764 4.09942 235.786 4.12629L235.792 4.13413C236.493 5.03455 237.077 6.02138 237.528 7.07051C237.984 8.10121 238.32 9.18145 238.528 10.2896C238.757 11.3954 238.844 12.526 238.787 13.6539C238.737 14.7776 238.562 15.8921 238.265 16.9767L238.283 16.7637C238.351 17.6538 238.499 18.5358 238.726 19.3989C238.946 20.2747 239.244 21.1288 239.617 21.9509C239.995 22.7718 240.472 23.5431 241.038 24.2474C241.622 24.9524 242.307 25.5669 243.07 26.0709L243.075 26.0747C243.094 26.0873 243.106 26.1062 243.111 26.1278C243.116 26.1494 243.113 26.1721 243.102 26.1913C243.091 26.2105 243.073 26.2249 243.052 26.2317C243.031 26.2384 243.008 26.237 242.988 26.2277L242.988 26.2277Z" fill="black"/>
<path d="M210.883 25.2301C210.73 25.2303 210.579 25.1903 210.446 25.1141C210.313 25.0378 210.202 24.928 210.124 24.7954L207.691 20.6583C207.632 20.5583 207.593 20.4476 207.577 20.3325C207.56 20.2174 207.567 20.1002 207.595 19.9875C207.624 19.8749 207.675 19.7691 207.745 19.6761C207.814 19.5831 207.901 19.5049 208.001 19.4458C208.101 19.3867 208.211 19.3479 208.326 19.3317C208.441 19.3155 208.558 19.3221 208.67 19.3513C208.782 19.3805 208.888 19.4316 208.98 19.5016C209.073 19.5717 209.15 19.6594 209.209 19.7597L211.641 23.8967C211.72 24.0309 211.763 24.1837 211.764 24.3395C211.765 24.4954 211.725 24.6488 211.648 24.7841C211.571 24.9195 211.46 25.0321 211.325 25.1104C211.191 25.1887 211.039 25.23 210.883 25.2301Z" fill="black"/>
<path d="M208.985 21.559C208.891 21.5589 208.8 21.5288 208.724 21.4732C208.649 21.4175 208.593 21.3391 208.565 21.2494C208.536 21.1597 208.537 21.0634 208.568 20.9743C208.598 20.8853 208.655 20.8082 208.732 20.7543C210.011 19.8598 221.297 12.033 223.698 12.1296C223.756 12.1323 223.812 12.1463 223.865 12.171C223.917 12.1956 223.964 12.2304 224.003 12.2732C224.042 12.3161 224.072 12.3663 224.092 12.4209C224.112 12.4755 224.121 12.5335 224.118 12.5915C224.111 12.708 224.059 12.8173 223.973 12.896C223.887 12.9747 223.774 13.0167 223.658 13.013C223.647 13.0123 223.635 13.0123 223.624 13.0123C221.961 13.0123 213.938 18.1898 209.236 21.479C209.163 21.5309 209.075 21.5588 208.985 21.559Z" fill="black"/>
<path d="M222.409 14.6929C222.393 14.0328 222.605 13.3876 223.008 12.8657C223.13 12.7238 223.278 12.6079 223.446 12.5247C223.613 12.4415 223.795 12.3927 223.981 12.3813L224.264 12.3767C224.355 12.3872 224.44 12.4134 224.529 12.4324C224.702 12.4659 224.869 12.5246 225.025 12.6068C225.331 12.7473 225.62 12.9221 225.887 13.1277C226.131 13.3436 226.388 13.5399 226.622 13.7758C227.088 14.2534 227.473 14.8044 227.762 15.407C228.314 16.6198 228.47 17.9763 228.209 19.2834C228.09 19.9336 227.839 20.5521 227.471 21.1002C227.282 21.3847 227.022 21.6147 226.717 21.7672C226.565 21.8444 226.392 21.8686 226.224 21.8362C226.057 21.8037 225.905 21.7164 225.793 21.5879C225.914 21.6669 226.057 21.706 226.201 21.6998C226.346 21.6935 226.484 21.6423 226.598 21.5531C226.818 21.3719 226.99 21.1396 227.1 20.8764C227.338 20.3399 227.484 19.7665 227.529 19.1808C227.642 18.0175 227.447 16.8447 226.964 15.781C226.724 15.2581 226.405 14.7755 226.018 14.3502C225.83 14.1318 225.604 13.9355 225.399 13.7245C225.184 13.5394 224.956 13.3708 224.716 13.2204C224.519 13.0581 224.274 12.9658 224.018 12.958C223.763 12.9502 223.513 13.0274 223.306 13.1775C222.872 13.5895 222.562 14.1141 222.409 14.6929ZM211.704 31.0227C212.379 30.9476 213.048 30.8212 213.704 30.6447C214.005 30.5607 214.296 30.4463 214.574 30.3033C214.873 30.167 215.152 29.9752 215.517 29.7895C215.458 30.1894 215.274 30.5604 214.993 30.85C214.712 31.1544 214.353 31.376 213.956 31.4911C213.566 31.6059 213.154 31.6254 212.754 31.5482C212.36 31.4812 211.995 31.2983 211.704 31.0227ZM208.984 18.4863C208.953 17.8806 209.15 17.2851 209.537 16.819C209.922 16.3387 210.428 15.9717 211.004 15.7569C211.562 15.5511 212.154 15.4561 212.747 15.4771C213.035 15.4986 213.321 15.5356 213.605 15.5879C213.884 15.6598 214.158 15.7506 214.425 15.8596C214.151 15.9301 213.874 15.9843 213.594 16.0219C213.324 16.0714 213.06 16.1304 212.798 16.165C212.295 16.264 211.801 16.4032 211.32 16.5813C210.346 16.9268 209.52 17.5999 208.984 18.4863ZM212.68 22.2641C212.937 22.2552 213.181 22.1465 213.359 21.961C213.538 21.7755 213.638 21.5276 213.638 21.2696C213.638 21.0117 213.538 20.7638 213.359 20.5783C213.181 20.3928 212.937 20.2841 212.68 20.2752C212.423 20.2841 212.18 20.3928 212.001 20.5783C211.822 20.7638 211.722 21.0117 211.722 21.2696C211.722 21.5276 211.822 21.7755 212.001 21.961C212.18 22.1465 212.423 22.2552 212.68 22.2641ZM232.666 47.4708C231.658 46.6283 230.514 45.9643 229.284 45.5073C228.07 45.0508 226.81 44.7276 225.527 44.5434C224.236 44.3488 222.934 44.2412 221.628 44.2216L219.65 44.2308C218.989 44.261 218.325 44.2941 217.65 44.2885C218.293 44.1005 218.947 43.9512 219.604 43.7992C220.267 43.6984 220.934 43.5965 221.606 43.5321C222.959 43.4233 224.32 43.4697 225.663 43.6705C227.017 43.8694 228.332 44.2772 229.562 44.8796C230.802 45.4611 231.871 46.3536 232.666 47.4708ZM183.215 83.7354C183.591 82.4827 184.092 81.271 184.708 80.1181C185.31 78.9516 186.014 77.8414 186.813 76.8007C187.606 75.7417 188.534 74.7908 189.572 73.9718C190.6 73.1306 191.817 72.5543 193.117 72.2929C191.978 72.864 190.933 73.6073 190.019 74.4967C189.106 75.3745 188.267 76.3256 187.51 77.3406C185.946 79.349 184.608 81.5349 183.215 83.7354ZM214.425 97.3274C214.821 97.4282 215.234 97.4492 215.639 97.3891C216.041 97.3442 216.436 97.2541 216.818 97.1206L217.381 96.8975C217.566 96.8182 217.739 96.7085 217.917 96.616C218.272 96.4245 218.612 96.2053 218.933 95.9603C220.222 94.9778 221.37 93.8214 222.344 92.5236C222.816 91.8605 223.296 91.2028 223.747 90.5257C224.17 89.8277 224.625 89.1513 225.022 88.4377L226.203 86.2901L227.279 84.083C228.702 81.1168 230.093 78.118 231.564 75.1679L233.766 70.7385C234.528 69.2767 235.264 67.8016 236.05 66.3526C235.442 67.8912 234.784 69.4038 234.153 70.9296L232.174 75.4631C230.847 78.4835 229.485 81.476 228.074 84.4632C226.699 87.4984 224.95 90.3491 222.869 92.9488C221.801 94.2402 220.556 95.3744 219.172 96.318C218.819 96.5451 218.449 96.7441 218.064 96.9132C217.871 96.9947 217.685 97.0923 217.486 97.1596L216.885 97.3437C216.082 97.5878 215.224 97.5821 214.425 97.3274ZM213.611 77.4031C213.558 77.4031 213.505 77.3935 213.456 77.3746L209.512 75.8889C209.403 75.8473 209.314 75.7642 209.266 75.6576C209.219 75.551 209.215 75.4297 209.256 75.3202C209.297 75.2107 209.379 75.122 209.485 75.0735C209.591 75.0249 209.712 75.0205 209.821 75.0612L213.766 76.5469C213.862 76.5834 213.943 76.6527 213.994 76.7428C214.045 76.8328 214.063 76.9379 214.044 77.0398C214.026 77.1417 213.972 77.2338 213.893 77.3002C213.814 77.3666 213.714 77.403 213.611 77.4031V77.4031ZM181.218 76.3018C180.269 76.5989 179.264 76.6655 178.285 76.4961C177.292 76.3152 176.34 75.9512 175.479 75.4225C174.624 74.8999 173.838 74.273 173.137 73.556C172.436 72.832 171.812 72.0352 171.278 71.179L172.174 71.5522C170.355 72.0205 168.477 72.224 166.6 72.1563C165.64 72.141 164.687 71.9789 163.776 71.6755C163.289 71.5099 162.858 71.2117 162.531 70.8143C162.36 70.6101 162.231 70.3752 162.149 70.1222C162.088 69.8552 162.088 69.5782 162.148 69.3112C162.28 68.823 162.538 68.378 162.895 68.0205C163.212 67.6667 163.56 67.3422 163.935 67.051C164.66 66.4655 165.424 65.9288 166.221 65.4447C167.79 64.4707 169.425 63.6083 171.114 62.8637C171.964 62.514 172.761 62.1059 173.738 61.8051C174.69 61.5142 175.678 61.3594 176.673 61.3454C177.656 61.3412 178.635 61.473 179.583 61.7373C180.519 61.9719 181.43 62.3014 182.3 62.7208C183.996 63.552 185.567 64.6168 186.968 65.8843C188.364 67.1086 189.603 68.502 190.656 70.0325C190.668 70.0502 190.674 70.0718 190.671 70.0931C190.669 70.1145 190.659 70.1343 190.643 70.1487C190.627 70.1631 190.606 70.1712 190.585 70.1715C190.563 70.1719 190.542 70.1643 190.526 70.1504L190.522 70.1467C187.875 67.7413 184.859 65.7781 181.591 64.3322C180.804 63.9957 179.985 63.7392 179.146 63.5665C178.336 63.3473 177.502 63.2324 176.663 63.2245C175.835 63.1986 175.008 63.286 174.204 63.4841C173.425 63.6728 172.566 64.0439 171.718 64.3447C170.033 64.9898 168.335 65.6027 166.689 66.3254C165.874 66.6903 165.085 67.1115 164.329 67.5859C163.965 67.8281 163.624 68.1034 163.311 68.4085C163.011 68.6866 162.79 69.0391 162.669 69.4304C162.621 69.6121 162.623 69.8036 162.676 69.9842C162.728 70.1648 162.828 70.3277 162.965 70.4555C163.232 70.7573 163.589 70.9646 163.982 71.0467C164.832 71.22 165.705 71.243 166.562 71.1148C168.311 70.8412 170.045 70.4768 171.757 70.023C171.926 69.9836 172.104 69.9984 172.264 70.0654C172.425 70.1323 172.561 70.248 172.653 70.3963C173.116 71.1547 173.645 71.8708 174.233 72.5367C174.815 73.2175 175.465 73.8368 176.173 74.3847C176.877 74.9325 177.659 75.3689 178.494 75.6788C179.358 75.9906 180.27 76.1427 181.188 76.1276C181.211 76.127 181.234 76.1359 181.251 76.1523C181.268 76.1686 181.278 76.1912 181.279 76.2148C181.279 76.234 181.273 76.2526 181.262 76.2682C181.251 76.2838 181.236 76.2955 181.218 76.3018ZM196.119 138.469L198.098 143.319C198.107 143.342 198.11 143.366 198.105 143.39C198.101 143.413 198.09 143.435 198.073 143.453C198.056 143.47 198.035 143.482 198.012 143.488C197.988 143.493 197.964 143.492 197.941 143.484L197.934 143.481C196.94 143.092 195.9 142.838 194.84 142.724C193.785 142.635 192.724 142.715 191.694 142.96C189.647 143.538 187.788 144.646 186.302 146.173C184.798 147.692 183.5 149.402 182.441 151.26C181.353 153.104 180.439 155.045 179.708 157.059L179.707 157.063C179.682 157.132 179.637 157.192 179.578 157.234C179.518 157.276 179.447 157.3 179.374 157.3C179.302 157.301 179.23 157.28 179.17 157.239C179.109 157.198 179.063 157.139 179.037 157.071L175.195 147.113L171.417 137.131L172.118 136.961L173.47 150.765C173.907 155.368 174.383 159.967 174.861 164.565C174.864 164.595 174.858 164.626 174.843 164.653C173.804 166.291 172.233 167.52 170.396 168.13C168.596 168.752 166.714 169.105 164.812 169.177C162.919 169.268 161.022 169.224 159.135 169.045C157.247 168.875 155.37 168.593 153.515 168.2C153.471 168.191 153.431 168.168 153.4 168.135C153.368 168.102 153.348 168.061 153.341 168.016L153.34 168.01C152.261 161.028 151.355 154.024 150.621 146.998C149.909 139.97 149.365 132.919 149.183 125.845C149.168 124.075 149.152 122.305 149.177 120.534L149.266 117.877L149.315 116.549L149.423 115.221L149.647 112.567L150.047 109.922C150.187 109.039 150.38 108.164 150.626 107.305C150.738 106.872 150.837 106.434 150.961 106.005L151.432 104.742L151.909 103.482C152.107 103.078 152.324 102.683 152.531 102.283C152.746 101.888 152.939 101.48 153.172 101.096L153.947 99.9867C154.468 99.2503 155.051 98.5591 155.688 97.9206C156.007 97.6021 156.345 97.3022 156.699 97.0225C157.031 96.718 157.389 96.4422 157.768 96.198L158.902 95.4616L160.111 94.859C160.517 94.6659 160.934 94.4976 161.36 94.3549C161.778 94.1913 162.207 94.0574 162.644 93.9539C164.381 93.4768 166.188 93.3038 167.983 93.4427L167.694 93.6074C168.07 92.7952 168.536 92.0277 169.082 91.3193C169.642 90.6251 170.275 89.9937 170.97 89.4361C172.379 88.3615 173.965 87.5434 175.656 87.0191C177.332 86.5009 179.06 86.1698 180.808 86.0318C182.548 85.879 184.298 85.8844 186.037 86.048C186.049 86.0491 186.059 86.0549 186.067 86.0639C186.074 86.0729 186.078 86.0845 186.076 86.0961C186.075 86.1078 186.069 86.1184 186.06 86.1257C186.051 86.1331 186.039 86.1367 186.028 86.1358C184.295 86.024 182.556 86.0694 180.832 86.2714C179.112 86.4577 177.418 86.8337 175.78 87.3926C174.148 87.9296 172.62 88.7475 171.267 89.8098C170.611 90.3535 170.015 90.9665 169.49 91.6382C168.982 92.3199 168.551 93.0563 168.205 93.8336C168.181 93.8856 168.143 93.9292 168.094 93.9588C168.045 93.9884 167.989 94.0026 167.932 93.9995L167.916 93.9985C164.451 93.8029 161.021 94.7871 158.183 96.7914C155.415 98.8746 153.347 101.757 152.258 105.053L151.807 106.27C151.688 106.687 151.593 107.112 151.485 107.532C151.248 108.369 151.062 109.22 150.93 110.08L150.544 112.669L150.331 115.289L150.227 116.6L150.182 117.916L150.101 120.55C150.078 122.307 150.108 124.067 150.114 125.826C150.244 132.865 150.748 139.902 151.396 146.922C152.031 153.943 152.831 160.949 153.797 167.94L153.622 167.75C155.452 168.167 157.305 168.475 159.172 168.674C161.038 168.886 162.919 168.95 164.795 168.865C166.669 168.805 168.523 168.469 170.299 167.868C172.083 167.295 173.604 166.104 174.592 164.509L174.574 164.596C174.066 160.001 173.556 155.406 173.007 150.815L171.395 137.04C171.385 136.951 171.407 136.863 171.457 136.79C171.507 136.717 171.583 136.665 171.668 136.643C171.754 136.622 171.845 136.633 171.923 136.674C172.002 136.714 172.063 136.783 172.095 136.865L172.096 136.87L175.934 146.829L179.704 156.815L179.032 156.827C179.793 154.773 180.742 152.795 181.869 150.918C182.981 149.026 184.343 147.294 185.917 145.769C187.493 144.209 189.451 143.093 191.593 142.532C192.671 142.296 193.781 142.243 194.877 142.374C195.962 142.524 197.022 142.818 198.029 143.249L197.865 143.411L196.037 138.502C196.033 138.491 196.033 138.479 196.038 138.468C196.043 138.458 196.052 138.449 196.062 138.445C196.073 138.441 196.085 138.441 196.096 138.445C196.106 138.45 196.115 138.459 196.119 138.469H196.119Z" fill="black"/>
<path d="M171.757 137L172.541 144.284L167.686 116.66L172.99 140.227L171.757 137Z" fill="black"/>
<path d="M207.725 98.096C197.928 98.096 169.259 94.3394 167.893 94.1592C167.835 94.1518 167.78 94.1331 167.729 94.1042C167.679 94.0753 167.635 94.0367 167.6 93.9906C167.564 93.9446 167.538 93.892 167.523 93.8358C167.508 93.7797 167.504 93.7211 167.512 93.6635C167.519 93.6058 167.538 93.5503 167.567 93.4999C167.596 93.4496 167.635 93.4054 167.681 93.3701C167.727 93.3347 167.779 93.3088 167.835 93.2938C167.891 93.2789 167.95 93.2751 168.007 93.2829C168.382 93.3315 205.603 98.2066 210.238 97.0415C210.294 97.0271 210.352 97.024 210.41 97.0323C210.467 97.0406 210.522 97.0602 210.572 97.09C210.622 97.1197 210.665 97.1591 210.7 97.2057C210.735 97.2523 210.76 97.3054 210.774 97.3618C210.788 97.4182 210.791 97.4768 210.783 97.5343C210.774 97.5919 210.754 97.6472 210.724 97.697C210.695 97.7469 210.655 97.7903 210.609 97.8249C210.562 97.8595 210.509 97.8845 210.453 97.8984C209.553 98.0612 208.639 98.1274 207.725 98.096Z" fill="black"/>
<path d="M274.539 49.5916C274.539 49.5916 242.817 42.1701 234.992 80.1462C227.168 118.115 225.173 115.359 225.173 115.359C210.895 136.12 183.049 123.386 176.73 120.117C176.012 119.727 175.193 119.565 174.381 119.652C173.57 119.74 172.804 120.073 172.186 120.608C170.489 122.168 170.752 124.689 170.752 124.689L170.872 127.545C170.894 128.005 171.014 128.455 171.225 128.865C171.435 129.274 171.732 129.633 172.093 129.917C182.388 138.122 200.714 139.824 217.299 138.955C218.251 138.905 219.202 138.848 220.139 138.777C234.474 137.773 247.048 134.952 251.28 132.972C260.794 128.514 263.541 130.423 278.345 91.1716C293.156 51.9276 274.539 49.5916 274.539 49.5916ZM280.851 60.0543L280.844 60.0471C276.684 57.7732 271.895 56.9325 267.212 57.654C262.611 58.4304 258.586 61.1297 255.504 64.5982C253.951 66.3522 252.567 68.2506 251.372 70.2676C250.15 72.2914 249.063 74.3948 248.12 76.5638C246.26 80.9441 244.706 85.4492 243.47 90.0462C242.866 92.354 242.234 94.6687 241.695 97.0047C241.411 98.1729 241.077 99.3266 240.779 100.488C240.481 101.648 240.161 102.802 239.835 103.956C238.629 108.616 237.132 113.195 235.355 117.667C234.907 118.785 234.368 119.867 233.849 120.957C233.267 122.025 232.735 123.108 232.074 124.127C230.828 126.228 229.339 128.174 227.637 129.924C225.93 131.714 223.826 133.073 221.495 133.891C221.006 134.05 220.505 134.169 219.997 134.247C219.147 134.381 218.282 134.398 217.427 134.297C216.351 134.165 215.316 133.806 214.388 133.243C214.38 133.238 214.373 133.232 214.368 133.224C214.362 133.216 214.358 133.207 214.356 133.198C214.354 133.189 214.354 133.179 214.356 133.17C214.358 133.16 214.362 133.151 214.367 133.143C214.375 133.129 214.389 133.118 214.404 133.113C214.42 133.108 214.437 133.109 214.452 133.115L214.459 133.122C215.416 133.563 216.452 133.805 217.505 133.834C217.626 133.841 217.747 133.848 217.867 133.848C218.549 133.841 219.228 133.757 219.891 133.599C220.353 133.49 220.808 133.352 221.254 133.186C223.397 132.28 225.309 130.903 226.849 129.155C228.426 127.414 229.816 125.512 230.995 123.478C231.62 122.474 232.152 121.413 232.72 120.38C233.225 119.305 233.807 118.272 234.275 117.182C236.302 112.862 238.01 108.399 239.387 103.828C240.097 101.542 240.644 99.2127 241.205 96.8908C241.745 94.5547 242.192 92.2114 242.717 89.8612C243.694 85.1371 245.091 80.5104 246.892 76.0367C248.669 71.4897 251.202 67.2777 254.383 63.5798C256.031 61.7412 257.957 60.1741 260.091 58.936C262.238 57.7036 264.599 56.8938 267.049 56.5502C271.926 55.9961 276.841 57.192 280.922 59.926C280.93 59.931 280.937 59.9377 280.943 59.9455C280.948 59.9533 280.952 59.9621 280.954 59.9714C280.956 59.9807 280.956 59.9903 280.954 59.9996C280.952 60.0089 280.949 60.0178 280.944 60.0258C280.934 60.0403 280.919 60.051 280.902 60.0562C280.886 60.0613 280.868 60.0607 280.851 60.0543H280.851ZM249.674 187.955C249.659 188.686 249.428 189.397 249.011 189.997C248.601 190.587 248.105 191.114 247.541 191.559C246.419 192.443 245.195 193.189 243.895 193.78C241.301 194.966 238.595 195.891 235.818 196.54C230.27 197.86 224.575 198.454 218.876 198.307C213.196 198.158 207.542 197.479 201.988 196.277C199.201 195.712 196.471 194.897 193.829 193.843C192.49 193.306 191.22 192.607 190.049 191.762C189.443 191.321 188.909 190.787 188.467 190.181C187.992 189.533 187.719 188.758 187.684 187.955C187.684 187.14 187.925 186.344 188.375 185.666C188.797 185.026 189.315 184.455 189.911 183.973C191.054 183.046 192.319 182.281 193.67 181.698C196.307 180.542 199.058 179.671 201.878 179.098C207.468 177.93 213.166 177.359 218.876 177.396C224.582 177.369 230.271 178.023 235.823 179.343C238.6 180.001 241.305 180.93 243.901 182.117C245.201 182.709 246.426 183.456 247.547 184.343C248.112 184.789 248.606 185.317 249.015 185.91C249.431 186.511 249.661 187.223 249.674 187.955ZM249.497 187.955C249.472 186.544 248.474 185.373 247.384 184.548C246.256 183.719 245.018 183.052 243.706 182.567C241.08 181.594 238.36 180.895 235.59 180.483C230.058 179.647 224.47 179.246 218.876 179.282C213.289 179.256 207.711 179.74 202.211 180.728C199.485 181.226 196.811 181.982 194.227 182.985C192.965 183.482 191.767 184.131 190.661 184.917C189.603 185.694 188.692 186.746 188.649 187.955C188.612 189.167 189.485 190.317 190.522 191.167C191.6 192.037 192.793 192.752 194.067 193.292C196.647 194.398 199.342 195.211 202.102 195.716C204.864 196.236 207.658 196.568 210.464 196.709C213.267 196.881 216.075 196.897 218.876 196.835C224.474 196.75 230.059 196.289 235.596 195.453C238.365 195.032 241.084 194.329 243.712 193.356C245.024 192.869 246.263 192.201 247.391 191.37C248.48 190.542 249.476 189.365 249.497 187.955ZM173.116 166.459C173.58 167.308 173.923 168.219 174.134 169.164C174.379 170.098 174.567 171.043 174.728 171.992C175.043 173.89 175.299 175.797 175.477 177.71C175.56 178.677 175.654 179.604 175.7 180.603C175.724 181.613 175.553 182.618 175.196 183.563C175.016 184.039 174.78 184.491 174.494 184.912C174.204 185.318 173.887 185.704 173.545 186.067C172.863 186.791 172.075 187.407 171.21 187.895C169.488 188.84 167.584 189.403 165.626 189.546C164.658 189.631 163.683 189.608 162.72 189.478C162.236 189.419 161.758 189.319 161.29 189.18C160.826 189.036 160.379 188.873 159.927 188.709C156.309 187.39 153.019 185.384 149.46 184.014C145.926 182.601 142.278 181.41 138.775 179.809C136.986 179.04 135.287 178.077 133.709 176.936C132.912 176.338 132.193 175.642 131.569 174.864C131.211 174.426 130.98 173.898 130.901 173.338C130.86 173.049 130.867 172.757 130.921 172.471C130.984 172.194 131.082 171.927 131.212 171.676C131.756 170.767 132.558 170.042 133.516 169.596C134.417 169.146 135.385 168.85 136.382 168.72C136.876 168.654 137.373 168.622 137.871 168.623C138.366 168.644 138.876 168.681 139.329 168.718C140.259 168.797 141.209 168.797 142.156 168.783C145.954 168.707 149.764 168.338 153.562 167.931C153.573 167.93 153.585 167.933 153.594 167.94C153.604 167.948 153.609 167.958 153.611 167.97C153.612 167.981 153.609 167.992 153.603 168.001C153.596 168.01 153.586 168.017 153.575 168.019C149.81 168.743 146.004 169.229 142.179 169.474C141.217 169.514 140.253 169.543 139.277 169.488C138.777 169.461 138.333 169.443 137.873 169.435C137.415 169.447 136.959 169.489 136.507 169.562C135.611 169.707 134.742 169.99 133.931 170.401C133.15 170.773 132.494 171.367 132.046 172.11C131.863 172.456 131.791 172.849 131.838 173.238C131.885 173.627 132.049 173.992 132.309 174.284C132.888 174.998 133.546 175.644 134.271 176.207C135.78 177.331 137.407 178.286 139.123 179.054C142.557 180.681 146.15 181.987 149.65 183.569C151.404 184.346 153.107 185.232 154.811 186.1C156.488 187.007 158.233 187.783 160.03 188.421C160.908 188.769 161.826 189.003 162.763 189.117C163.7 189.201 164.644 189.181 165.576 189.057C167.436 188.836 169.229 188.224 170.837 187.261C171.626 186.785 172.345 186.202 172.974 185.527C173.611 184.879 174.121 184.115 174.477 183.277C174.813 182.428 174.982 181.523 174.975 180.611C174.949 179.695 174.869 178.711 174.803 177.768C174.656 175.862 174.516 173.954 174.271 172.06C174.118 170.16 173.704 168.29 173.041 166.504L173.039 166.499C173.034 166.489 173.034 166.477 173.037 166.467C173.041 166.456 173.049 166.448 173.059 166.442C173.068 166.437 173.08 166.436 173.091 166.439C173.102 166.442 173.111 166.449 173.117 166.459L173.116 166.459Z" fill="black"/>
<path d="M157.038 168.603C157.125 169.624 157.274 170.639 157.484 171.642C157.675 172.631 157.965 173.599 158.348 174.53C158.687 175.424 159.271 176.203 160.034 176.777C160.404 177.025 160.828 177.18 161.271 177.226C161.729 177.261 162.19 177.213 162.632 177.084C163.568 176.805 164.451 176.373 165.247 175.805C166.072 175.263 166.809 174.597 167.432 173.83C168.707 172.253 169.437 170.304 169.512 168.275C169.775 170.389 169.228 172.523 167.98 174.247C166.705 175.99 164.912 177.283 162.857 177.938C162.31 178.088 161.741 178.137 161.177 178.084C160.596 178.018 160.041 177.806 159.565 177.466C158.691 176.781 158.044 175.845 157.711 174.783C157.07 172.791 156.84 170.687 157.038 168.603ZM141.831 174.181C141.59 173.621 141.509 173.006 141.595 172.402C141.668 171.781 141.89 171.187 142.242 170.671C142.592 170.155 143.06 169.731 143.607 169.433C143.871 169.286 144.15 169.168 144.44 169.082C144.729 169.008 145.024 168.962 145.321 168.942C145.093 169.147 144.852 169.295 144.632 169.47C144.422 169.658 144.19 169.802 144.003 169.998C143.907 170.092 143.808 170.181 143.708 170.266L143.445 170.558C143.269 170.746 143.11 170.95 142.971 171.167C142.382 172.079 141.994 173.107 141.831 174.181ZM146.589 174.181C146.344 173.631 146.268 173.021 146.37 172.428C146.458 171.831 146.659 171.257 146.963 170.736C147.268 170.226 147.655 169.769 148.108 169.385C148.333 169.199 148.57 169.028 148.818 168.873C149.074 168.732 149.34 168.609 149.614 168.507C149.456 168.746 149.286 168.978 149.104 169.2L148.607 169.859C148.29 170.285 147.994 170.727 147.722 171.183C147.168 172.106 146.784 173.121 146.589 174.181Z" fill="black"/>
<path d="M154.882 190.817C153.232 190.279 151.64 189.574 150.132 188.713C147.559 187.237 143.065 184.7 141.796 184.205C137.795 182.631 133.046 181.005 131.335 178.371C128.42 173.881 131.334 171.561 131.334 171.561C132.257 176.501 138.024 179.272 146.272 182.455C154.52 185.637 155.543 187.14 161.182 188.979C164.178 189.96 170.972 189.376 174.171 184.682C174.399 184.349 174.594 183.993 174.753 183.622L175.339 179.009C179.668 196.23 161.226 192.877 154.882 190.817ZM180.831 177.592C179.95 177.303 179.181 176.744 178.634 175.993C178.088 175.243 177.79 174.339 177.783 173.409C177.704 172.076 178.051 170.753 178.774 169.633C179.497 168.512 180.558 167.653 181.803 167.18C186.269 165.293 188.384 159.814 189.18 157.102C189.846 154.797 190.876 152.614 192.232 150.636C194.455 147.421 197.945 144.205 202.202 146.502C203.678 147.346 204.798 148.698 205.354 150.308C206.42 153.177 208.129 156.01 203.503 162.321C202.753 163.331 201.942 164.293 201.075 165.204C199.735 166.656 198.684 168.353 197.982 170.203C197.339 172.006 191.048 180.852 180.831 177.592Z" fill="black"/>
<path d="M181.674 151.922C182.12 154.21 182.117 156.563 181.665 158.85C181.238 161.153 180.446 163.372 179.318 165.422C178.756 166.431 178.137 167.408 177.465 168.347C177.167 168.805 176.932 169.3 176.764 169.819C176.617 170.348 176.557 170.897 176.585 171.445C176.583 172.574 176.784 173.693 177.178 174.75C177.351 175.29 177.662 175.775 178.079 176.157C178.496 176.539 179.005 176.806 179.556 176.931C178.973 176.883 178.419 176.651 177.974 176.269C177.536 175.875 177.182 175.396 176.934 174.86C176.442 173.792 176.16 172.639 176.101 171.463C176.049 170.863 176.083 170.259 176.203 169.668C176.341 169.079 176.56 168.512 176.856 167.985C177.46 166.953 178.058 166.046 178.566 165.021C179.612 163.018 180.406 160.893 180.928 158.693C181.478 156.48 181.729 154.202 181.674 151.922ZM196.096 142.756C196.515 142.784 196.926 142.886 197.31 143.058C197.688 143.218 198.046 143.424 198.376 143.67C198.711 143.921 199.008 144.22 199.256 144.557C199.526 144.898 199.692 145.31 199.735 145.744C199.388 145.479 199.077 145.269 198.769 145.043L197.845 144.376C197.199 143.909 196.611 143.365 196.096 142.756ZM184.717 84.9324C184.719 84.946 184.717 84.9597 184.714 84.9728C184.71 84.9858 184.703 84.998 184.695 85.0086C184.686 85.0192 184.676 85.0279 184.664 85.0344C184.652 85.0409 184.639 85.0449 184.625 85.0463L156.289 89.0349L128.599 92.8097L128.783 123.364L128.869 138.969L128.911 154.574C128.912 154.833 128.82 155.084 128.652 155.28C128.484 155.476 128.251 155.605 127.995 155.643H127.988L90.3512 161.17L52.6928 166.561H52.6857C52.4814 166.591 52.273 166.556 52.0892 166.461L26.1955 153.506L0.3374 140.479H0.330304C0.209528 140.418 0.108232 140.325 0.0379334 140.209C-0.0323655 140.093 -0.0688429 139.96 -0.0673381 139.824L0.330304 107.432C0.479404 96.6273 0.49361 85.8298 0.585817 75.0325C0.586512 74.9505 0.61734 74.8718 0.672401 74.8113C0.727461 74.7508 0.802865 74.7128 0.884124 74.7047L21.9498 72.4684L22.8231 72.3759L23.0148 72.3545C22.9012 72.6251 22.7875 72.8958 22.6811 73.1735L22.0633 73.2377L1.24621 75.3316C1.25331 86.0364 1.18225 96.7341 1.24621 107.432L1.38821 139.375L27.0122 151.854L52.707 164.46L90.0318 158.94L126.76 153.641L126.803 138.969L126.895 123.364L127.087 92.1544V92.1474C127.087 91.9653 127.153 91.7896 127.274 91.6532C127.394 91.5168 127.56 91.4292 127.74 91.4067L156.161 88.0664L184.604 84.84C184.617 84.8386 184.631 84.8399 184.644 84.8437C184.657 84.8476 184.669 84.854 184.68 84.8626C184.69 84.8712 184.699 84.8818 184.705 84.8938C184.712 84.9057 184.716 84.9189 184.717 84.9324Z" fill="black"/>
<path d="M23.8029 72.2689C23.9022 72.5254 24.0088 72.7819 24.1081 73.0311C23.7247 73.0667 23.3414 73.1095 22.958 73.145C23.1071 72.8673 23.2562 72.5896 23.3981 72.3117L23.8029 72.2689ZM24.3425 72.2119C24.9743 72.1479 25.6063 72.0838 26.2381 72.0126C26.1246 72.2903 26.0109 72.5753 25.8973 72.853C25.4997 72.8886 25.1022 72.9314 24.7046 72.974C24.5839 72.7177 24.4631 72.4684 24.3425 72.2119ZM26.8914 72.2832L27.0759 72.732C26.9481 72.7461 26.8204 72.7603 26.6997 72.7746C26.7635 72.6108 26.8274 72.447 26.8914 72.2832ZM29.3267 71.6777H29.3976L29.0781 72.5397C28.638 72.5823 28.1977 72.6251 27.7647 72.6678L27.4735 71.8774C28.0913 71.8132 28.7089 71.7419 29.3267 71.6777ZM29.781 72.0339L29.9301 72.4541C29.8308 72.4684 29.7242 72.4755 29.6249 72.4826L29.781 72.0339ZM32.4648 71.5567L32.1738 72.2405L30.3846 72.4116L30.136 71.6637C30.91 71.6423 31.6909 71.6066 32.4648 71.5567ZM32.6779 71.628L32.898 72.1693C32.7489 72.1836 32.5998 72.1977 32.4506 72.2119L32.6779 71.628ZM212.436 65.0541C212.429 65.0802 212.413 65.1029 212.391 65.1175C212.368 65.1321 212.341 65.1374 212.315 65.1324L194.324 61.3221C188.36 60.0543 182.403 58.7699 176.453 57.469L154.606 59.9259L132.674 62.2835L110.735 64.6338L88.7892 66.8632C81.4691 67.6109 74.1489 68.2946 66.8289 68.9856L44.8614 71.0439C41.4818 71.3574 38.1045 71.6756 34.7297 71.9984C34.183 72.0481 33.6364 72.098 33.0897 72.1551L32.8625 71.5282C33.5156 71.4785 34.1689 71.4215 34.8292 71.3359C34.4387 71.2862 34.041 71.2434 33.6504 71.2006C34.0623 71.1579 34.4671 71.1081 34.8716 71.0654C38.1661 70.695 41.4582 70.3222 44.7479 69.9471L66.6726 67.4757C73.9785 66.6424 81.2844 65.8161 88.5975 65.0613L110.543 62.7465L132.497 60.5599L154.45 58.3805L176.41 56.3079H176.424C176.482 56.3053 176.539 56.3101 176.595 56.3222C182.566 57.7181 188.53 59.1402 194.487 60.5884L212.357 64.9258C212.371 64.9287 212.384 64.9344 212.396 64.9425C212.407 64.9506 212.417 64.961 212.424 64.973C212.432 64.985 212.436 64.9984 212.438 65.0124C212.44 65.0263 212.439 65.0406 212.436 65.0541ZM63.2292 133.599V158.57L119.063 151.355V127.168L63.2292 133.599ZM94.9519 144.268C90.8339 144.268 90.841 137.858 94.9519 137.858C99.07 137.858 99.0629 144.268 94.9519 144.268V144.268ZM63.2292 104.148V129.119L119.063 121.904V97.7169L63.2292 104.148ZM94.9519 114.818C90.8339 114.818 90.841 108.408 94.9519 108.408C99.07 108.408 99.0629 114.818 94.9519 114.818V114.818Z" fill="black"/>
<path d="M186.79 66.5207L186.799 66.5199C187.971 66.2193 189.152 65.9725 190.328 65.6978C191.507 65.442 192.687 65.1911 193.871 64.9574C193.933 64.9449 193.998 64.9522 194.057 64.9781L194.073 64.9854C196.554 66.0814 199.01 67.2278 201.456 68.396C203.899 69.5711 206.332 70.7681 208.741 72.0145L208.76 72.0246C208.832 72.0616 208.886 72.1257 208.91 72.2026C208.935 72.2796 208.928 72.3632 208.891 72.435C208.867 72.4803 208.833 72.5191 208.79 72.5477C208.748 72.5763 208.699 72.5938 208.648 72.5988C207.637 72.6906 206.628 72.7951 205.614 72.8662C204.601 72.9403 203.589 73.0297 202.573 73.0797C203.568 72.8674 204.569 72.6948 205.568 72.5065C206.566 72.3155 207.568 72.1576 208.569 71.9872L208.477 72.5713C205.992 71.4842 203.531 70.3475 201.081 69.1889C198.633 68.0234 196.196 66.8359 193.783 65.5984L193.985 65.6264C192.792 65.8023 191.596 65.9608 190.399 66.1146C189.199 66.2494 188.004 66.4124 186.799 66.5212H186.799L186.79 66.5207ZM181.653 75.8202L181.644 75.8203L175.725 76.7718C173.753 77.0944 171.774 77.3641 169.798 77.6623C167.821 77.9476 165.848 78.2589 163.868 78.523L157.931 79.3319C157.867 79.3398 157.803 79.3332 157.743 79.3125C155.357 78.4884 152.961 77.6927 150.586 76.8363L143.448 74.3042C143.4 74.2875 143.356 74.2614 143.318 74.2275C143.28 74.1936 143.249 74.1525 143.227 74.1066C143.205 74.0607 143.192 74.0108 143.189 73.9599C143.186 73.909 143.193 73.8579 143.21 73.8097C143.233 73.7443 143.273 73.6861 143.326 73.6413C143.378 73.5964 143.442 73.5664 143.51 73.5543C146.706 73.0071 149.916 72.5414 153.12 72.0384C156.324 71.5381 159.536 71.0858 162.751 70.6488C159.574 71.308 156.394 71.9518 153.206 72.5476C150.018 73.1408 146.837 73.7713 143.641 74.3201L143.703 73.5703L150.867 76.0238C153.26 76.8292 155.631 77.6955 158.012 78.5333L157.825 78.5138L163.77 77.7697C165.751 77.5162 167.739 77.31 169.723 77.0777C171.708 76.8584 173.69 76.6103 175.679 76.4154C177.667 76.2123 179.653 75.9958 181.644 75.8198H181.644L181.653 75.8202ZM158.591 63.181C156.455 63.8037 154.306 64.3716 152.163 64.963C151.626 65.1056 151.093 65.2671 150.552 65.3887L148.922 65.7304L145.668 66.4362L144.041 66.7892C143.45 66.9501 142.833 66.9873 142.227 66.8984C141.584 66.7996 140.986 66.508 140.512 66.062C140.272 65.8192 140.088 65.5269 139.971 65.2055C139.855 64.884 139.81 64.5411 139.839 64.2004C139.974 62.9759 140.531 61.837 141.413 60.9797C141.835 60.5576 142.314 60.1959 142.834 59.9047C143.091 59.7617 143.355 59.6332 143.625 59.5199C143.873 59.414 144.118 59.3008 144.358 59.1801C146.308 58.2745 147.949 56.815 149.079 54.9826C149.61 54.0637 149.962 53.052 150.115 52.0013C150.254 50.9693 150.256 49.8231 150.311 48.7182L150.855 35.3707L150.864 35.483C150.811 35.3358 150.736 35.1973 150.642 35.0719C150.534 34.9226 150.41 34.7849 150.273 34.6612C149.973 34.4136 149.65 34.195 149.309 34.0085C148.579 33.6224 147.798 33.3425 146.989 33.1775C146.155 33.0149 145.31 32.9124 144.461 32.8707C143.606 32.8229 142.747 32.8283 141.884 32.8427C142.737 32.7254 143.594 32.596 144.461 32.5569C145.334 32.5072 146.209 32.5204 147.08 32.5963C147.976 32.6829 148.855 32.8982 149.691 33.2357C150.127 33.4199 150.527 33.6808 150.872 34.006C151.267 34.3507 151.561 34.7956 151.725 35.294C151.734 35.3214 151.737 35.3501 151.736 35.3788L151.735 35.4067L151.192 48.7549C151.134 49.8725 151.141 50.9594 150.986 52.1356C150.816 53.2947 150.428 54.4109 149.842 55.4247C148.625 57.4085 146.855 58.9898 144.75 59.9723C144.494 60.1003 144.235 60.2204 143.972 60.3326C143.73 60.4335 143.494 60.548 143.266 60.6757C142.816 60.9271 142.402 61.2394 142.037 61.6037C141.309 62.3097 140.844 63.2439 140.719 64.2515C140.696 64.4669 140.721 64.6847 140.793 64.8891C140.864 65.0935 140.98 65.2795 141.132 65.4334C141.477 65.7497 141.908 65.9561 142.37 66.0263C142.867 66.0973 143.373 66.0628 143.855 65.9251L145.482 65.5721L148.736 64.8663L150.361 64.5024C150.904 64.3886 151.456 64.3149 152.003 64.2221C154.199 63.8724 156.389 63.4994 158.591 63.181Z" fill="black"/>
<path d="M145.113 23.3031C146.058 24.3786 146.931 25.5182 148.088 26.6222L135.713 41.9992C135.5 27.363 125.354 26.6222 125.354 26.6222L142.032 20.2549C142.611 20.7166 143.164 21.2112 143.687 21.7362C144.183 22.2419 144.645 22.769 145.113 23.3031Z" fill="black"/>
<path d="M153.378 26.6222H148.088C148.014 25.8332 147.8 25.0638 147.457 24.3502C147.127 23.634 146.699 22.9674 146.186 22.37C145.666 21.7593 145.046 21.2416 144.354 20.8388C143.652 20.4253 142.846 20.2227 142.032 20.2549L144.389 15.7962L153.378 26.6222ZM135.715 42.0009C134.135 41.5123 132.661 40.7285 131.371 39.6908C130.051 38.6666 128.899 37.4399 127.96 36.056C127.716 35.7155 127.495 35.3587 127.3 34.9881C127.103 34.6181 126.875 34.2651 126.707 33.8815C126.356 33.122 126.07 32.3347 125.849 31.5277C125.392 29.9348 125.223 28.2723 125.352 26.6196C125.772 28.1637 126.287 29.68 126.895 31.1597C127.491 32.6001 128.241 33.9718 129.13 35.251C130.003 36.5471 130.998 37.7559 132.101 38.8605C133.228 39.9939 134.436 41.0435 135.715 42.0009Z" fill="black"/>
<path d="M131.379 37.0682C136.483 37.0682 136.491 29.1124 131.379 29.1124C126.276 29.1124 126.268 37.0682 131.379 37.0682ZM94.3425 69.5344L107.39 67.2673C111.834 66.5085 116.334 65.7297 120.824 65.1468L120.838 65.1449C120.905 65.1361 120.972 65.1487 121.031 65.1807L126.251 68.0039C127.987 68.9545 129.739 69.8707 131.491 70.7899C133.235 71.7215 135.008 72.5995 136.769 73.4992C138.529 74.4013 140.311 75.2606 142.081 76.1434C142.126 76.1658 142.163 76.2017 142.186 76.2461C142.209 76.2905 142.218 76.3411 142.211 76.3908C142.204 76.4405 142.182 76.4868 142.147 76.5231C142.113 76.5594 142.068 76.5838 142.018 76.5929L142.009 76.5947C137.556 77.4026 133.099 78.1908 128.635 78.9322C124.173 79.6867 119.711 80.444 115.238 81.1301L115.234 81.1308C115.136 81.146 115.036 81.1287 114.948 81.0816C111.423 79.1837 107.932 77.2009 104.476 75.2555C101.045 73.2928 97.6681 71.3731 94.3425 69.5344ZM94.4295 69.5494C98.0303 71.4216 101.58 73.213 105.075 74.9612C108.546 76.7268 111.981 78.4549 115.382 80.2678L115.092 80.2193C119.555 79.4664 124.028 78.7844 128.502 78.0996C132.973 77.402 137.452 76.7512 141.934 76.12L141.862 76.571C140.116 75.6418 138.382 74.6891 136.626 73.779C134.871 72.8668 133.127 71.9327 131.356 71.0521C129.592 70.1594 127.828 69.2635 126.047 68.4019L120.72 65.789L120.927 65.8229C116.586 66.5923 112.257 67.1658 107.872 67.7594L101.223 68.6311L94.4295 69.5494Z" fill="black"/>
<path d="M109.931 72.3268C110.888 72.1131 111.856 71.9482 112.83 71.833C113.753 71.9804 114.68 72.098 115.605 72.2319L121.156 73.0124L126.708 73.7932L129.484 74.1834C130.372 74.5795 131.261 74.9679 132.137 75.4491C131.163 75.6701 130.202 75.7982 129.239 75.9342L126.463 75.544L120.912 74.7635L115.36 73.9827C114.434 73.8566 113.511 73.7139 112.583 73.6012C111.678 73.2217 110.793 72.7964 109.931 72.3268ZM37.804 74.4774L50.8512 72.2103C55.2953 71.4515 59.7957 70.6727 64.2853 70.0898L64.2996 70.0879C64.3661 70.0791 64.4336 70.0916 64.4926 70.1237L69.7127 72.9469C71.448 73.8975 73.2008 74.8137 74.9519 75.7329C76.6969 76.6645 78.4693 77.5425 80.2304 78.4422C81.9905 79.3443 83.7725 80.2036 85.5424 81.0864C85.5873 81.1087 85.624 81.1446 85.6473 81.189C85.6707 81.2334 85.6795 81.2841 85.6726 81.3338C85.6657 81.3835 85.6433 81.4298 85.6087 81.466C85.5742 81.5023 85.5291 81.5268 85.4799 81.5359L85.4709 81.5376C81.0172 82.3455 76.5605 83.1338 72.0963 83.8752C67.6342 84.6297 63.1724 85.3869 58.6994 86.0731L58.695 86.0738C58.5971 86.0889 58.497 86.0717 58.4097 86.0246C54.8845 84.1266 51.3929 82.1438 47.9374 80.1984C44.5063 78.2358 41.1295 76.3161 37.804 74.4774ZM37.891 74.4924C41.4918 76.3646 45.0412 78.1559 48.5365 79.9042C52.0071 81.6698 55.442 83.3979 58.8431 85.2108L58.5536 85.1623C63.0161 84.4093 67.4898 83.7274 71.963 83.0426C76.4343 82.345 80.9131 81.6941 85.3949 81.0629L85.3233 81.514C83.5773 80.5848 81.8432 79.632 80.0873 78.7219C78.3324 77.8097 76.5887 76.8756 74.8177 75.9951C73.053 75.1024 71.2897 74.2065 69.5089 73.3449L64.1811 70.7319L64.388 70.7659C60.0478 71.5353 55.7186 72.1088 51.333 72.7024L44.6843 73.5741L37.891 74.4924Z" fill="black"/>
<path d="M70.0755 73.3455C71.6751 73.0175 73.2775 72.7083 74.8827 72.4178C76.4894 72.1373 78.0919 71.8292 79.7023 71.5717C82.9217 71.0495 86.1358 70.4924 89.3701 70.0688L89.3871 70.0667C89.4572 70.0574 89.5283 70.0707 89.5903 70.1048L94.7936 72.9614C96.5272 73.9149 98.2805 74.8302 100.036 75.7419C101.8 76.6362 103.564 77.5305 105.346 78.3893L110.681 80.9892C110.746 81.0213 110.8 81.0734 110.835 81.1381C110.869 81.2029 110.882 81.2769 110.872 81.3495C110.862 81.4222 110.83 81.4898 110.779 81.5427C110.728 81.5956 110.662 81.6311 110.59 81.6441L110.576 81.6465L103.888 82.8077C101.658 83.1909 99.4271 83.5695 97.1925 83.9246C94.9569 84.2735 92.7217 84.6237 90.4807 84.9388C88.2403 85.2579 86.0028 85.5946 83.7576 85.8827L83.7421 85.8846C83.6886 85.8915 83.6342 85.8809 83.5872 85.8542C81.6801 84.7716 79.7829 83.6705 77.8956 82.5509C77.8858 82.5451 77.8787 82.5357 77.8756 82.5247C77.8726 82.5138 77.8738 82.5021 77.8792 82.492C77.8845 82.482 77.8935 82.4744 77.9042 82.4708C77.915 82.4672 77.9267 82.4679 77.937 82.4728C79.9169 83.4182 81.8852 84.3857 83.842 85.3751L83.6718 85.3466C85.8942 84.9157 88.1245 84.5334 90.3518 84.1335C92.5787 83.7295 94.8109 83.3609 97.0432 82.9907C99.2763 82.6269 101.513 82.2866 103.751 81.9508L110.466 80.955L110.361 81.6123L105.148 78.7759C103.414 77.8225 101.662 76.9045 99.9102 75.9866C98.1494 75.0862 96.3866 74.1893 94.6043 73.3309L89.2595 70.7508L89.4793 70.7868C86.2663 71.3505 83.0328 71.7803 79.8047 72.2453C78.1913 72.4814 76.57 72.6668 74.9529 72.88C73.3348 73.0846 71.7134 73.2689 70.0888 73.4329C70.0776 73.4341 70.0663 73.4308 70.0574 73.4239C70.0484 73.4169 70.0425 73.4068 70.0408 73.3956C70.0391 73.3843 70.0417 73.3729 70.0482 73.3636C70.0546 73.3542 70.0644 73.3478 70.0755 73.3455L70.0755 73.3455ZM178.98 30.575C178.611 31.6221 178.192 32.6477 177.773 33.6733L176.105 36.4937L172.903 41.921H171.667L171.859 41.6003L175.189 35.9524L176.857 33.1248C177.553 32.2702 178.242 31.4084 178.98 30.575ZM171.185 34.1219L170.787 37.6119L170.297 41.9209H169.225L169.729 37.4907L170.12 34.0008C170.411 32.8542 170.695 31.7074 171.05 30.575C171.135 31.7645 171.163 32.9396 171.185 34.1219ZM166.79 41.9209H167.464L167.088 39.2785L166.783 37.1561L166.314 33.8228C165.994 32.7402 165.682 31.6505 165.306 30.5751C165.256 31.5081 165.242 32.434 165.249 33.3599V33.9795L165.384 34.8983L165.732 37.3056L166.392 41.9209H166.79ZM164.539 41.9209H163.467L162.799 37.3057L162.324 33.9795C162.317 32.8471 162.317 31.7146 162.381 30.575C162.757 31.6506 163.069 32.7402 163.389 33.8228L163.857 37.1562L164.312 40.3327L164.539 41.9209Z" fill="black"/>
<path d="M165.384 34.2716V34.8983L165.377 37.5478V41.9209H164.312V34.2716C164.468 33.1819 164.624 32.0921 164.844 30.9953C165 31.7859 165.135 32.5764 165.249 33.3599C165.299 33.6661 165.341 33.9654 165.384 34.2716ZM168.664 34.8198L168.295 38.0748L167.862 41.9209H166.79L167.088 39.2786L167.237 37.9537L167.599 34.6988C167.876 33.6304 168.153 32.5621 168.494 31.508C168.593 32.612 168.629 33.716 168.664 34.8198ZM161.252 46.2797V50.1258C161.436 50.1045 161.621 50.0902 161.805 50.0688L163.403 46.472C162.686 46.4221 161.969 46.3652 161.252 46.2797ZM163.602 46.5362L161.891 50.0617C162.92 49.9548 163.957 49.8837 164.986 49.8409L163.602 46.5362ZM163.829 46.5006L165.292 49.6628L166.456 46.6075C165.583 46.5932 164.702 46.5504 163.829 46.5005L163.829 46.5006ZM166.825 46.9137L165.625 49.8195C166.385 49.791 167.138 49.7767 167.897 49.7698L166.825 46.9137ZM168.337 46.6358C167.968 46.6287 167.592 46.6216 167.223 46.6216L168.309 49.3067L169.232 46.6216C168.934 46.6287 168.636 46.6287 168.337 46.6358L168.337 46.6358ZM169.708 47.3125L168.778 49.7698C169.374 49.7767 169.97 49.784 170.567 49.8053C170.269 48.9719 169.985 48.1458 169.708 47.3124V47.3125ZM170.205 46.6075C170.51 47.4551 170.801 48.3026 171.085 49.1501C171.469 48.274 171.845 47.4051 172.236 46.5362C171.561 46.5716 170.886 46.5932 170.205 46.6075L170.205 46.6075ZM172.633 46.9351C172.278 47.9037 171.909 48.8653 171.54 49.8338C172.356 49.8623 173.173 49.9122 173.982 49.9834C173.513 48.9719 173.073 47.9606 172.633 46.9351L172.633 46.9351ZM161.252 41.9211V46.2798C163.605 46.0225 165.971 45.9036 168.337 45.9237C168.771 45.9237 169.204 45.9308 169.637 45.9379C169.699 45.9201 169.766 45.9201 169.829 45.9379C170.737 45.9522 171.639 45.9878 172.541 46.0376C172.564 46.0296 172.588 46.0248 172.612 46.0235C172.648 46.0237 172.684 46.0309 172.718 46.0448C173.62 46.1017 174.522 46.173 175.423 46.2798V41.921L161.252 41.9211ZM162.906 45.1047C162.63 45.0956 162.368 44.979 162.175 44.7796C161.983 44.5803 161.876 44.3138 161.876 44.0364C161.876 43.759 161.983 43.4925 162.175 43.2931C162.368 43.0938 162.63 42.9772 162.906 42.968C163.182 42.9777 163.443 43.0945 163.635 43.2938C163.827 43.4931 163.934 43.7593 163.934 44.0363C163.934 44.3133 163.827 44.5795 163.635 44.7788C163.443 44.9781 163.182 45.0949 162.906 45.1046L162.906 45.1047ZM166.74 45.1047C166.464 45.0956 166.202 44.979 166.009 44.7796C165.817 44.5803 165.71 44.3138 165.71 44.0364C165.71 43.759 165.817 43.4925 166.009 43.2931C166.202 43.0938 166.464 42.9772 166.74 42.968C167.016 42.9777 167.277 43.0945 167.469 43.2938C167.661 43.4931 167.768 43.7593 167.768 44.0363C167.768 44.3133 167.661 44.5795 167.469 44.7788C167.277 44.9781 167.016 45.0949 166.74 45.1046L166.74 45.1047ZM170.446 44.9766C170.17 44.9674 169.908 44.8508 169.716 44.6515C169.523 44.4521 169.416 44.1856 169.416 43.9082C169.416 43.6308 169.523 43.3643 169.716 43.165C169.908 42.9656 170.17 42.849 170.446 42.8399C170.722 42.8496 170.984 42.9664 171.176 43.1657C171.367 43.3649 171.475 43.6312 171.475 43.9082C171.475 44.1852 171.367 44.4514 171.176 44.6507C170.984 44.8499 170.722 44.9667 170.446 44.9764L170.446 44.9766ZM174.089 45.1047C173.812 45.0956 173.55 44.979 173.358 44.7796C173.166 44.5803 173.058 44.3138 173.058 44.0364C173.058 43.759 173.166 43.4925 173.358 43.2931C173.55 43.0938 173.812 42.9772 174.089 42.968C174.365 42.9777 174.626 43.0945 174.818 43.2938C175.01 43.4931 175.117 43.7593 175.117 44.0363C175.117 44.3133 175.01 44.5795 174.818 44.7788C174.626 44.9781 174.364 45.0949 174.088 45.1046L174.089 45.1047ZM172.946 46.4936C173.343 47.6544 173.726 48.8154 174.081 49.9907C174.529 50.0333 174.976 50.069 175.423 50.126V46.2799C174.6 46.3724 173.776 46.4435 172.945 46.4934L172.946 46.4936ZM163.602 46.5363L161.891 50.0619C162.92 49.9549 163.957 49.8838 164.986 49.841L163.602 46.5363ZM163.829 46.5007L165.292 49.663L166.456 46.6077C165.583 46.5932 164.702 46.5504 163.829 46.5005L163.829 46.5007ZM166.825 46.9139L165.625 49.8197C166.385 49.7912 167.138 49.7769 167.897 49.7699L166.825 46.9139ZM168.337 46.636C167.968 46.6289 167.592 46.6218 167.223 46.6218L168.309 49.3069L169.232 46.6218C168.934 46.6287 168.636 46.6287 168.337 46.6358L168.337 46.636ZM169.708 47.3126L168.778 49.77C169.374 49.7769 169.971 49.7842 170.567 49.8054C170.269 48.9719 169.985 48.1458 169.708 47.3124L169.708 47.3126ZM170.205 46.6077C170.51 47.4553 170.801 48.3027 171.085 49.1502C171.469 48.2742 171.845 47.4053 172.236 46.5364C171.561 46.5716 170.886 46.5932 170.205 46.6075L170.205 46.6077ZM172.633 46.9353C172.278 47.9039 171.909 48.8655 171.54 49.834C172.356 49.8625 173.173 49.9124 173.982 49.9835C173.513 48.9719 173.073 47.9606 172.633 46.9351L172.633 46.9353ZM163.602 46.5364L161.891 50.062C162.92 49.955 163.957 49.8839 164.986 49.8411L163.602 46.5364ZM163.829 46.5008L165.292 49.6631L166.456 46.6078C165.583 46.5932 164.702 46.5504 163.829 46.5005L163.829 46.5008ZM166.825 46.914L165.625 49.8197C166.385 49.7913 167.138 49.777 167.897 49.77L166.825 46.914ZM168.338 46.6361C167.968 46.629 167.592 46.6219 167.223 46.6219L168.309 49.307L169.232 46.6219C168.934 46.6287 168.636 46.6287 168.337 46.6358L168.338 46.6361ZM169.708 47.3127L168.778 49.7701C169.374 49.777 169.971 49.7843 170.567 49.8055C170.269 48.9719 169.985 48.1458 169.708 47.3124L169.708 47.3127ZM170.205 46.6078C170.51 47.4553 170.801 48.3028 171.085 49.1503C171.469 48.2743 171.845 47.4054 172.236 46.5365C171.561 46.5716 170.886 46.5932 170.205 46.6075L170.205 46.6078ZM172.633 46.9354C172.278 47.904 171.909 48.8656 171.54 49.8341C172.356 49.8626 173.173 49.9125 173.982 49.9836C173.513 48.9719 173.073 47.9606 172.633 46.9351L172.633 46.9354ZM161.252 54.2926V55.1758C161.252 57.061 161.998 58.8689 163.327 60.202C164.656 61.535 166.458 62.2839 168.338 62.2839C170.217 62.2839 172.019 61.535 173.348 60.202C174.677 58.8689 175.423 57.061 175.423 55.1758V54.2926C170.711 54.7675 165.964 54.7675 161.252 54.2926ZM171.234 50.4253C171.189 50.4558 171.137 50.475 171.083 50.4812C171.028 50.4874 170.973 50.4805 170.922 50.4609C170.907 50.4522 170.893 50.4427 170.879 50.4324C170.035 50.4609 169.183 50.4752 168.338 50.4823C165.971 50.4952 163.605 50.3764 161.252 50.1262V54.2926C165.964 53.8178 170.711 53.8178 175.423 54.2926V50.1258C174.025 50.2896 172.633 50.375 171.234 50.4249L171.234 50.4253ZM163.226 53.3098C162.949 53.3006 162.687 53.1841 162.495 52.9847C162.303 52.7854 162.195 52.5188 162.195 52.2415C162.195 51.9641 162.303 51.6976 162.495 51.4982C162.687 51.2989 162.949 51.1823 163.226 51.1731C163.501 51.1835 163.762 51.3006 163.953 51.4998C164.144 51.699 164.251 51.9648 164.251 52.2414C164.251 52.5179 164.144 52.7837 163.953 52.9829C163.762 53.1821 163.501 53.2992 163.225 53.3095L163.226 53.3098ZM166.485 53.2456C166.208 53.2365 165.946 53.1199 165.754 52.9206C165.562 52.7212 165.454 52.4547 165.454 52.1773C165.454 51.8999 165.562 51.6334 165.754 51.434C165.946 51.2347 166.208 51.1181 166.485 51.1089C166.76 51.1193 167.021 51.2364 167.212 51.4356C167.403 51.6348 167.51 51.9006 167.51 52.1772C167.51 52.4538 167.403 52.7196 167.212 52.9188C167.021 53.1179 166.76 53.235 166.484 53.2453L166.485 53.2456ZM170.063 53.2456C169.787 53.2365 169.525 53.1199 169.332 52.9206C169.14 52.7212 169.033 52.4547 169.033 52.1773C169.033 51.8999 169.14 51.6334 169.332 51.434C169.525 51.2347 169.787 51.1181 170.063 51.1089C170.338 51.1193 170.599 51.2364 170.791 51.4356C170.982 51.6348 171.089 51.9006 171.089 52.1772C171.089 52.4538 170.982 52.7196 170.79 52.9187C170.599 53.1179 170.338 53.235 170.063 53.2453L170.063 53.2456ZM173.641 53.1175C173.365 53.1083 173.103 52.9918 172.911 52.7924C172.718 52.593 172.611 52.3265 172.611 52.0492C172.611 51.7718 172.718 51.5052 172.911 51.3059C173.103 51.1065 173.365 50.99 173.641 50.9808C173.917 50.9912 174.178 51.1082 174.369 51.3074C174.56 51.5066 174.667 51.7724 174.667 52.049C174.667 52.3256 174.56 52.5914 174.369 52.7906C174.178 52.9898 173.917 53.1068 173.641 53.1172L173.641 53.1175ZM173.982 49.9836C173.513 48.9723 173.073 47.961 172.633 46.9354C172.278 47.9039 171.909 48.8655 171.54 49.834C172.356 49.8622 173.173 49.9121 173.982 49.9832L173.982 49.9836ZM172.236 46.5365C171.561 46.572 170.886 46.5935 170.205 46.6078C170.51 47.4553 170.801 48.3028 171.085 49.1503C171.469 48.274 171.845 47.4051 172.235 46.5362L172.236 46.5365ZM170.567 49.8055C170.269 48.9723 169.985 48.1461 169.708 47.3127L168.778 49.7701C169.374 49.7767 169.97 49.784 170.567 49.8052L170.567 49.8055ZM169.232 46.6218C168.934 46.629 168.636 46.629 168.337 46.6361C167.968 46.629 167.592 46.6218 167.223 46.6218L168.309 49.307L169.232 46.6218ZM167.897 49.77L166.825 46.914L165.625 49.8198C166.385 49.7909 167.138 49.7767 167.897 49.7697L167.897 49.77ZM166.456 46.6077C165.583 46.5935 164.702 46.5507 163.829 46.5008L165.292 49.663L166.456 46.6077ZM163.602 46.5364L161.891 50.062C162.92 49.955 163.957 49.8839 164.987 49.8411L163.602 46.5364ZM172.633 46.9353C172.278 47.9039 171.909 48.8655 171.54 49.834C172.356 49.8625 173.173 49.9124 173.982 49.9835C173.513 48.9719 173.073 47.9606 172.633 46.9351L172.633 46.9353ZM170.205 46.6077C170.51 47.4553 170.801 48.3027 171.085 49.1502C171.469 48.2742 171.845 47.4053 172.236 46.5364C171.561 46.5716 170.886 46.5932 170.205 46.6075L170.205 46.6077ZM169.708 47.3126L168.778 49.77C169.374 49.7769 169.971 49.7842 170.567 49.8054C170.269 48.9719 169.985 48.1458 169.708 47.3124L169.708 47.3126ZM168.338 46.636C167.968 46.6289 167.592 46.6218 167.223 46.6218L168.309 49.3069L169.232 46.6218C168.934 46.6287 168.636 46.6287 168.337 46.6358L168.338 46.636ZM166.825 46.9139L165.625 49.8197C166.385 49.7912 167.138 49.7769 167.897 49.7699L166.825 46.9139ZM163.829 46.5007L165.292 49.663L166.456 46.6077C165.583 46.5932 164.702 46.5504 163.829 46.5005L163.829 46.5007ZM163.602 46.5363L161.891 50.0619C162.92 49.9549 163.957 49.8838 164.986 49.841L163.602 46.5363ZM172.633 46.9352C172.278 47.9038 171.909 48.8654 171.54 49.8339C172.356 49.8624 173.173 49.9123 173.982 49.9834C173.513 48.9719 173.073 47.9606 172.633 46.9351L172.633 46.9352ZM170.205 46.6076C170.51 47.4552 170.801 48.3026 171.085 49.1502C171.469 48.2741 171.845 47.4052 172.236 46.5363C171.561 46.5716 170.886 46.5932 170.205 46.6075L170.205 46.6076ZM169.708 47.3125L168.778 49.7699C169.374 49.7768 169.97 49.7841 170.567 49.8053C170.269 48.9719 169.985 48.1458 169.708 47.3124L169.708 47.3125ZM168.337 46.6359C167.968 46.6288 167.592 46.6217 167.223 46.6217L168.309 49.3068L169.232 46.6217C168.934 46.6287 168.636 46.6287 168.337 46.6358L168.337 46.6359ZM166.825 46.9138L165.625 49.8196C166.385 49.7911 167.138 49.7768 167.897 49.7698L166.825 46.9138ZM163.829 46.5006L165.292 49.6629L166.456 46.6076C165.583 46.5932 164.702 46.5504 163.829 46.5005L163.829 46.5006ZM163.602 46.5362L161.891 50.0618C162.92 49.9548 163.957 49.8837 164.986 49.841L163.602 46.5362ZM45.9184 163.383C46.0501 165.142 46.1176 166.9 46.2103 168.659C46.307 170.418 46.3507 172.177 46.414 173.935C46.4538 175.694 46.5185 177.453 46.5377 179.212C46.5603 180.97 46.6052 182.729 46.6055 184.488L46.1001 183.823L51.0408 185.161L50.6877 185.155L55.611 183.985L55.0917 184.647C55.1345 181.383 55.1939 178.119 55.2969 174.855C55.359 173.223 55.4048 171.59 55.497 169.958C55.5819 168.326 55.6488 166.694 55.7714 165.062C55.8939 166.694 55.9608 168.326 56.0458 169.958C56.138 171.59 56.1838 173.222 56.2458 174.855C56.3488 178.119 56.4082 181.383 56.451 184.647C56.453 184.798 56.4041 184.946 56.3121 185.065C56.2201 185.185 56.0904 185.27 55.9442 185.307L55.9315 185.31L51.0208 186.532C50.9045 186.561 50.783 186.559 50.6676 186.527L45.7371 185.153C45.5922 185.112 45.4644 185.025 45.3732 184.905C45.2819 184.785 45.2322 184.639 45.2314 184.488C45.2318 182.729 45.2767 180.97 45.2992 179.212C45.3185 177.453 45.3831 175.694 45.423 173.936C45.4863 172.177 45.5299 170.418 45.6267 168.659C45.7194 166.9 45.7868 165.142 45.9184 163.383Z" fill="black"/>
<path d="M50.8449 164.98C51.1929 168.457 51.2741 171.934 51.2898 175.412C51.2791 178.889 51.2013 182.366 50.8542 185.844C50.5041 182.367 50.4232 178.889 50.4093 175.412C50.4219 171.935 50.4999 168.457 50.8449 164.98ZM0.802536 139.894C0.941732 141.653 1.00951 143.412 1.10883 145.17C1.19844 146.929 1.2598 148.688 1.3132 150.447C1.41495 153.964 1.48463 157.482 1.49555 160.999L0.985583 160.329C2.6337 160.77 4.28216 161.21 5.92282 161.679L5.57354 161.674C7.21559 161.287 8.85365 160.885 10.5014 160.522L10.0025 161.158C10.0308 159.747 10.0386 158.336 10.0838 156.925C10.1274 155.514 10.1509 154.103 10.2123 152.692C10.2617 151.28 10.3203 149.869 10.4028 148.458C10.4781 147.047 10.5442 145.636 10.6556 144.225C10.7667 145.636 10.8329 147.047 10.9083 148.458C10.9907 149.869 11.0492 151.28 11.0986 152.692C11.16 154.103 11.1836 155.514 11.2271 156.925C11.2723 158.336 11.2801 159.747 11.3086 161.158C11.3114 161.301 11.2664 161.44 11.1808 161.555C11.0952 161.669 10.974 161.751 10.8364 161.788L10.8094 161.795C9.1791 162.229 7.53931 162.625 5.90316 163.036C5.79327 163.064 5.67815 163.064 5.56843 163.035L5.55369 163.031C3.90402 162.595 2.26214 162.132 0.619587 161.67L0.613509 161.668C0.468225 161.627 0.340323 161.539 0.249333 161.418C0.158343 161.298 0.109273 161.15 0.109621 160.999C0.120541 157.481 0.190214 153.964 0.291964 150.446C0.345356 148.688 0.406719 146.929 0.496342 145.17C0.595572 143.412 0.663348 141.653 0.802536 139.894Z" fill="black"/>
<path d="M5.72899 141.491C6.07706 144.968 6.15818 148.445 6.17395 151.923C6.16303 155.4 6.0852 158.877 5.73818 162.355C5.38803 158.878 5.30726 155.4 5.29321 151.923C5.30587 148.446 5.38404 144.969 5.72899 141.491ZM118.179 155.851C118.298 157.415 118.364 158.978 118.446 160.542C118.535 162.105 118.585 163.669 118.643 165.232C118.747 168.359 118.809 171.486 118.85 174.613L118.48 174.012L122.936 176.22L122.434 176.17C124.175 175.673 125.927 175.223 127.673 174.747L127.167 175.412C127.167 173.686 127.21 171.961 127.233 170.236C127.252 168.51 127.316 166.785 127.357 165.06C127.419 163.334 127.465 161.609 127.561 159.884C127.655 158.158 127.722 156.433 127.855 154.707C127.987 156.433 128.055 158.158 128.148 159.884C128.244 161.609 128.29 163.334 128.352 165.06C128.393 166.785 128.457 168.51 128.476 170.236C128.5 171.961 128.542 173.686 128.542 175.412C128.542 175.563 128.492 175.71 128.401 175.83C128.309 175.95 128.181 176.037 128.036 176.077C126.292 176.56 124.555 177.068 122.806 177.531L122.795 177.533C122.631 177.577 122.456 177.558 122.305 177.481L117.878 175.215L117.866 175.209C117.757 175.153 117.666 175.068 117.602 174.962C117.539 174.857 117.506 174.736 117.508 174.613C117.549 171.486 117.611 168.359 117.715 165.232C117.773 163.669 117.823 162.105 117.912 160.542C117.993 158.978 118.06 157.415 118.179 155.851Z" fill="black"/>
<path d="M123.017 155.275C123.297 158.878 123.311 162.475 123.259 166.071C123.18 169.667 123.035 173.261 122.62 176.85C122.338 173.248 122.325 169.651 122.378 166.055C122.459 162.459 122.604 158.865 123.017 155.275ZM175.432 119.419C174.728 119.378 174.037 119.214 173.39 118.933C171.454 118.147 169.725 116.925 168.335 115.361C168.981 115.609 169.608 115.903 170.213 116.24C170.818 116.556 171.397 116.907 171.981 117.247C172.554 117.606 173.133 117.95 173.699 118.32C174.273 118.679 174.83 119.057 175.432 119.419ZM30.2851 35.7743C30.8597 36.7204 31.5463 37.5934 32.33 38.374C31.5361 38.4015 30.7479 38.2301 30.0367 37.8753C29.5229 37.6098 29.0891 37.2115 28.78 36.7216C28.4786 36.2249 28.3122 35.6576 28.2972 35.0763C28.2827 34.2809 28.4682 33.4946 28.8367 32.7901C29.195 33.8409 29.6815 34.8433 30.2851 35.7743ZM32.8767 36.0878C32.8908 36.8841 32.7027 37.6708 32.33 38.374C31.9717 37.3232 31.4852 36.3208 30.8816 35.3898C30.3052 34.4449 29.6188 33.5722 28.8367 32.7901C29.6292 32.7617 30.4159 32.9357 31.1231 33.2958C31.6369 33.5607 32.0726 33.9561 32.3867 34.4425C32.6945 34.9368 32.8638 35.5051 32.8767 36.0878ZM28.3894 42.569C28.9643 43.5169 29.6535 44.3901 30.4414 45.1687C29.6474 45.1971 28.859 45.0256 28.148 44.67C27.6323 44.4045 27.1962 44.0064 26.8842 43.5163C26.5829 43.0195 26.4164 42.4523 26.4014 41.871C26.387 41.0756 26.5725 40.2893 26.941 39.5848C27.3023 40.6344 27.7886 41.6364 28.3894 42.569ZM30.9809 42.8823C30.9947 43.6777 30.8092 44.4639 30.4415 45.1687C30.0771 44.1204 29.591 43.1187 28.993 42.1844C28.4141 41.2393 27.7253 40.3667 26.941 39.5848C27.7336 39.5555 28.5205 39.7296 29.2273 40.0905C29.7461 40.3505 30.1839 40.7483 30.4931 41.2405C30.8023 41.7327 30.9711 42.3006 30.981 42.8824L30.9809 42.8823ZM26.2523 50.0474C26.829 50.994 27.5179 51.867 28.3042 52.6471C27.5093 52.6771 26.7199 52.503 26.0109 52.1413C25.4941 51.8806 25.0574 51.4844 24.7472 50.9947C24.4458 50.498 24.2793 49.9308 24.2643 49.3494C24.2491 48.5539 24.4347 47.7674 24.8039 47.0632C25.1651 48.1128 25.6515 49.1148 26.2523 50.0474Z" fill="black"/>
<path d="M28.8439 50.3536C28.8584 51.1514 28.6728 51.9401 28.3041 52.6471C27.9405 51.5972 27.4518 50.5952 26.8487 49.6628C26.2723 48.7179 25.5859 47.8453 24.8038 47.0632C25.5964 47.0339 26.3832 47.208 27.09 47.5689C27.604 47.8338 28.0397 48.2292 28.3538 48.7157C28.6607 49.2077 28.8299 49.7734 28.8439 50.3536ZM25.2086 58.0101C25.7855 58.9587 26.4744 59.8339 27.2604 60.617C26.4655 60.647 25.6761 60.4729 24.9671 60.1113C24.4519 59.8473 24.0175 59.4484 23.71 58.9568C23.4025 58.4653 23.2334 57.8994 23.2205 57.3192C23.2088 56.5241 23.3942 55.7384 23.7601 55.033C24.1243 56.0791 24.6105 57.0784 25.2086 58.0101Z" fill="black"/>
<path d="M27.8001 58.3234C27.8183 59.1216 27.6326 59.9112 27.2605 60.617C26.5111 58.5231 25.3168 56.6178 23.7603 55.033C24.5528 55.0038 25.3397 55.1778 26.0465 55.5387C26.5632 55.7994 27 56.1957 27.3103 56.6855C27.6211 57.1756 27.7907 57.7426 27.8001 58.3234ZM24.897 62.8768C25.6897 62.8498 26.4765 63.0234 27.1848 63.3816C27.7002 63.6459 28.1365 64.0427 28.4491 64.5315C28.7561 65.0236 28.9252 65.5896 28.9384 66.17C28.9534 66.9671 28.7664 67.7549 28.3948 68.4597C27.6006 68.4899 26.8118 68.3173 26.1022 67.958C25.5867 67.6943 25.1516 67.2959 24.8428 66.805C24.5393 66.3104 24.3722 65.7439 24.3584 65.1634C24.3438 64.3679 24.529 63.5815 24.897 62.8768ZM35.035 37.8684C34.085 38.3182 33.169 38.8371 32.2945 39.421C32.4162 38.6642 32.6943 37.9412 33.1109 37.2986C33.3979 36.8639 33.7916 36.5106 34.2541 36.2728C34.7034 36.0521 35.2042 35.9586 35.7025 36.0022C36.4356 36.0757 37.1562 36.2433 37.8467 36.5008L35.035 37.8684Z" fill="black"/>
<path d="M37.4491 38.8654C37.1507 39.3935 36.7024 39.8206 36.1612 40.092C35.6199 40.3634 35.0104 40.467 34.4103 40.3895C33.6262 40.2798 32.891 39.9432 32.2945 39.421C32.83 39.3727 33.3586 39.2652 33.8707 39.1005C34.3783 38.9379 34.8741 38.7404 35.3546 38.5093C35.8358 38.2713 36.2944 37.99 36.7249 37.6687C37.1661 37.3507 37.5462 36.9549 37.8467 36.5008C38.0165 37.3111 37.8744 38.1558 37.4491 38.8654ZM33.9275 44.2785C32.7559 44.7057 31.5631 45.0832 30.3633 45.5889C30.7074 44.8243 31.1943 44.133 31.7975 43.552C32.239 43.1347 32.7609 42.8124 33.331 42.6047C33.8715 42.4084 34.4477 42.3306 35.0207 42.3767C35.8114 42.4563 36.5948 42.5968 37.3639 42.797C36.2651 43.3933 35.115 43.8891 33.9275 44.2785Z" fill="black"/>
<path d="M36.5615 45.3611C36.0969 45.9291 35.4887 46.3616 34.8006 46.6134C34.1124 46.8652 33.3695 46.927 32.6494 46.7925C31.7846 46.6294 30.9883 46.2101 30.3632 45.5888C31.0105 45.6143 31.6586 45.5641 32.2944 45.4393C32.9295 45.3284 33.5541 45.164 34.1616 44.9479C34.7773 44.736 35.3678 44.4565 35.9224 44.1146C36.489 43.7807 36.9799 43.3319 37.3639 42.7969C37.4136 43.2567 37.368 43.7219 37.2299 44.1631C37.0918 44.6044 36.8643 45.0123 36.5615 45.3611ZM32.5925 49.8195C31.4211 50.2469 30.2282 50.6244 29.0283 51.13C29.3723 50.3635 29.8618 49.6716 30.4696 49.093C30.9076 48.6746 31.4275 48.3521 31.9962 48.1458C32.5368 47.9495 33.1129 47.8718 33.6859 47.9179C34.4765 47.9975 35.2598 48.138 36.0289 48.3381C34.9302 48.9345 33.78 49.4302 32.5925 49.8195Z" fill="black"/>
<path d="M35.2266 50.9021C34.7621 51.4702 34.154 51.9027 33.4658 52.1545C32.7777 52.4063 32.0348 52.4682 31.3147 52.3337C30.4498 52.1705 29.6535 51.7513 29.0283 51.13C29.6757 51.1555 30.3239 51.1053 30.9597 50.9805C31.5948 50.8695 32.2194 50.7051 32.8269 50.4889C33.4426 50.277 34.0332 49.9976 34.5877 49.6556C35.1542 49.3218 35.6451 48.873 36.029 48.3381C36.0788 48.7979 36.0332 49.263 35.8951 49.7043C35.757 50.1455 35.5294 50.5533 35.2266 50.9021ZM31.4707 56.607C30.285 57.1483 29.0425 57.59 27.8 58.1454C28.1475 57.3599 28.6361 56.6453 29.2413 56.0372C29.6776 55.595 30.19 55.2355 30.7537 54.9761C31.2718 54.7465 31.828 54.6161 32.3939 54.5915C33.0044 54.5345 33.6291 54.6555 34.7296 54.506C34.2919 54.9963 33.7761 55.4102 33.2032 55.731C32.6457 56.0612 32.0669 56.3538 31.4707 56.607Z" fill="black"/>
<path d="M34.9357 55.2824C34.9439 55.535 34.9272 55.7878 34.8859 56.0372C34.786 56.4975 34.6005 56.9349 34.3392 57.3264C33.8811 58.0145 33.2354 58.5559 32.4791 58.8861C31.7771 59.1977 31.0057 59.3181 30.2425 59.2353C29.3367 59.1302 28.4845 58.7499 27.8001 58.1454C28.4822 58.1451 29.1618 58.0614 29.8237 57.8962C30.4887 57.7451 31.1378 57.5304 31.762 57.2551C32.3991 56.9825 32.9944 56.6204 33.5299 56.1798C34.0886 55.7556 34.5067 55.1723 34.7298 54.506C34.7833 54.631 34.8284 54.7595 34.8648 54.8906C34.8958 55.0197 34.9195 55.1505 34.9357 55.2824ZM27.7717 66.2579C27.8104 65.4741 27.9815 64.7025 28.2777 63.976C28.4719 63.4971 28.7635 63.064 29.1338 62.7043C29.4668 62.3994 29.8678 62.1791 30.3032 62.0619C30.9905 61.9328 31.655 61.7027 32.2753 61.3791C32.3784 61.4559 32.4765 61.5392 32.5691 61.6284C32.6522 61.7229 32.7298 61.8222 32.8014 61.9258C32.9217 62.1328 33.0156 62.3542 33.0808 62.5848C33.1859 63.0166 33.1945 63.4663 33.1061 63.9018C32.9638 64.6518 32.582 65.335 32.0184 65.8481C31.5102 66.3191 30.8715 66.6242 30.1867 66.7231C29.3526 66.838 28.504 66.6746 27.7717 66.2579ZM34.6375 31.3941C34.2244 32.5332 33.9433 33.7162 33.7998 34.9197C33.2845 34.2656 32.9425 33.4914 32.8057 32.6691C32.7056 32.0464 32.7568 31.4087 32.9548 30.8101C33.1607 30.2128 33.5122 29.6766 33.9773 29.2503C34.5919 28.6907 35.3363 28.294 36.1427 28.0964C35.5181 29.1349 35.0131 30.2413 34.6375 31.3941Z" fill="black"/>
<path d="M36.9876 32.206C36.7778 32.8011 36.424 33.3346 35.9581 33.7588C35.3476 34.322 34.6052 34.7213 33.7998 34.9197C34.4188 33.8783 34.9235 32.7726 35.3049 31.6221C35.7172 30.4828 35.9983 29.2999 36.1427 28.0964C36.6596 28.7504 37.0039 29.5245 37.1439 30.3472C37.245 30.9703 37.1913 31.6087 36.9876 32.206Z" fill="black"/>
<path d="M24.8972 62.8767C25.6823 63.6581 26.3704 64.5319 26.9464 65.4789C27.5486 66.4096 28.035 67.4106 28.3948 68.4598C27.6086 67.6795 26.9204 66.8056 26.3456 65.8576C25.7448 64.9262 25.2584 63.9253 24.8972 62.8767ZM27.7717 66.2579C28.6364 65.4589 29.5252 64.7733 30.3359 64.0143C30.7465 63.6512 31.1267 63.255 31.4729 62.8298C31.8328 62.4038 32.1055 61.9108 32.2753 61.3791C32.3746 61.9859 32.2545 62.6083 31.9366 63.1341C31.645 63.6622 31.2662 64.1369 30.8165 64.538C30.3806 64.9359 29.9023 65.2842 29.3901 65.5766C28.884 65.8763 28.3395 66.1055 27.7717 66.2579Z" fill="white"/>
<path d="M24.0156 71.5425C24.1293 71.7633 24.2357 71.9913 24.3424 72.2119C24.463 72.4684 24.5838 72.7177 24.7044 72.974C24.9173 73.4228 25.1303 73.8643 25.3363 74.3131C25.5209 73.8217 25.7126 73.3373 25.8972 72.8531C26.0107 72.5754 26.1244 72.2904 26.238 72.0127C26.2806 71.8917 26.3304 71.7776 26.38 71.6566C25.592 71.6351 24.8037 71.5995 24.0156 71.5425ZM27.0757 72.732L26.8913 72.2832C26.8273 72.447 26.7634 72.6108 26.6996 72.7746C26.4226 73.4799 26.1456 74.1848 25.8545 74.8828C26.5503 74.8545 27.2463 74.8331 27.9421 74.8259L27.0757 72.732ZM29.3265 71.6777C28.9856 71.6777 28.6448 71.6851 28.297 71.692C27.9987 71.685 27.7006 71.685 27.3953 71.6777L27.4733 71.8774L27.7645 72.6678L28.3964 74.3559L29.078 72.5397L29.3975 71.6778L29.3265 71.6777ZM29.9299 72.4541L29.7808 72.0339L29.6246 72.4827L28.8222 74.833C29.4827 74.8401 30.1429 74.8544 30.8102 74.8827L29.9299 72.4541ZM30.1358 71.6637L30.3844 72.4115L31.1298 74.6692L32.1736 72.2404L32.4646 71.5567C31.6908 71.6066 30.9099 71.6423 30.1359 71.6637H30.1358ZM32.8978 72.1693L32.6777 71.6281L32.4504 72.2119L31.4067 74.9113C32.3013 74.9612 33.203 75.0396 34.1047 75.1678L32.8978 72.1693ZM24.0155 71.5425C24.1292 71.7633 24.2356 71.9913 24.3423 72.2119C24.4629 72.4684 24.5837 72.7178 24.7044 72.9741C24.9172 73.4229 25.1303 73.8644 25.3362 74.3132C25.5208 73.8218 25.7125 73.3373 25.8971 72.8531C26.0106 72.5754 26.1244 72.2904 26.2379 72.0127C26.2806 71.8917 26.3303 71.7776 26.3799 71.6566C25.592 71.6351 24.8037 71.5995 24.0156 71.5425L24.0155 71.5425ZM27.0756 72.732L26.8912 72.2832C26.8273 72.4471 26.7634 72.6109 26.6995 72.7746C26.4225 73.4799 26.1455 74.1848 25.8545 74.8828C26.5503 74.8545 27.2462 74.8331 27.942 74.826L27.0756 72.732ZM29.3265 71.6778C28.9855 71.6778 28.6447 71.6851 28.297 71.692C27.9986 71.6851 27.7005 71.6851 27.3953 71.6778L27.4733 71.8774L27.7645 72.6679L28.3963 74.3559L29.0779 72.5398L29.3974 71.6778L29.3265 71.6778ZM29.9299 72.4542L29.7808 72.0339L29.6246 72.4827L28.8222 74.833C29.4826 74.8402 30.1428 74.8544 30.8102 74.8828L29.9299 72.4542ZM30.1358 71.6637L30.3843 72.4115L31.1297 74.6692L32.1735 72.2404L32.4646 71.5567C31.6908 71.6066 30.9099 71.6423 30.1359 71.6637L30.1358 71.6637ZM32.8978 72.1694L32.6776 71.6281L32.4504 72.212L31.4067 74.9113C32.3013 74.9612 33.203 75.0397 34.1047 75.1678L32.8978 72.1694ZM23.6394 71.8559C23.5612 72.0056 23.4761 72.1622 23.3979 72.3118L23.8026 72.269C23.7459 72.1337 23.6963 71.9913 23.6395 71.8558L23.6394 71.8559ZM24.0155 71.5425C24.1292 71.7633 24.2356 71.9913 24.3423 72.212C24.4629 72.4684 24.5837 72.7178 24.7043 72.9741C25.102 72.9315 25.4995 72.8887 25.8971 72.8531C26.0106 72.5754 26.1243 72.2904 26.2379 72.0127C26.2805 71.8917 26.3303 71.7776 26.3799 71.6566C25.592 71.6351 24.8037 71.5995 24.0156 71.5425L24.0155 71.5425ZM26.8912 72.2832C26.8273 72.4471 26.7634 72.6109 26.6995 72.7746C26.8202 72.7604 26.9479 72.7461 27.0757 72.732L26.8912 72.2832ZM28.297 71.692C27.9987 71.6851 27.7005 71.6851 27.3953 71.6778L27.4733 71.8774C28.0911 71.8132 28.7087 71.7419 29.3265 71.6778C28.9856 71.6777 28.6448 71.685 28.2971 71.692L28.297 71.692ZM20.1958 61.1939L21.772 71.3359C22.3685 71.2577 22.9648 71.2006 23.5541 71.1509C23.5814 71.131 23.6131 71.1181 23.6465 71.1131C23.6798 71.1081 23.7139 71.1113 23.7458 71.1224L23.76 71.1367C24.7681 71.0654 25.7694 71.0155 26.7704 70.9941C26.8447 70.9728 26.9234 70.9728 26.9976 70.9941C27.4306 70.9871 27.8639 70.9798 28.297 70.9798C30.0862 70.9871 31.8681 71.0297 33.6503 71.2007C34.0408 71.2434 34.4384 71.2862 34.829 71.3359L34.8714 71.0654L36.398 61.194L20.1958 61.1939ZM22.7021 70.7449C22.4264 70.7348 22.1653 70.6178 21.9738 70.4186C21.7823 70.2193 21.6753 69.9533 21.6753 69.6765C21.6753 69.3998 21.7823 69.1338 21.9738 68.9345C22.1653 68.7353 22.4264 68.6183 22.7021 68.6082C22.9778 68.6184 23.2387 68.7354 23.4302 68.9346C23.6216 69.1338 23.7286 69.3998 23.7286 69.6765C23.7286 69.9532 23.6217 70.2191 23.4302 70.4184C23.2388 70.6176 22.9779 70.7346 22.7022 70.7449L22.7021 70.7449ZM26.5362 70.7449C26.2605 70.7348 25.9994 70.6178 25.8079 70.4186C25.6164 70.2193 25.5094 69.9533 25.5094 69.6765C25.5094 69.3998 25.6164 69.1338 25.8079 68.9345C25.9994 68.7353 26.2605 68.6183 26.5362 68.6082C26.812 68.6181 27.0732 68.735 27.2649 68.9343C27.4565 69.1335 27.5636 69.3996 27.5636 69.6765C27.5636 69.9533 27.4566 70.2194 27.265 70.4187C27.0733 70.618 26.8121 70.7349 26.5363 70.7449L26.5362 70.7449ZM30.2422 70.6167C29.9665 70.6066 29.7054 70.4897 29.5139 70.2904C29.3224 70.0912 29.2154 69.8252 29.2154 69.5484C29.2154 69.2716 29.3224 69.0056 29.5139 68.8064C29.7054 68.6071 29.9665 68.4901 30.2422 68.48C30.5179 68.4902 30.7789 68.6072 30.9703 68.8065C31.1617 69.0057 31.2687 69.2716 31.2687 69.5483C31.2687 69.825 31.1618 70.0909 30.9704 70.2902C30.779 70.4894 30.518 70.6065 30.2424 70.6167L30.2422 70.6167ZM33.8846 70.7449C33.6089 70.7348 33.3478 70.6178 33.1563 70.4186C32.9648 70.2193 32.8578 69.9533 32.8578 69.6765C32.8578 69.3998 32.9648 69.1338 33.1563 68.9345C33.3478 68.7353 33.6089 68.6183 33.8846 68.6082C34.1603 68.6184 34.4212 68.7354 34.6127 68.9346C34.8041 69.1338 34.9111 69.3998 34.9111 69.6765C34.9111 69.9532 34.8042 70.2191 34.6127 70.4184C34.4213 70.6176 34.1604 70.7346 33.8847 70.7449L33.8846 70.7449ZM32.8978 72.1693L32.6776 71.6281L32.4504 72.2119L31.4067 74.9113C32.3013 74.9612 33.203 75.0396 34.1047 75.1678L32.8978 72.1693ZM30.1358 71.6637L30.3843 72.4115L31.1297 74.6692L32.1736 72.2404L32.4646 71.5567C31.6908 71.6066 30.9099 71.6423 30.1359 71.6637H30.1358ZM29.9299 72.4541L29.7808 72.0339L29.6246 72.4827L28.8222 74.833C29.4826 74.8401 30.1429 74.8544 30.8102 74.8827L29.9299 72.4541ZM29.3265 71.6777C28.9855 71.6777 28.6447 71.6851 28.297 71.692C27.9987 71.685 27.7005 71.685 27.3953 71.6777L27.4733 71.8774L27.7645 72.6678L28.3963 74.3559L29.0779 72.5397L29.3974 71.6778L29.3265 71.6777ZM27.0757 72.732L26.8912 72.2832C26.8273 72.447 26.7634 72.6108 26.6995 72.7746C26.4225 73.4799 26.1455 74.1848 25.8545 74.8828C26.5503 74.8545 27.2462 74.8331 27.942 74.8259L27.0757 72.732ZM24.0156 71.5425C24.1293 71.7633 24.2357 71.9913 24.3423 72.2119C24.4629 72.4684 24.5838 72.7177 24.7044 72.974C24.9173 73.4228 25.1303 73.8643 25.3362 74.3131C25.5208 73.8217 25.7125 73.3373 25.8971 72.8531C26.0107 72.5754 26.1244 72.2904 26.2379 72.0127C26.2806 71.8917 26.3303 71.7776 26.3799 71.6566C25.592 71.6351 24.8037 71.5995 24.0156 71.5425H24.0156ZM32.8978 72.1693L32.6777 71.628L32.4505 72.2119L31.4068 74.9113C32.3014 74.9612 33.2031 75.0396 34.1048 75.1678L32.8978 72.1693ZM30.1358 71.6636L30.3844 72.4115L31.1298 74.6692L32.1736 72.2404L32.4647 71.5566C31.6908 71.6066 30.9099 71.6423 30.1359 71.6637L30.1358 71.6636ZM29.9299 72.4541L29.7808 72.0338L29.6246 72.4826L28.8223 74.833C29.4827 74.8401 30.1429 74.8544 30.8103 74.8827L29.9299 72.4541ZM29.3266 71.6777C28.9856 71.6777 28.6448 71.685 28.297 71.692C27.9987 71.685 27.7006 71.685 27.3954 71.6777L27.4734 71.8773L27.7646 72.6678L28.3964 74.3559L29.078 72.5397L29.3975 71.6778L29.3266 71.6777ZM27.0757 72.732L26.8913 72.2832C26.8273 72.447 26.7634 72.6108 26.6996 72.7746C26.4226 73.4799 26.1456 74.1848 25.8546 74.8828C26.5504 74.8544 27.2463 74.833 27.9421 74.8259L27.0757 72.732ZM24.0156 71.5424C24.1293 71.7633 24.2357 71.9912 24.3424 72.2119C24.463 72.4684 24.5838 72.7177 24.7045 72.974C24.9173 73.4228 25.1304 73.8643 25.3363 74.3131C25.5209 73.8217 25.7126 73.3373 25.8972 72.853C26.0107 72.5753 26.1244 72.2904 26.238 72.0127C26.2806 71.8916 26.3304 71.7776 26.38 71.6565C25.592 71.6351 24.8037 71.5995 24.0156 71.5425L24.0156 71.5424ZM29.3266 71.6777C28.7088 71.7419 28.0912 71.8132 27.4734 71.8773L27.7646 72.6678C28.1976 72.625 28.6379 72.5823 29.078 72.5397L29.3975 71.6777H29.3266ZM29.7809 72.0338L29.6247 72.4826C29.724 72.4755 29.8306 72.4684 29.93 72.4541L29.7809 72.0338ZM30.1359 71.6636L30.3845 72.4115L32.1737 72.2404L32.4647 71.5566C31.6907 71.6066 30.9099 71.6423 30.1359 71.6637L30.1359 71.6636ZM32.6778 71.628L32.4505 72.2119C32.5996 72.1978 32.7487 72.1836 32.8979 72.1693L32.6778 71.628ZM32.8624 71.5282L33.0896 72.1551L34.1758 75.1678V75.1749C34.195 75.1738 34.2143 75.1762 34.2326 75.182L34.7296 71.9984L34.8291 71.3359C34.1688 71.4214 33.5155 71.4785 32.8624 71.5282L32.8624 71.5282ZM34.1688 75.1892C34.1688 75.1963 34.1688 75.2105 34.1546 75.2105C34.147 75.2137 34.1385 75.2141 34.1306 75.2114C34.1228 75.2088 34.1162 75.2034 34.112 75.1963C32.1829 75.4343 30.2407 75.5485 28.2971 75.5382C27.3812 75.531 26.4653 75.5097 25.5493 75.4669C25.5039 75.5006 25.4505 75.5216 25.3944 75.5278C25.3383 75.5341 25.2815 75.5253 25.2298 75.5025C25.1998 75.486 25.1713 75.4669 25.1446 75.4454C24.2216 75.3886 23.2916 75.3102 22.3685 75.182L22.8442 78.2446H33.7569L34.2326 75.182C34.2111 75.1808 34.1895 75.1833 34.1688 75.1892L34.1688 75.1892ZM25.1232 77.9739C24.8469 77.9648 24.5849 77.8482 24.3926 77.6488C24.2004 77.4495 24.0929 77.183 24.0929 76.9056C24.0929 76.6282 24.2004 76.3617 24.3926 76.1623C24.5849 75.963 24.8469 75.8464 25.1232 75.8372C25.3996 75.8464 25.6616 75.963 25.8539 76.1623C26.0461 76.3617 26.1536 76.6282 26.1536 76.9056C26.1536 77.183 26.0461 77.4495 25.8539 77.6488C25.6616 77.8482 25.3996 77.9648 25.1232 77.9739ZM28.7017 77.9739C28.4253 77.9648 28.1633 77.8482 27.971 77.6488C27.7788 77.4495 27.6713 77.183 27.6713 76.9056C27.6713 76.6282 27.7788 76.3617 27.971 76.1623C28.1633 75.963 28.4253 75.8464 28.7017 75.8372C28.978 75.8464 29.24 75.963 29.4323 76.1623C29.6245 76.3617 29.732 76.6282 29.732 76.9056C29.732 77.183 29.6245 77.4495 29.4323 77.6488C29.24 77.8482 28.978 77.9648 28.7017 77.9739ZM32.28 77.8458C32.0037 77.8366 31.7417 77.72 31.5494 77.5207C31.3572 77.3213 31.2497 77.0548 31.2497 76.7774C31.2497 76.5 31.3572 76.2335 31.5494 76.0342C31.7417 75.8348 32.0037 75.7182 32.28 75.7091C32.5564 75.7182 32.8184 75.8348 33.0107 76.0342C33.2029 76.2335 33.3104 76.5 33.3104 76.7774C33.3104 77.0548 33.203 77.3213 33.0107 77.5207C32.8184 77.72 32.5565 77.8366 32.2801 77.8458H32.28ZM32.8978 72.1693L32.6777 71.628L32.4504 72.2119L31.4067 74.9113C32.3013 74.9612 33.203 75.0396 34.1047 75.1677L32.8978 72.1693ZM30.1358 71.6636L30.3844 72.4115L31.1298 74.6692L32.1736 72.2404L32.4647 71.5566C31.6907 71.6066 30.9099 71.6423 30.1359 71.6637L30.1358 71.6636ZM29.9299 72.4541L29.7808 72.0338L29.6246 72.4826L28.8223 74.833C29.4827 74.8401 30.1429 74.8543 30.8103 74.8827L29.9299 72.4541ZM29.3265 71.6777C28.9856 71.6777 28.6448 71.685 28.297 71.6919C27.9987 71.685 27.7006 71.685 27.3953 71.6777L27.4733 71.8773L27.7646 72.6678L28.3964 74.3559L29.078 72.5397L29.3975 71.6777L29.3265 71.6777ZM27.0757 72.732L26.8913 72.2832C26.8273 72.447 26.7634 72.6108 26.6996 72.7746C26.4226 73.4798 26.1456 74.1848 25.8546 74.8828C26.5504 74.8544 27.2463 74.833 27.9421 74.8259L27.0757 72.732ZM24.0156 71.5424C24.1293 71.7632 24.2357 71.9912 24.3424 72.2119C24.463 72.4684 24.5838 72.7177 24.7045 72.974C24.9173 73.4228 25.1304 73.8643 25.3363 74.3131C25.5209 73.8217 25.7126 73.3372 25.8972 72.853C26.0107 72.5753 26.1244 72.2904 26.238 72.0126C26.2806 71.8916 26.3304 71.7775 26.38 71.6565C25.592 71.6351 24.8037 71.5995 24.0156 71.5425L24.0156 71.5424ZM24.108 73.031C24.0087 72.7819 23.9021 72.5254 23.8028 72.2689C23.7459 72.1336 23.6963 71.9912 23.6395 71.8558C23.5613 72.0055 23.4762 72.1621 23.398 72.3117C23.256 72.5895 23.107 72.8672 22.9579 73.1449C22.7377 73.5652 22.5105 73.9854 22.2763 74.4056C22.2734 74.4083 22.2701 74.4103 22.2663 74.4116C22.2626 74.4128 22.2587 74.4132 22.2548 74.4127L22.3685 75.182C23.2062 75.0608 24.0513 74.9897 24.889 74.9326C24.6334 74.2989 24.3706 73.6649 24.108 73.0311L24.108 73.031ZM24.7045 72.974C24.9173 73.4228 25.1304 73.8643 25.3363 74.3131C25.5209 73.8217 25.7126 73.3372 25.8972 72.853C25.4996 72.8887 25.1021 72.9314 24.7045 72.974L24.7045 72.974ZM27.0758 72.732C26.948 72.746 26.8203 72.7603 26.6996 72.7746C26.4226 73.4798 26.1456 74.1848 25.8546 74.8828C26.5504 74.8544 27.2463 74.833 27.9421 74.8259L27.0758 72.732ZM27.7646 72.6678L28.3964 74.3559L29.078 72.5397C28.6379 72.5823 28.1976 72.6251 27.7646 72.6678L27.7646 72.6678ZM29.93 72.4541C29.8306 72.4684 29.7241 72.4755 29.6247 72.4826L28.8223 74.833C29.4828 74.8401 30.143 74.8543 30.8103 74.8827L29.93 72.4541ZM30.3845 72.4115L31.1298 74.6692L32.1737 72.2404L30.3845 72.4115ZM32.8979 72.1693C32.7488 72.1835 32.5997 72.1977 32.4505 72.2119L31.4068 74.9113C32.3014 74.9612 33.2031 75.0396 34.1048 75.1677L32.8979 72.1693ZM21.772 71.3359L21.9495 72.4684L22.0631 73.2377L22.2337 74.3131C22.3828 73.9285 22.5318 73.551 22.6809 73.1735C22.7873 72.8958 22.901 72.6251 23.0146 72.3545C23.1281 72.0697 23.2418 71.7847 23.3625 71.4997C22.8299 71.4571 22.3045 71.4 21.772 71.3359Z" fill="black"/>
<path d="M29.2824 69.7163C28.6898 69.1817 28.2509 68.4975 28.0116 67.7349C27.9 67.3546 27.7553 66.978 27.6701 66.5893L27.4299 65.4174C27.2339 63.8392 27.174 62.2471 27.251 60.6587C27.2789 59.0674 27.516 57.4997 27.6998 55.9255C27.9873 54.3714 28.2088 52.7994 28.585 51.2653C28.9379 49.7248 29.2909 48.1847 29.7369 46.6709C30.1666 45.1522 30.5793 43.6295 31.1088 42.1431C31.6209 40.6519 32.0804 39.1443 32.6498 37.6748C33.226 36.2074 33.7729 34.7313 34.3732 33.2759C33.538 36.3164 32.571 39.3057 31.7578 42.3398L31.1253 44.6071L30.5431 46.8863C30.355 47.6471 30.1279 48.3986 29.9589 49.1633L29.4451 51.4555C29.0548 52.9745 28.835 54.5233 28.5214 56.0566C28.2912 57.6005 28.0491 59.1457 27.9246 60.7C27.7715 62.2508 27.7486 63.8116 27.8563 65.3662L27.9943 66.5232C28.0454 66.9087 28.1548 67.2807 28.2326 67.6631C28.4098 68.4233 28.7703 69.1284 29.2824 69.7163Z" fill="black"/>
<path d="M22.248 74.3914L22.2338 74.3131L22.2125 74.3771C22.2054 74.3914 22.2125 74.4056 22.2267 74.4199C22.2407 74.427 22.248 74.4199 22.255 74.4128L22.248 74.3914Z" fill="#FCFCFC"/>
<path d="M47.373 75.7636C49.7015 75.1207 52.0636 74.6076 54.4486 74.2266C56.8284 73.8138 59.2294 73.5351 61.6403 73.3918C59.3123 74.0364 56.95 74.5496 54.5647 74.929C52.1847 75.3402 49.7838 75.6189 47.373 75.7636ZM75.5543 75.4515C77.8827 74.8084 80.2448 74.2953 82.6298 73.9145C85.0096 73.5016 87.4105 73.2229 89.8214 73.0797C87.4933 73.7243 85.1311 74.2374 82.7458 74.6167C80.3658 75.0279 77.965 75.3066 75.5543 75.4515ZM104.451 70.4278C106.78 69.7848 109.142 69.2717 111.527 68.8908C113.907 68.4779 116.308 68.1992 118.719 68.056C116.39 68.7006 114.028 69.2137 111.643 69.593C109.263 70.0042 106.862 70.2829 104.451 70.4278ZM225.126 115.434C223.643 114.425 222.337 113.176 221.26 111.74C220.157 110.331 219.162 108.839 218.284 107.278C217.402 105.723 216.604 104.122 215.869 102.494C215.133 100.862 214.447 99.2239 213.834 97.5225L214.509 97.945C210.95 98.4072 207.333 98.0933 203.906 97.0247C202.204 96.5243 200.54 95.9019 198.926 95.1623C197.313 94.4431 195.741 93.6313 194.22 92.7309C191.189 90.9425 188.306 88.9109 185.601 86.6559C182.897 84.4138 180.339 81.9994 177.943 79.4277L177.932 79.4152C177.847 79.3231 177.801 79.202 177.802 79.0767C177.803 78.9514 177.852 78.8313 177.939 78.7411C178.973 77.6682 180.043 76.6715 181.153 75.7014C182.257 74.7287 183.422 73.8268 184.612 72.9598C185.801 72.0822 187.067 71.3147 188.395 70.6667C189.723 69.9571 191.191 69.551 192.694 69.4774C192.723 69.4774 192.752 69.4821 192.78 69.4915C194.19 69.9811 195.612 70.4352 197.028 70.9086L201.28 72.3152C204.11 73.2658 206.959 74.1601 209.802 75.0712L209.255 75.3693L212.984 59.7082C214.241 54.4915 215.522 49.2809 216.826 44.0764L216.809 44.1586C216.9 43.7115 217.04 43.2759 217.227 42.8597C217.389 42.4711 217.581 42.1085 217.773 41.7447C218.172 41.0432 218.62 40.3701 219.112 39.7303C220.078 38.4743 221.155 37.3081 222.33 36.2458C224.649 34.1527 227.17 32.2975 229.857 30.7078C231.2 29.898 232.593 29.1726 234.026 28.5358C235.465 27.9118 236.941 27.3767 238.445 26.9334C241.455 26.0391 244.575 25.5736 247.715 25.5505C250.849 25.5177 253.973 25.9373 256.988 26.7964C258.499 27.2292 259.968 27.7934 261.381 28.4827C261.73 28.6658 262.07 28.8688 262.414 29.0609L262.928 29.3532L263.417 29.6891C263.741 29.9161 264.072 30.1315 264.389 30.368L265.298 31.1319C267.677 33.235 269.367 36.0106 270.145 39.0944C270.822 42.1277 270.908 45.2636 270.399 48.3297C270.397 48.3412 270.393 48.3523 270.387 48.3622C270.381 48.3722 270.374 48.3809 270.364 48.3878C270.355 48.3947 270.344 48.3997 270.333 48.4025C270.322 48.4053 270.31 48.4059 270.299 48.4041C270.277 48.4005 270.257 48.3888 270.243 48.3712C270.229 48.3537 270.222 48.3315 270.224 48.3092C270.52 45.2806 270.256 42.2233 269.446 39.2907C268.581 36.4259 266.884 33.8844 264.574 31.9902L263.698 31.3129C263.393 31.1044 263.073 30.9159 262.763 30.7165L262.294 30.421L261.8 30.1673C261.469 30.0006 261.145 29.8232 260.811 29.6648C259.455 29.0518 258.051 28.5549 256.612 28.1795C253.719 27.4334 250.734 27.1087 247.749 27.2151C246.26 27.2609 244.777 27.4122 243.309 27.6679C241.84 27.9083 240.388 28.2478 238.964 28.6841C237.54 29.1219 236.145 29.6463 234.785 30.2544C233.43 30.8735 232.109 31.5651 230.827 32.3263C228.249 33.8596 225.817 35.6265 223.56 37.6049C222.45 38.5801 221.429 39.6535 220.51 40.8122C220.06 41.3798 219.649 41.9776 219.281 42.6016C219.112 42.9137 218.94 43.2252 218.803 43.5425C218.673 43.8245 218.569 44.1176 218.491 44.4182L218.474 44.5008C217.115 49.6914 215.735 54.8764 214.333 60.0556L210.078 75.5813L210.074 75.5946C210.06 75.6479 210.035 75.6977 210.001 75.7412C209.967 75.7848 209.925 75.8212 209.877 75.8485C209.83 75.8758 209.777 75.8933 209.722 75.9002C209.668 75.907 209.612 75.903 209.559 75.8883L209.531 75.8795C206.717 74.8812 203.908 73.8661 201.081 72.9073L196.847 71.4498C195.434 70.9686 194.027 70.4678 192.609 70.0029L192.694 70.0168C191.276 70.1036 189.894 70.5022 188.647 71.1842C187.366 71.8429 186.149 72.6204 185.012 73.5065C183.861 74.3829 182.759 75.323 181.712 76.3225C180.663 77.3161 179.637 78.354 178.687 79.4229L178.682 78.7362C181.137 81.1689 183.744 83.4426 186.486 85.5434C189.201 87.6655 192.05 89.6089 195.016 91.3611C196.499 92.2253 198.01 93.0377 199.566 93.7487C201.109 94.4757 202.703 95.0903 204.335 95.5877C207.556 96.6533 210.964 97.0355 214.34 96.7097L214.365 96.7071C214.505 96.6921 214.647 96.7262 214.765 96.8037C214.883 96.8811 214.972 96.9972 215.015 97.1323C215.542 98.7899 216.165 100.451 216.827 102.078C217.491 103.709 218.217 105.314 219.027 106.875C219.801 108.454 220.691 109.972 221.69 111.417C222.669 112.877 223.86 114.182 225.225 115.287C225.244 115.301 225.256 115.322 225.26 115.345C225.264 115.368 225.258 115.392 225.244 115.411C225.231 115.429 225.211 115.441 225.189 115.445C225.167 115.449 225.145 115.445 225.126 115.434Z" fill="black"/>
</g>
<defs>
<clipPath id="clip0_1_160">
<rect width="284" height="198" fill="white"/>
</clipPath>
</defs>
</svg>
