<svg xmlns="http://www.w3.org/2000/svg" data-name="Layer 1" viewBox="0 0 700 550" id="small-team-discussing-ideas"><path fill="none" d="M468.49022,276.57077c-.12678-.67009-.2445-1.34924-.37127-2.01934-.02717-.13583-.04528-.27166-.07244-.40749"></path><path fill="#020202" d="M468.36334,278.02863c.04532-.48.09064-.96887.1269-1.45779.25357,1.4306.50715,2.87048.824,4.28317l1.33111,6.27529c.46206,2.08277.90554,4.1745,1.31321,6.26623a.26933.26933,0,0,0,.24451.21743h.00884c.27171.02708.53435.05427.806.09053l.09064,2.49022-.86928.34411c-3.26,1.304-7.60662-1.08671-7.60662-1.08671a5.82668,5.82668,0,0,0,.308-2.03745,39.37836,39.37836,0,0,0,1.60282-5.05285q.65195-2.54,1.10472-5.12535C467.95589,281.506,468.19134,279.77636,468.36334,278.02863Z"></path><path fill="#020202" d="M499.3328 225.97851v-.00907c-.172-.36212-.25357-.55225-.25357-.55225l-.00907-.00906a15.08552 15.08552 0 00-5.20682-1.61188c-.02719 0-.05439-.00907-.07251-.00907a37.05258 37.05258 0 00-4.05678-.50715.33852.33852 0 00-.09949-.00906c-3.59517-.24451-7.208.06345-8.91054 1.53936l-.00906.00907a52.473 52.473 0 01-4.8898 3.6312c-.04532.02719-.08158.06345-.1269.09064-3.26 2.19133-6.52887 4.12918-6.83683 4.31036-.00907.00906-.01791.01813-.0272.01813-3.12405 1.974-4.85354 5.38788-5.80439 8.49381-.0272.08157-.04533.154-.0723.23544a.1126.1126 0 01-.00928.05439c-.03626 1.476-.11762 2.943-.23523 4.41q-.29912 3.68094-.95992 7.32574c-.21732 1.22256-.489 2.42678-.797 3.63121a18.18434 18.18434 0 01-1.313 3.59494c-.2717.57061-.59757 1.141-.89647 1.66627a14.72842 14.72842 0 00-1.6751 4.85354 18.57014 18.57014 0 00.23522 6.95467A32.92549 32.92549 0 00461.59 284.15005a.18969.18969 0 01.03625.05439c.03626.05438.07252.11772.10877.172.0451.07251.09949.154.14481.23545.02719.03625.04532.07251.07251.10877a.06837.06837 0 01.01813.03614 1.47169 1.47169 0 00.09042.163c.09064.16293.19941.344.308.5433.172.326.37119.69717.57945 1.11379v.00906c.10877.20826.20825.42558.317.64289.08158.163.15387.33505.22639.50705.08157.18117.16293.37141.23544.56153a.78423.78423 0 01.06345.15387c.10855.27171.21732.55248.31681.83314.01813.05427.03626.09959.05438.154.07252.20825.14481.41651.20826.63383a.23045.23045 0 00.01813.06345.06841.06841 0 01.00906.03614.13088.13088 0 01.01813.06334c.05439.18117.10877.37141.16293.56154-.00906.00906 0 .00906 0 .01813v.00906c.05439.20826.09971.41651.14481.63383.02741.12668.05439.26264.07251.39838.0272.163.05439.32609.07252.489.02719.24451.05438.48.06345.71541a40.64844 40.64844 0 01.22638-4.94419c.172-1.73878.40745-3.47733.70634-5.19776q.448-2.581 1.10473-5.13453c.3168-1.22234.661-2.43584 1.07753-3.64016-.33493-1.97411-.5706-3.96625-.80583-5.95838a93.81973 93.81973 0 01-.40766-12.86772 49.53033 49.53033 0 01.68821-6.42021c.09064-.52528.19035-1.05952.33516-1.58469.12667-.52528.23544-1.05045.40744-1.55749a11.71151 11.71151 0 011.24069-2.99738.0889.0889 0 01.11762-.03625.09914.09914 0 01.03625.11783v.00907a21.66685 21.66685 0 00-1.26766 6.17558 61.27592 61.27592 0 00-.26264 6.32979c.01813 4.22889.344 8.4486.72425 12.67749l.661 6.32968c.25358 2.10986.44393 4.22889.76073 6.33874.308 2.1008.57061 4.21983.969 6.31156.39838 2.02838.79676 4.03876 1.2314 6.05808 4.093.36213 8.23139.498 12.33349.45277 2.08278-.03626 4.16555-.09064 6.22113-.28077a29.47056 29.47056 0 003.01528-.43464 7.60875 7.60875 0 002.2729-.76979l2.60784-21.88671 1.26788-11.12906c.18106-1.85628.35306-3.71267.489-5.569.16294-1.86545.22639-3.72184.21732-5.58719v-.00906a.09728.09728 0 01.09064-.09053.08937.08937 0 01.09043.08147 71.93783 71.93783 0 01.28076 11.25584c-.11783 3.74882-.38931 7.48879-.69728 11.22854-.33515 3.73091-.68821 7.4616-1.15911 11.17438-.43464 3.72174-.99617 7.41628-1.5303 11.12906l-.00906.06334a.71357.71357 0 01-.2989.47985 7.49224 7.49224 0 01-3.22376 1.22256v1.79294c10.32323-.45277 16.64385-4.3738 20.07586-7.48879v-.00906a21.1862 21.1862 0 002.39052-2.51742 11.54209 11.54209 0 00.969-1.37643A318.64161 318.64161 0 00499.3328 225.97851zm-24.37692 64.02126a1.35916 1.35916 0 010-2.7166A1.35916 1.35916 0 01474.95588 289.99977zm6.51958.32609a1.35916 1.35916 0 010-2.7166A1.35916 1.35916 0 01481.47546 290.32586zm5.542 0a1.35916 1.35916 0 010-2.7166A1.35916 1.35916 0 01487.01744 290.32586zm5.542-.32609a1.35916 1.35916 0 010-2.7166A1.35916 1.35916 0 01492.55942 289.99977zM222.26613 373.97917c-.19013 1.04139-4.49142 1.88347-9.77054 1.88347-5.39717 0-9.77982-.87834-9.77982-1.95587a1.28727 1.28727 0 00-1.28578 1.322l.60663 23.43514a1.30248 1.30248 0 00.59758 1.05963 17.9492 17.9492 0 0019.84041-.54341 1.28614 1.28614 0 00.56131-1.06847V375.07483A1.16709 1.16709 0 00222.26613 373.97917zM211.092 396.73527a5.562 5.562 0 01-5.14337-2.53555 10.03907 10.03907 0 01-1.71159-7.362 14.196 14.196 0 011.58469-4.78114 5.001 5.001 0 014.79938-2.55367 1.97059 1.97059 0 011.96494 1.467 2.35865 2.35865 0 01-.688 2.1008c-1.46707 1.49426-4.82657 5.60531-1.24975 8.657C213.98964 394.58009 213.60032 396.4545 211.092 396.73527zM222.68286 321.85665c-5.95849.08135-11.91676.35306-17.85712.85115a10.92389 10.92389 0 001.838-4.43715c.489-4.56382 7.28054-8.80188 7.28054-8.80188l-.027-1.22234 5.9492-1.05951a12.1279 12.1279 0 009.77982 6.19382c6.8459.36224 31.31346-10.54032 34.39219-12.06178 22.16748 12.22472 11.57277 27.05749 11.57277 27.05749a18.262 18.262 0 00-4.04772-1.9289c-1.41269-.507-2.86141-.90554-4.31035-1.27673-2.9158-.69727-5.86785-1.19536-8.838-1.60281-5.92223-.824-11.8805-1.22245-17.84806-1.50311C234.60868 321.82945 228.65041 321.74788 222.68286 321.85665z"></path><path fill="#020202" d="M266.48346 363.42061H187.539s1.27673-15.42129.48-17.44968c3.74882-12.06167 11.63621-17.2685 11.63621-17.2685a34.941 34.941 0 005.17057-5.99463q8.93741.31237 17.84806.55236c5.9492.18117 11.88956.34411 17.82086.61581 2.97018.10855 5.9313.26253 8.89241.44371 2.96112.16293 5.92224.39838 8.87407.65195 2.943.28077 5.89526.58851 8.811 1.06847a31.36565 31.36565 0 018.53914 2.33635c6.68274 2.77088 7.00883 12.5507 7.00883 12.5507C284.576 359.83472 266.48346 363.42061 266.48346 363.42061zM179.9334 218.19136a12.597 12.597 0 002.3681-2.06165 12.263 12.263 0 001.74887-2.50982 14.274 14.274 0 001.106-2.86725c.16452-.49439.22455-1.01471.35752-1.52722.09924-.518.15612-1.04456.27624-1.57831a15.04543 15.04543 0 01.16681 1.61566 11.05264 11.05264 0 01-.10852 1.63263 9.86513 9.86513 0 01-.99725 3.146 9.03173 9.03173 0 01-2.05848 2.59253A6.96445 6.96445 0 01179.9334 218.19136zM201.93789 232.046a15.15041 15.15041 0 01.05276-3.33014 9.18914 9.18914 0 01.34946-1.66839 4.58732 4.58732 0 01.89355-1.52967 4.7458 4.7458 0 013.17905-1.589 5.11469 5.11469 0 011.83185.181c.52115.14447 1.046.27233 1.57132.39141a18.0589 18.0589 0 006.3045.42225 6.949 6.949 0 004.98432-2.82874l.02868-.038.04035-.04925a5.53046 5.53046 0 00.681-1.10858 5.58889 5.58889 0 00.3215-3.926l-.0083-.03057a.67405.67405 0 01-.01813-.09516 8.5977 8.5977 0 01-.02545-1.618 6.36447 6.36447 0 01.31827-1.62244 4.11742 4.11742 0 01.93023-1.56439 3.53016 3.53016 0 011.69706-.90137.69565.69565 0 01.13952-.01721l.05286-.00061a5.08027 5.08027 0 002.622-.67828 1.72126 1.72126 0 00.69531-.86469 2.02763 2.02763 0 00.10156-.57537l.00626-.151.00452-.0758.00259-.038c-.00275-.03381.00748.05213.007.04175l.00064.00147a1.85289 1.85289 0 00-.08261-.2558 11.94119 11.94119 0 00-1.65357-2.56574 15.48666 15.48666 0 01-1.85424-2.89587 13.6922 13.6922 0 01-1.385-6.62555 34.93675 34.93675 0 01.81568-6.56744 45.274 45.274 0 00-.0798 6.56768 13.7388 13.7388 0 001.762 6.04438 14.13273 14.13273 0 001.83 2.55279 11.86517 11.86517 0 012.01507 2.88342 3.27845 3.27845 0 01.18079.52393l.01089.05188a.76108.76108 0 01.01248.09277l.00138.065.002.13018.00125.26093a3.6375 3.6375 0 01-.15671 1.04315 3.379 3.379 0 01-1.25827 1.71619 6.3486 6.3486 0 01-3.63281 1.06665l.192-.01782a1.77665 1.77665 0 00-.7963.42944 2.38435 2.38435 0 00-.49765.89062 4.60408 4.60408 0 00-.21509 1.18457 6.97472 6.97472 0 00.02839 1.24274l-.02637-.1253a7.26164 7.26164 0 01.10544 3.51721 7.359 7.359 0 01-.57288 1.66339 7.022 7.022 0 01-.97491 1.52026l.06878-.087a8.45153 8.45153 0 01-6.23242 3.39245 18.4619 18.4619 0 01-6.80359-.76623c-.54388-.15241-1.07827-.33368-1.60931-.52027a4.024 4.024 0 00-1.43-.24749 4.12127 4.12127 0 00-2.70475 1.07953 3.933 3.933 0 00-.89322 1.22937 8.78507 8.78507 0 00-.48132 1.53027A19.06862 19.06862 0 00201.93789 232.046zM199.57445 212.97548a12.94838 12.94838 0 00.62671 2.297 11.98888 11.98888 0 001.005 2.07288 13.66636 13.66636 0 001.36877 1.86462c.50406.6012 1.07764 1.14362 1.645 1.75226a7.17145 7.17145 0 01-2.13971-1.24774 7.70088 7.70088 0 01-1.64813-1.90039 7.27006 7.27006 0 01-.90927-2.35388A5.28207 5.28207 0 01199.57445 212.97548z"></path><path fill="#020202" d="M181.93694 216.96888a8.81729 8.81729 0 00-1.407-.73126 2.8097 2.8097 0 00-.73639-.19751c-.24625-.03021-.45929.0232-.51114.19336a2.40464 2.40464 0 00.25394 1.38977 14.73294 14.73294 0 00.68152 1.40644l-.06681-.0907c1.5524 1.30114 3.17716 2.5379 4.81372 3.73333 1.65171 1.17829 3.32224 2.32758 5.06006 3.35273a43.06983 43.06983 0 005.34131 2.75494 21.68566 21.68566 0 005.63175 1.57806l.0415.005a.80686.80686 0 01.54568.31232 4.31 4.31 0 01.82294 1.75378 2.98827 2.98827 0 01-.32565 2.08234 3.87423 3.87423 0 01-1.41046 1.36016 1.9114 1.9114 0 00-.73706.739 4.706 4.706 0 00-.4625 2.45941 12.49943 12.49943 0 00.42612 2.77533l.016.05981a.75538.75538 0 01-.02042.45856 2.375 2.375 0 01-.46984.79907 2.04365 2.04365 0 01-.82123.561 2.36066 2.36066 0 01-1.7638-.16339 7.18332 7.18332 0 01-1.9888-1.6659.744.744 0 01-.09191-.12359l-.01487-.0257a6.6509 6.6509 0 00-.87854-1.12024 9.832 9.832 0 00-1.12957-1.00982 12.22768 12.22768 0 00-2.676-1.50647l-.03036-.01252a.70206.70206 0 01-.29456-.22979c-.93585-1.267-1.97342-2.51294-3.03342-3.70972-1.05737-1.20563-2.155-2.38062-3.32589-3.47607a32.77 32.77 0 00-3.67353-3.10456 19.24729 19.24729 0 00-4.22363-2.32153 16.31565 16.31565 0 014.49765 1.89978 31.86 31.86 0 014.01358 2.83331c1.26648 1.04175 2.4599 2.16565 3.61655 3.32581 1.14438 1.17828 2.24124 2.37616 3.29269 3.66986l-.32458-.24207a12.44655 12.44655 0 013.09909 1.60327 11.43539 11.43539 0 011.35272 1.14338 7.97053 7.97053 0 011.17511 1.44036l-.10657-.149a5.74049 5.74049 0 001.48694 1.2146.73346.73346 0 00.43427.08795c.02252-.02149.05719-.02106.10028-.08a.98385.98385 0 00.10647-.17041l-.00433.518a14.14453 14.14453 0 01-.52713-3.2182 6.39236 6.39236 0 01.67932-3.43183 3.77906 3.77906 0 011.391-1.37762 2.12752 2.12752 0 00.77539-.70026 1.18782 1.18782 0 00.13489-.85174 2.6596 2.6596 0 00-.44534-.98285l.58688.31708a21.27733 21.27733 0 01-6.099-1.82862 37.651 37.651 0 01-5.44449-3.04968 55.76028 55.76028 0 01-4.97568-3.68292 57.43475 57.43475 0 01-4.578-4.143l-.01886-.01916a.23785.23785 0 01-.04819-.07184 15.25576 15.25576 0 01-.57809-1.52234 5.32638 5.32638 0 01-.18872-.81158 1.52459 1.52459 0 01.08484-.89948.61378.61378 0 01.41031-.31994 1.06329 1.06329 0 01.46023.00537 3.03184 3.03184 0 01.77173.30572A8.90162 8.90162 0 01181.93694 216.96888zM204.21984 224.58625a20.53032 20.53032 0 016.11008 3.34467 29.24645 29.24645 0 014.97134 4.95441 34.1694 34.1694 0 011.9826 2.91479c.2941.50879.63089.99665.89036 1.52454l.7756 1.58624c.54169 1.04834.8931 2.1759 1.34872 3.26245.382 1.11206.6984 2.24622 1.05039 3.37049a.31958.31958 0 01.01376.07153l.0029.0426a64.36538 64.36538 0 00.82565 6.84723 32.64588 32.64588 0 00.75275 3.33112 12.58548 12.58548 0 001.21848 3.03717.696.696 0 01.06646.14148l.00647.02c.55249 1.66619 1.14368 3.33667 1.775 4.97558.31466.82086.64477 1.63342.99313 2.43054a20.33383 20.33383 0 001.13452 2.2826.83646.83646 0 01-.09616.99218c-1.049 1.147-2.12332 2.19684-3.25153 3.2251q-1.69368 1.52838-3.5151 2.91651a32.36641 32.36641 0 01-8.00177 4.57385l.59231-.85c.03336 3.68512.003 7.36493-.03869 11.04987l-.11069 5.53106c-.06628 1.85773-.10086 3.66852-.34195 5.60682a.646.646 0 01-.02148.10333l-.00821.02679a2.76485 2.76485 0 00-.1174.74951.74084.74084 0 00.02594.20722.175.175 0 00-.08234-.06513.01592.01592 0 00-.01849-.0064c-.03815-.00715.06817.01995.14331.04956a1.16622 1.16622 0 01.212.1029 1.443 1.443 0 01.42966.4419 2.70816 2.70816 0 01.29944.67627 7.75907 7.75907 0 01.24679 1.13885 31.22446 31.22446 0 01.25428 4.27521.78418.78418 0 01-.3548.661l-.01831.01172a25.15113 25.15113 0 00-4.55774 3.75024 12.80091 12.80091 0 00-1.72928 2.3078l-.3186.62671-.23792.64624c-.12778.44537-.1864.82855-.309 1.4328a14.69876 14.69876 0 01-2.977 5.61957 36.76466 36.76466 0 01-4.254 4.53894l-.04254.03412-.015.01037a26.44171 26.44171 0 00-3.88663 3.40912 33.93511 33.93511 0 00-3.301 4.063 35.90431 35.90431 0 00-2.66027 4.53284 42.21213 42.21213 0 00-2.059 4.86029 40.01273 40.01273 0 011.78037-4.99091 36.3263 36.3263 0 012.48532-4.70147 34.60368 34.60368 0 013.17868-4.28846 23.84787 23.84787 0 013.92685-3.6958l-.05719.04425a35.77727 35.77727 0 003.99738-4.50525 13.61258 13.61258 0 002.6018-5.17761c.07666-.39618.15378-1.03161.299-1.56769l.27051-.79882.35449-.74976a14.19373 14.19373 0 011.86194-2.63928 24.79791 24.79791 0 014.80963-4.1062l-.373.67236a29.8231 29.8231 0 00-.29236-4.01917c-.08014-.5866-.33737-1.41583-.38712-1.13916a1.55567 1.55567 0 01-.77041-.80865 2.263 2.263 0 01-.16193-.80933 4.33608 4.33608 0 01.17969-1.301l-.0296.1297c.18274-1.71692.2229-3.59.27777-5.407l.08453-5.50226.01563-11.02027a.91063.91063 0 01.5925-.85022 30.6568 30.6568 0 007.55883-4.28747q1.75869-1.32743 3.41-2.80316c1.09509-.97748 2.181-2.00672 3.16711-3.05725l-.0961.99188a21.77092 21.77092 0 01-1.203-2.49744c-.35083-.83417-.677-1.67114-.98609-2.5119-.62094-1.68262-1.19174-3.36743-1.73193-5.07843l.07279.16113a13.9127 13.9127 0 01-1.29175-3.44739 34.0072 34.0072 0 01-.69058-3.48809 65.52917 65.52917 0 01-.6539-7.01465l.01657.11371c-.31366-1.10047-.59147-2.21491-.93378-3.308-.4151-1.06524-.72678-2.17767-1.22632-3.20874a35.19211 35.19211 0 00-3.32446-6.0094 28.721 28.721 0 00-4.65738-5.06939A21.57729 21.57729 0 00204.21984 224.58625z"></path><path fill="#020202" d="M179.149,217.04164a54.06785,54.06785,0,0,0-6.07938,7.00867c-1.88327,2.46032-3.63516,5.02111-5.3219,7.62109-3.39679,5.17126-6.63763,10.51019-9.49258,15.96509-5.65064,10.94006-10.01343,22.791-11.601,35.12841-.10407.76789-.19208,1.53846-.26655,2.3064-.05538.74237-.02487,1.54645-.02832,2.3172l.02146,4.67133.064,9.34234q.03177,9.34-.05072,18.67346c-.02658,12.4477-.30328,24.88526-.71881,37.32544l-.13943-.44073a23.46226,23.46226,0,0,0,3.85431,4.02331,14.3368,14.3368,0,0,0,4.83691,2.683,9.114,9.114,0,0,0,5.45218-.05127,13.15207,13.15207,0,0,0,4.75842-3.02795.09061.09061,0,0,1,.12815.00225.092.092,0,0,1,.00265.123,12.88007,12.88007,0,0,1-4.67822,3.47613,9.48367,9.48367,0,0,1-5.9101.40033,15.41931,15.41931,0,0,1-5.34954-2.62188,22.18051,22.18051,0,0,1-4.2793-4.14716.64492.64492,0,0,1-.13944-.39886l-.00009-.04224c-.04-12.45538.05875-24.91339.40769-37.36121q.20329-9.33772.51251-18.66992l.3457-9.32934.16223-4.66449c.04209-.784.02469-1.53986.09153-2.348q.13046-1.16949.303-2.32678a152.74394,152.74394,0,0,1,4.03458-18.27618,99.027,99.027,0,0,1,6.75082-17.50659c.716-1.39557,1.494-2.76056,2.26276-4.12793l2.42847-4.007c1.6716-2.63861,3.33676-5.2829,5.15463-7.82764,3.65686-5.04638,7.45545-10.11413,12.37552-14.03784a.09012.09012,0,0,1,.1178.13623Z"></path><path fill="#020202" d="M168.19765 236.33827a18.24849 18.24849 0 015.43-2.37042 19.03772 19.03772 0 015.98209-.6604 13.93772 13.93772 0 015.86749 1.69378 10.60942 10.60942 0 014.073 4.37964 17.48939 17.48939 0 00-4.70526-3.11572 17.851 17.851 0 00-5.34531-1.15106 30.00854 30.00854 0 00-5.59985.235C172.01766 235.593 170.12624 235.927 168.19765 236.33827zM164.36425 242.034a39.70348 39.70348 0 00-3.00177 12.82025 50.10239 50.10239 0 00-.04633 6.576c.16211 2.16565.42365 4.4212.49356 6.66907a48.44246 48.44246 0 01-.13748 6.77154 18.255 18.255 0 01-.62482 3.41339 5.06152 5.06152 0 01-.30279.85352 3.8527 3.8527 0 01-.4274.84649l-.27.41474-.20868.30548a3.26094 3.26094 0 00-.38208.64123 15.573 15.573 0 00-1.09906 3.01539c-.29169 1.054-.528 2.1325-.73224 3.21844a59.98133 59.98133 0 00-.87161 6.58521l-.175-.28486a54.25923 54.25923 0 0010.63016 3.11548 59.50683 59.50683 0 0011.00647.98688 47.62053 47.62053 0 0010.86313-1.32251 36.66578 36.66578 0 009.984-4.18884l-.44443.90936c-.42142-3.60242-.90836-7.21283-1.43054-10.79858-.26193-1.79346-.57807-3.57654-.931-5.33124a23.30393 23.30393 0 00-.6388-2.55109 4.253 4.253 0 00-.21264-.5506l-.30414-.71515a7.57227 7.57227 0 01-.29028-1.51281 58.69248 58.69248 0 01.55356-11.06378c.42279-3.63471.98291-7.24634 1.64852-10.83942a.09062.09062 0 01.10566-.07257.09181.09181 0 01.07376.09741q-.45373 5.4549-.78992 10.9054c-.104 1.81579-.17844 3.63226-.2063 5.44134a36.34589 36.34589 0 00.17334 5.33948 6.15767 6.15767 0 00.25913 1.16174l.25482.533a5.88261 5.88261 0 01.3085.7121 24.76653 24.76653 0 01.79483 2.72473c.43759 1.80572.75909 3.61578 1.0643 5.42474.61414 3.61957 1.06619 7.24488 1.45517 10.89136l.00452.0423a.88661.88661 0 01-.4491.86731 38.43794 38.43794 0 01-10.59659 4.19592 44.33228 44.33228 0 01-11.271.95825 64.26722 64.26722 0 01-11.12522-1.57037 73.99191 73.99191 0 01-10.723-3.25415.2785.2785 0 01-.17584-.27435l.0007-.01075c.12726-2.237.325-4.45868.602-6.6867.14154-1.113.3161-2.2248.55273-3.3335a16.46418 16.46418 0 011.00031-3.31067 4.35221 4.35221 0 01.42627-.81561l.244-.396.16241-.29937a2.686 2.686 0 00.28192-.65833 3.94952 3.94952 0 00.212-.732 19.773 19.773 0 00.4544-3.16761c.158-2.16919.15412-4.3731.09864-6.576-.02893-1.10089-.07953-2.206-.15592-3.30029-.07156-1.09112-.19546-2.23511-.208-3.35858a43.377 43.377 0 01.30822-6.76428 33.9586 33.9586 0 014.05793-12.78778.09031.09031 0 01.16082.0816zM212.96731 248.29133a27.86812 27.86812 0 011.65786 7.74579 67.64135 67.64135 0 01.266 7.904c-.041 1.31617-.1116 2.62958-.18545 3.94287-.12781 1.30933-.20633 2.62165-.38013 3.92585a66.36494 66.36494 0 01-1.35827 7.77679c-.12943-2.64276-.09616-5.25946-.05179-7.87158l.16614-7.8161c.08313-2.60065.1072-5.197.13723-7.79523A76.1637 76.1637 0 00212.96731 248.29133zM202.75286 232.75233q.73068 10.56106 1.204 21.12158c.34064 7.04029.59326 14.08222.87829 21.12165l.763 21.1181c.12952 3.51923.26847 7.03748.44669 10.55273.092 1.75672.13931 3.52118.30029 5.27094.0737.87579.12491 1.75732.21729 2.631l.33627 2.62122-.60687-2.58075c-.16516-.86872-.28055-1.74323-.4234-2.616-.29733-1.74591-.48017-3.50024-.70838-5.25323-.39022-3.51026-.72116-7.02637-.97283-10.54554-.29557-3.51782-.46476-7.04071-.68708-10.56176l-.47369-10.5694c-.24924-7.0484-.425-14.09815-.47687-21.15027Q202.43657 243.33558 202.75286 232.75233zM203.24184 231.51631a3.34929 3.34929 0 011.40927-.51215 2.23965 2.23965 0 011.57349.36756 2.48344 2.48344 0 01.92755 1.37591 5.20636 5.20636 0 01.198 1.55219 8.66121 8.66121 0 00.1936 2.7124 1.52419 1.52419 0 00.74836.9151 2.1972 2.1972 0 001.34732.10883 1.98536 1.98536 0 01-1.48505.3139 1.92606 1.92606 0 01-1.25705-1.05237 6.68241 6.68241 0 01-.45215-3.00354 3.21935 3.21935 0 00-.65848-2.37122A2.9756 2.9756 0 00203.24184 231.51631zM206.44066 228.21565a3.48265 3.48265 0 011.56208.497 4.38635 4.38635 0 011.25692 1.098 3.768 3.768 0 01.71763 1.525 3.1402 3.1402 0 01-.05259 1.64758c-.22454-.51288-.3757-.98358-.61422-1.41382a6.85446 6.85446 0 00-.768-1.20679A15.93316 15.93316 0 00206.44066 228.21565z"></path><path fill="#020202" d="M196.0313 259.28883c1.17685-.21454 2.35367-.33984 3.53052-.46649a.41194.41194 0 01.45053.343l.01511.094c.51773 3.2182.838 6.449 1.05453 9.68634.08484 1.62018.17239 3.24017.19525 4.86426.03482 1.62335.01688 3.25006-.03787 4.87915l-.00311.09216a.3898.3898 0 01-.3837.37586c-1.09778.01422-2.195.0332-3.30234-.02826 1.057-.33588 2.12424-.59119 3.19083-.85138l-.3866.46783c-.26059-1.609-.48434-3.22033-.65536-4.835-.183-1.61395-.30127-3.232-.42227-4.84985-.19507-3.23871-.2865-6.48407-.18042-9.742l.46542.43677C198.385 259.62867 197.20815 259.50337 196.0313 259.28883zM214.02981 256.76716c-2.33429.63745-4.68818 1.13233-7.04523 1.60376l.54581-.62573c.08612 1.64807.16064 3.29614.19723 4.94421.06415 1.64808.0473 3.29609.07324 4.94416-.01242 3.29614-.05447 6.59222-.24014 9.88836l-.92133-.60907c1.18171-.45092 2.385-.92822 3.549-1.45855.5885-.25788 1.15615-.55042 1.72384-.84888a7.2013 7.2013 0 001.58634-1.08783 6.00717 6.00717 0 01-1.328 1.46167 17.05851 17.05851 0 01-1.58758 1.18292 31.03705 31.03705 0 01-3.42484 1.96894.63817.63817 0 01-.91739-.5337l-.00412-.0755c-.18567-3.29614-.22772-6.59222-.24014-9.88836.026-1.64807.00909-3.29608.07327-4.94416.03659-1.64807.11109-3.29614.19724-4.94421l.00369-.07111a.58732.58732 0 01.54227-.55481C209.20989 256.93879 211.61007 256.78163 214.02981 256.76716zM162.10973 296.062c.30945 3.68506.60843 7.37128.96732 11.04822.18368 1.83667.374 3.67694.63653 5.4906a32.73633 32.73633 0 01.45279 5.58124 89.6346 89.6346 0 01-.554 11.15c-.11136.92047-.26774 1.88123-.446 2.77674q-.25178 1.34949-.44714 2.70373a40.51109 40.51109 0 00-.43466 5.43732 51.19411 51.19411 0 00.838 10.87738 25.00812 25.00812 0 00.67355 2.60339c.26166.85816.62909 1.61963.97418 2.56964a28.26209 28.26209 0 011.27207 5.5589 52.45572 52.45572 0 01.15118 11.24713 34.362 34.362 0 01-.94842 5.58942 13.00689 13.00689 0 01-1.03617 2.74139 5.37714 5.37714 0 01-.9302 1.29719 2.45265 2.45265 0 01-1.72006.7763l.17639-.02283c-1.78925.403-3.51761.65009-5.28116.88337-1.75577.22772-3.51389.40808-5.27326.55792-3.51864.30224-7.04156.48944-10.56463.60028l.04086-.00379a11.418 11.418 0 00-3.67535 1.08411c-.53168.297-.98224.7276-.93225 1.18756a2.47381 2.47381 0 00.96746 1.38111.35152.35152 0 01.038.49566.36415.36415 0 01-.13819.09827 10.47533 10.47533 0 00-2.86627 1.61951 2.51362 2.51362 0 00-.8623 1.20575 1.36988 1.36988 0 00.46719 1.25061 5.295 5.295 0 001.32205.91827 4.86719 4.86719 0 001.53656.45642 6.40134 6.40134 0 003.21863-.38568.27989.27989 0 01.36218.15985.28313.28313 0 01-.09973.33 8.52137 8.52137 0 00-2.28268 2.27868 2.01628 2.01628 0 00-.36237 1.39026 1.69659 1.69659 0 00.895 1.06561l.03229.02192a3.34192 3.34192 0 001.45517.27636 9.7643 9.7643 0 001.62222-.13507 21.09647 21.09647 0 003.19858-.85821 46.96875 46.96875 0 006.0983-2.72949.34608.34608 0 01.35257.59454l-.0109.00714a20.03759 20.03759 0 00-3.32376 2.70575 5.87517 5.87517 0 00-1.93668 3.47705 1.90905 1.90905 0 00.173.88086 2.43739 2.43739 0 00.22046.40008c.04333.06293.09634.11847.143.17865l.07157.08912c.0509.05731-.03675-.03028.01236.007a3.2967 3.2967 0 001.81909.01495 17.55461 17.55461 0 003.96664-1.48493 57.07454 57.07454 0 007.36576-4.57019c2.37268-1.67126 4.66412-3.46539 6.94488-5.27014l-.04065.03479a14.64748 14.64748 0 012.61463-1.87695 8.55856 8.55856 0 013.13909-1.0965 4.52536 4.52536 0 013.43647.95 6.67472 6.67472 0 011.91626 2.8393 20.62964 20.62964 0 011.08719 6.24225c.05645 1.04559.01388 2.08374.08773 3.0191a10.73715 10.73715 0 00.55707 2.74982 4.06016 4.06016 0 00.56153 1.101c.23251.28815.4132.37488.58959.374a1.39349 1.39349 0 00.79191-.35217 2.36988 2.36988 0 00.60531-.91174 8.67627 8.67627 0 00.3938-1.31794q.18842-.77278.41135-1.51989c.297-.994.61441-1.94782.871-2.89753a26.54312 26.54312 0 00.25195-11.67364 1.00356 1.00356 0 01-.00439-.28345c1.01812-7.62976 1.93121-15.288 2.6672-22.94775.345-3.83087.70963-7.6626.87375-11.48639.05771-.9577.04849-1.90552.07642-2.85919l-.066-2.85712-.03623-1.47815.02509-1.45837c.009-.97364.04043-1.94257.08554-2.90876.303-7.73724.99741-15.42211 1.66293-23.11248.67-7.6886 1.50782-15.36078 2.33884-23.0318a.09056.09056 0 01.18033.01672c-.57038 7.69354-1.03092 15.39539-1.54578 23.0896-.46945 7.69464-.93545 15.39984-1.14721 23.08362-.02973.96112-.04557 1.92-.03913 2.87512l-.00223 1.43433.05725 1.41314.11365 2.92542c-.01245.97424.01129 1.9563-.03164 2.925-.12113 3.88562-.3769 7.74652-.73264 11.59723-.71362 7.7005-1.60144 15.368-2.59787 23.03418l-.00436-.28309a37.89563 37.89563 0 01.57168 6.22266 22.799 22.799 0 01-.89407 6.264c-.28369 1.00909-.61789 1.98059-.91116 2.93036q-.21809.71127-.39869 1.41748a10.365 10.365 0 01-.49984 1.59167 3.50642 3.50642 0 01-3.08466 2.34131 2.31073 2.31073 0 01-1.17364-.34161 2.97349 2.97349 0 01-.79465-.7312 5.73831 5.73831 0 01-.81809-1.60181 12.44626 12.44626 0 01-.62289-3.21143c-.07105-1.0924-.01523-2.08886-.061-3.07281a19.10838 19.10838 0 00-.92276-5.72925 5.17662 5.17662 0 00-1.39578-2.19482 2.94211 2.94211 0 00-2.26871-.64911 9.97071 9.97071 0 00-4.94393 2.4989l-.04093.035c-2.32632 1.78754-4.66614 3.56012-7.11532 5.19013a58.14775 58.14775 0 01-7.62323 4.48254 18.76 18.76 0 01-4.2547 1.4765 3.86691 3.86691 0 01-2.47657-.18292.732.732 0 01-.19769-.16388l-.09933-.12488c-.06452-.08435-.13437-.16534-.19266-.25354a3.32932 3.32932 0 01-.29645-.563 2.79122 2.79122 0 01-.22018-1.25354 4.54131 4.54131 0 01.79895-2.24932 10.34458 10.34458 0 011.45251-1.751 20.72915 20.72915 0 013.51642-2.74555l.34164.60163c-1.01452.4956-2.01922 1.00958-3.05642 1.46106q-1.54679.694-3.15634 1.25256a21.68172 21.68172 0 01-3.307.8595 10.352 10.352 0 01-1.73071.13019 3.58031 3.58031 0 01-1.80237-.41248l.03195.02173a2.26046 2.26046 0 01-1.15964-1.45953 2.55677 2.55677 0 01.447-1.78986 7.15492 7.15492 0 011.11939-1.33814 11.80346 11.80346 0 011.3204-1.10949l.26242.48974a6.98043 6.98043 0 01-3.50735.45465 5.43774 5.43774 0 01-1.73636-.50207 5.87712 5.87712 0 01-1.48819-1.01953 2.00743 2.00743 0 01-.65039-1.83051 3.11753 3.11753 0 011.057-1.56628 11.09521 11.09521 0 013.056-1.77246l-.10019.59375a3.06979 3.06979 0 01-1.23563-1.85346 1.65069 1.65069 0 01.39609-1.18542 3.32843 3.32843 0 01.86581-.71918 8.76271 8.76271 0 011.93155-.8136 16.277 16.277 0 012.00852-.4685l.02664-.00306.01458-.00079c3.50654-.19916 7.00754-.47534 10.49176-.86285 1.74219-.19135 3.48023-.41291 5.20786-.68018 1.71756-.26807 3.46957-.56872 5.1041-.97925l.03323-.0083a.51626.51626 0 01.14355-.01459c.4397.01923 1.00458-.61523 1.36206-1.36132a13.25218 13.25218 0 00.87452-2.45423 32.90084 32.90084 0 00.861-5.34265 50.93148 50.93148 0 00-.22956-10.8938 26.71934 26.71934 0 00-1.14321-5.24884c-.27488-.79168-.69507-1.70959-.96463-2.62542a26.52613 26.52613 0 01-.68909-2.77021 52.59872 52.59872 0 01-.7609-11.20843 41.92761 41.92761 0 01.50269-5.60828c.13858-.92688.31906-1.84521.51038-2.75921.20379-.9137.3638-1.77546.49746-2.68775a88.59635 88.59635 0 00.80466-10.98077 32.66525 32.66525 0 00-.309-5.47229c-.199-1.85565-.32065-3.7013-.437-5.55q-.33761-5.54361-.50907-11.08942a.09057.09057 0 01.18082-.01zM202.71578 373.90675a.81648.81648 0 01.27216-.61908 2.74625 2.74625 0 01.54525-.4267 7.49189 7.49189 0 011.21567-.59375 15.80153 15.80153 0 012.55643-.7163 28.24654 28.24654 0 0110.45938-.02649 15.697 15.697 0 012.564.71228 7.05308 7.05308 0 011.22767.593 2.49721 2.49721 0 01.556.45105.73725.73725 0 01.23374.72553.08086.08086 0 01-.10022.05511l-.00815-.00287-.36987-.15179.42666-.007-.10812.05213c-.0755-.31434-.52-.44648-.88657-.55469a9.70693 9.70693 0 00-1.214-.21912c-.82586-.10162-1.66488-.15924-2.50344-.20276-.839-.04095-1.68015-.0813-2.52292-.08545-.84076-.04156-1.685-.02844-2.52777-.037q-2.529-.01777-5.05579.07928c-.83951.045-1.68384.07788-2.5148.179a9.69256 9.69256 0 00-1.23236.19976C203.34853 373.42512 202.88888 373.496 202.71578 373.90675zM211.102 396.82527a6.597 6.597 0 01-5.50473-2.12659 8.59955 8.59955 0 01-2.2312-5.70727 10.21638 10.21638 0 01.5228-3.03461 23.58424 23.58424 0 011.06411-2.795 8.3074 8.3074 0 011.6207-2.54316 5.71586 5.71586 0 012.68872-1.55944 5.279 5.279 0 011.62628-.14453 2.91975 2.91975 0 011.72629.65319 2.8077 2.8077 0 01.22812 3.69751 3.61774 3.61774 0 01-.29584.37439l-.23767.26715c-.14954.17347-.29733.34638-.43628.52619a11.51768 11.51768 0 00-.77408 1.10473 7.10215 7.10215 0 00-.9981 2.31269 3.21484 3.21484 0 00.23654 2.18951 5.504 5.504 0 00.69015.99121c.288.338.67484.741.97183 1.14594a5.367 5.367 0 011.29346 2.84454 1.72109 1.72109 0 01-.18387.81226 1.54378 1.54378 0 01-.56952.567A3.40657 3.40657 0 01211.102 396.82527zm-.02008-.18a2.94635 2.94635 0 001.30594-.46558 1.02925 1.02925 0 00.4133-1.11121 4.3158 4.3158 0 00-1.65586-2.06012c-.36669-.30584-.74148-.51007-1.14721-.85138-.20886-.18176-.43512-.34533-.631-.55249-.179-.225-.374-.43981-.53525-.68469a4.76624 4.76624 0 01-.62741-3.43518 7.70539 7.70539 0 011.32071-2.98834 13.3592 13.3592 0 01.97625-1.2215c.17084-.19385.3508-.37976.53037-.56286l.26361-.26111a1.90685 1.90685 0 00.16873-.18573 1.34575 1.34575 0 00.14771-1.64533 2.85235 2.85235 0 00-2.18109-.58337 4.30065 4.30065 0 00-2.43592 1.03046 5.60759 5.60759 0 00-1.50006 2.32147 11.071 11.071 0 00-.61871 2.7735 11.30834 11.30834 0 00-.0047 2.74945 14.55042 14.55042 0 001.6607 5.11114 5.25559 5.25559 0 001.83286 1.99481A4.2826 4.2826 0 00211.08193 396.64528z"></path><path fill="#020202" d="M136.75216 388.99525c2.26523-.15527 4.54562-.40582 6.79586-.78052 1.127-.18457 2.24668-.41265 3.35093-.702a13.76431 13.76431 0 003.20611-1.19068 13.87087 13.87087 0 01-3.14114 1.40754c-1.09232.36456-2.205.66857-3.3263.92895-2.24447.527-4.50759.92847-6.80236 1.23846a.45314.45314 0 01-.12131-.89813l.02841-.00293zM139.64617 394.68574l14.04483-6.0003-13.66455 6.82208a.45295.45295 0 11-.40466-.81049zM150.6159 396.53553l9.10595-3.85668-8.715 4.67346a.45322.45322 0 11-.42838-.79883C150.59057 396.547 150.60354 396.54084 150.6159 396.53553zM212.93035 296.03547c.9422 1.89356 1.99243 3.72455 3.10187 5.50031a44.70554 44.70554 0 003.64648 5.05853 22.37925 22.37925 0 004.47882 4.12195 11.47038 11.47038 0 005.49915 2.05591l-.12039.01013a71.174 71.174 0 0015.08319-4.22711c4.87973-1.92951 9.64535-4.12079 14.45327-6.19129l14.32837-6.45269c2.40027-1.05475 4.75653-2.20288 7.178-3.22388 2.38452-1.09577 4.7815-2.17108 7.21558-3.18372a.09081.09081 0 01.11957.04682.09262.09262 0 01-.035.1134c-2.23273 1.39667-4.49945 2.73663-6.78418 4.04529-2.29236 1.29468-4.628 2.50763-6.95959 3.7312-4.68988 2.39313-9.47058 4.61578-14.376 6.54224-4.86359 2.02435-9.856 3.73608-14.88837 5.28607l-7.52447 2.383c-2.51236.80243-4.98306 1.66913-7.58817 2.32843a.29484.29484 0 01-.06366.00891l-.05716.00123a10.97588 10.97588 0 01-6.37207-1.92652 20.22127 20.22127 0 01-4.74206-4.53314 33.579 33.579 0 01-3.40561-5.48108 36.0544 36.0544 0 01-2.3573-5.95093.09077.09077 0 01.06168-.11255A.09415.09415 0 01212.93035 296.03547zM225.42068 271.177c.77041 1.75977 1.62649 3.47858 2.49661 5.185.88131 1.70081 1.818 3.37232 2.845 4.97894a30.41048 30.41048 0 003.42978 4.50757 9.74585 9.74585 0 002.105 1.73023 3.224 3.224 0 002.34235.47009.51644.51644 0 01.07647-.013l.03192-.00262a84.61435 84.61435 0 0010.74839-1.678 93.63675 93.63675 0 0010.48828-2.88806 74.47984 74.47984 0 0010.00287-4.1825l2.39032-1.27069c.78528-.44257 1.53656-.94141 2.30969-1.40381l1.154-.70349c.37518-.24817.73431-.51941 1.10242-.77789l2.197-1.568-.12927.12348 4.19842-4.88239 2.10639-2.43506 1.07623-1.228a8.50038 8.50038 0 011.33533-1.17987 8.43929 8.43929 0 015.0144-1.55488c.59845.01459 1.08893.05616 1.63867.08289l6.42713.40741 3.21337.20715 1.60676.10352a4.5419 4.5419 0 01.91064.11658 3.10008 3.10008 0 01.90442.40942 2.986 2.986 0 011.1665 1.55231 3.20513 3.20513 0 01-.005 1.88312 4.81888 4.81888 0 01-2.071 2.8208 4.5992 4.5992 0 01-1.64282.64337 7.71382 7.71382 0 01-1.69018.06134l-3.21967-.08637-6.43927-.17926.10376-.16565a6.63511 6.63511 0 01.38513 3.1864 6.53359 6.53359 0 00-.59271-3.08569.116.116 0 01.05511-.15454.1285.1285 0 01.04871-.01123l6.43927-.17932 3.21967-.08637a6.96606 6.96606 0 001.51587-.12957 4.033 4.033 0 001.31115-.58545c1.57184-1.00232 2.37415-3.62519.7934-4.5354a1.955 1.955 0 00-.56354-.23181 3.48846 3.48846 0 00-.6864-.05695l-1.60925-.0509-3.21845-.10175-6.43658-.21033c-.52246-.017-1.10315-.05206-1.57782-.05407a6.88216 6.88216 0 00-1.43152.15319 6.77361 6.77361 0 00-3.6601 2.13709l-1.0252 1.211-2.07843 2.459-4.17115 4.90576-.00927.01093a.77225.77225 0 01-.12024.11279 59.11929 59.11929 0 01-9.43921 5.91132 71.58265 71.58265 0 01-10.27332 4.205 91.3425 91.3425 0 01-10.7265 2.74951 85.73656 85.73656 0 01-10.99182 1.34893l.108-.01556a4.30715 4.30715 0 01-3.15131-.67926 10.70878 10.70878 0 01-2.26992-1.98279 27.49837 27.49837 0 01-3.3143-4.80566A69.27023 69.27023 0 01225.42068 271.177z"></path><path fill="#020202" d="M321.73921,246.55223l-16.96064,17.20516c1.99213.38943,2.97018,1.03244,3.33252,1.76586a.128.128,0,0,0,.01791.05428c0,.00906.00906.00906.00906.01813a2.05634,2.05634,0,0,1-.10854,1.72053c-.00907.0272-.01813.04521-.0272.07241a7.43424,7.43424,0,0,1-1.90171,2.32728l-.00906.00907a1.62847,1.62847,0,0,1-.53413.26264h-.01813a10.16068,10.16068,0,0,1-2.2278.32587c-2.28174.145-5.04367,0-5.04367,0L284.25016,285.282l23.97855,27.60975,48.06585-45.74764Zm-21.03555,46.76194a1.35916,1.35916,0,0,1,0-2.7166A1.35916,1.35916,0,0,1,300.70366,293.31417Zm-2.1732-13.59208,23.906-25.364,20.86356,14.11725-28.25264,25.66283Z"></path><path fill="#020202" d="M316.59643 265.71943l2.89886-3.40124 3.07465-3.49683.21032-.23919.28485.1845q2.76573 1.79142 5.49537 3.63611l.47949.32245-.42883.38733c-2.46943 2.23084-4.95612 4.44269-7.50531 6.58569l-.197.16559-.17681-.16192C319.26775 268.36171 317.90282 266.97535 316.59643 265.71943zm0 0c1.57391 1.258 3.08917 2.3855 4.50512 3.55915l-.37353.00366c2.37744-2.332 4.8175-4.59522 7.27472-6.83948l.05059.70953q-2.72313-1.8543-5.41894-3.74908l.49481-.05469-3.17847 3.13776zM445.94329 189.28669a5.57284 5.57284 0 011.65869-.79333 7.507 7.507 0 011.81525-.32294 6.24265 6.24265 0 011.85778.19892 3.69824 3.69824 0 011.62281.91735 15.05835 15.05835 0 00-1.7417-.22082c-.56757-.01892-1.13013-.01984-1.69818.00861C448.31658 189.11982 447.17876 189.25624 445.94329 189.28669zM448.98589 195.75221a1.35912 1.35912 0 000-2.71661 1.35912 1.35912 0 000 2.71661zM216.39022 195.07a5.576 5.576 0 011.65872-.79334 7.50862 7.50862 0 011.81519-.32293 6.24346 6.24346 0 011.85785.19891 3.69951 3.69951 0 011.62274.91736 15.08259 15.08259 0 00-1.74167-.22083c-.56757-.01892-1.13013-.01983-1.69818.00867C218.76351 194.90315 217.62572 195.03962 216.39022 195.07zM219.43282 201.53556a1.35912 1.35912 0 000-2.71661 1.35912 1.35912 0 000 2.71661z"></path><path fill="#020202" d="M448.14629,178.05824a77.95419,77.95419,0,0,0,5.826,8.31622,33.24947,33.24947,0,0,0,3.46051,3.67469,12.96353,12.96353,0,0,0,1.97949,1.48779,4.03589,4.03589,0,0,0,2.16059.68774l-.3357.18427a11.36361,11.36361,0,0,1,2.07355-2.27606,5.78939,5.78939,0,0,1,2.91492-1.37934,4.09107,4.09107,0,0,1,3.17224,1.15119,5.969,5.969,0,0,1,1.67371,2.83056,8.86846,8.86846,0,0,1,.1864,3.18787,11.70387,11.70387,0,0,1-.69617,3.08075,5.886,5.886,0,0,1-2.01587,2.69391,5.30031,5.30031,0,0,1-3.28821.89276l.83466-.7666c-.391,8.194-.98975,16.39569-1.134,24.59192-.00287,1.02264-.02118,2.04773.0274,3.06408.0047.51349.06018,1.0091.10114,1.51062a3.11756,3.11756,0,0,0,.4,1.34326,1.40292,1.40292,0,0,0,.931.81946,2.99208,2.99208,0,0,0,1.36578-.181,14.7965,14.7965,0,0,0,2.71491-1.30725,112.22209,112.22209,0,0,0,10.00531-7.123l.00543-.00422a.297.297,0,0,1,.06256-.03637,23.24466,23.24466,0,0,1,13.89319-1.15888c.5705.16156,1.155.28412,1.71606.48035l1.65455.58643a4.595,4.595,0,0,0,1.44421.32379c.44073-.02277.65124-.12622.80524-.4198a2.88528,2.88528,0,0,0,.16449-1.3371,9.792,9.792,0,0,0-.23792-1.58618,26.01379,26.01379,0,0,0-.99567-3.20551,65.60055,65.60055,0,0,0-2.76178-6.24676l-.38848-.76026c-.07111-.13232-.12464-.24871-.18482-.34076l-.2185-.35412-.9065-1.47986-1.79681-2.9679c-2.38227-3.96612-4.72772-7.95422-6.911-12.0567-.539-1.0318-1.07941-2.06244-1.588-3.12152a18.58643,18.58643,0,0,1-1.351-3.45672l-.0954-.58649-.02527-.36072c-.00824-.23059-.071-.5086-.10211-.76111-.10394-.5263-.22967-1.05658-.38861-1.58484a21.05289,21.05289,0,0,0-1.18963-3.09631,16.8544,16.8544,0,0,0-9.12372-9.10522,14.01744,14.01744,0,0,0-6.57123-.81147,51.34863,51.34863,0,0,0-6.80512.9643,57.21823,57.21823,0,0,0-6.65972,1.81408c-.5434.191-1.09394.36353-1.6305.574a9.66539,9.66539,0,0,0-1.564.66357A2.22352,2.22352,0,0,0,448.14629,178.05824Zm-.15436.09473a2.42574,2.42574,0,0,1,.63355-3.22449,9.60036,9.60036,0,0,1,1.60638-.70929l1.622-.61627c2.17127-.80084,4.38611-1.48413,6.626-2.09027a52.55975,52.55975,0,0,1,6.846-1.337,15.15445,15.15445,0,0,1,7.09027.48505,15.52133,15.52133,0,0,1,6.14471,3.73181,20.596,20.596,0,0,1,4.18854,5.83154A22.8806,22.8806,0,0,1,484.08,183.5713c.18042.57593.32946,1.16718.45538,1.77252.04571.31916.11566.60657.13831.95276l.0368.50269c.02808.08838.05157.17535.07043.26336a19.05473,19.05473,0,0,0,1.22876,2.95459c.4892,1.02362,1.01929,2.039,1.54761,3.05475,2.16889,4.04462,4.44818,8.05408,6.75849,12.04267l1.74792,2.98352.88141,1.48657.23035.38635c.09252.153.15856.30036.22253.423l.38818.78753a60.91984,60.91984,0,0,1,2.72864,6.46521,27.488,27.488,0,0,1,.96918,3.43158,11.20662,11.20662,0,0,1,.22577,1.84149,4.152,4.152,0,0,1-.36719,2.04779,3.74931,3.74931,0,0,1-.37628.51111,2.37958,2.37958,0,0,1-.53308.38349,2.62367,2.62367,0,0,1-1.16407.24456,5.51214,5.51214,0,0,1-1.90808-.468l-1.5874-.63257c-.521-.20581-1.06665-.33991-1.59979-.51483a21.97846,21.97846,0,0,0-13.314.64673l.06769-.04041c-3.30395,2.44873-6.59894,4.91681-10.15167,7.04181a15.28372,15.28372,0,0,1-2.81537,1.381,3.49991,3.49991,0,0,1-1.65741.21069,2.04,2.04,0,0,1-1.35388-1.0874,3.82772,3.82772,0,0,1-.51587-1.56622c-.05664-.52081-.127-1.04547-.14447-1.55975-.06775-1.035-.10187-2.06421-.13947-3.0954-.10516-4.11994-.078-8.23371-.02758-12.34693.04846-4.11383.15649-8.22284.35681-12.33325l.001-.0213a.78528.78528,0,0,1,.82258-.74609l.01129.00061a3.72307,3.72307,0,0,0,3.775-2.56732,10.17033,10.17033,0,0,0,.63165-2.644,7.43447,7.43447,0,0,0-.04956-2.6698c-.36444-1.64764-1.72778-3.25433-3.34564-3.16894-1.65454.14258-3.24353,1.54693-4.38019,2.976l-.03076.0387a.38917.38917,0,0,1-.30518.14575,4.77215,4.77215,0,0,1-2.58593-.92932,13.61681,13.61681,0,0,1-2.00122-1.66822,37.58449,37.58449,0,0,1-3.33069-3.89129C451.6361,183.88417,449.76543,181.04713,447.99193,178.153Z"></path><path fill="#020202" d="M465.14666 204.72059a12.29344 12.29344 0 01-.79383 2.46851 15.69878 15.69878 0 01-1.2127 2.2951 9.768 9.768 0 01-1.691 2.02039 4.36246 4.36246 0 01-1.13416.74365 1.7341 1.7341 0 01-1.332.07526 3.04724 3.04724 0 001.963-1.31494 20.70617 20.70617 0 001.43476-2.01648C463.296 207.59376 464.13506 206.134 465.14666 204.72059zM463.92631 289.2302a6.859 6.859 0 01.49808 2.09173c-.73353 1.91066-3.9752 8.28567-3.9752 8.28567a3.8025 3.8025 0 01-1.39456-.57956c-4.21086-2.49929-12.86761-12.415-15.82873-15.89207l-.06345-.06345A.50223.50223 0 00443.10807 283c-.57945-.67915-.9146-1.07754-.9146-1.07754 11.89885-13.3657 14.50669-31.45827 15.8106-40.42308s4.68155-11.23772 4.68155-11.23772l.05438 1.8292c-.00884-.24451-.03625-.48-.05438-.72447a.25668.25668 0 01-.00885.08157q-.35316 7.29408-1.30391 14.47043c-.34422 2.39969-.7426 4.79032-1.24976 7.14468-.24451 1.1862-.55247 2.34531-.85115 3.50442a16.12749 16.12749 0 01-1.24068 3.26c-.25358.52506-.53435 1.01409-.85115 1.5575a14.07394 14.07394 0 00-.84209 1.74762 15.79787 15.79787 0 00-1.00524 3.7308 18.89746 18.89746 0 00.4437 7.57932 27.50437 27.50437 0 002.9158 6.90017c.32609.52517.625 1.06858.969 1.58468l1.05941 1.52135c.70634.99607 1.5303 1.9016 2.291 2.85235A13.95138 13.95138 0 01463.92631 289.2302z"></path><path fill="#020202" d="M464.57826 290.79676c-.00906.00906 0 .00906 0 .01813v.00906a1.99129 1.99129 0 01-.15387.498 5.43792 5.43792 0 00-.02719-1.15005.06841.06841 0 00-.00906-.03614.23045.23045 0 01-.01813-.06345c-.06345-.21732-.13574-.42558-.20826-.63383-.01812-.05439-.03625-.09971-.05438-.154-.09949-.28066-.20826-.56143-.31681-.83314a.78423.78423 0 00-.06345-.15387c-.07251-.19012-.15387-.38036-.23544-.56153-.07252-.172-.14481-.344-.22639-.50705-.10877-.21731-.20825-.43463-.317-.64289v-.00906c-.20826-.41662-.40745-.78781-.57945-1.11379-.10855-.19931-.21732-.38037-.308-.5433a1.47169 1.47169 0 01-.09042-.163.06837.06837 0 00-.01813-.03614c-.02719-.03626-.04532-.07252-.07251-.10877-.04532-.08147-.09971-.16294-.14481-.23545-.03625-.05428-.07251-.11762-.10877-.172a.18969.18969 0 00-.03625-.05439 32.92549 32.92549 0 01-4.28317-10.06036 18.57014 18.57014 0 01-.23522-6.95467 14.72842 14.72842 0 011.6751-4.85354c.2989-.52528.62477-1.09566.89647-1.66627a18.18434 18.18434 0 001.313-3.59494c.308-1.20443.57966-2.40865.797-3.63121q.66555-3.64016.95992-7.32574c.11761-1.467.199-2.93393.23523-4.41a.1126.1126 0 00.00928-.05439c.01791-.52517.027-1.0594.036-1.59375l.03626 1.35831zM466.34264 296.19679a7.823 7.823 0 01.45252 2.76575 7.73479 7.73479 0 01-.45252 2.76574 7.73456 7.73456 0 01-.45251-2.76574A7.82166 7.82166 0 01466.34264 296.19679zM493.83941 293.37629a36.95563 36.95563 0 011.49994 9.00525q.34588 4.55183.45636 9.11365.11022 4.56006.09417 9.12085c.03174 3.04419-.18426 6.09027-.28338 9.11755l-.877 18.19715-.43957 9.09887-.51477 9.09516-.03272-.26886a10.74772 10.74772 0 01.37787 4.45794 9.255 9.255 0 01-1.68866 4.19025c-.05957.07843-.12585.16193-.20349.24866l-.17395.19409-.35065.38574-.70245.77051-1.40509 1.541-2.81061 3.08239-1.40546 1.54145-.70275.77075-.35138.38537c-.09589.118-.19184.22864-.28565.36518a40.16062 40.16062 0 00-2.07953 3.53229 61.41062 61.41062 0 01-4.32531 7.22027 6.50405 6.50405 0 01-1.58484 1.56555 1.51245 1.51245 0 01-1.33228.22168 2.48511 2.48511 0 01-.327-.18042l-.24774-.23718c-.12665-.16571-.22619-.33649-.33624-.50623a4.38666 4.38666 0 01-.38562-2.22406 9.45453 9.45453 0 01.37506-2.12713 22.17636 22.17636 0 011.56915-3.93256l.48847-.93518a3.20838 3.20838 0 00.3623-.88336 2.40308 2.40308 0 00.04084-.91766 1.12663 1.12663 0 00-.33429-.71936c-.34461-.28284-1.09235-.0196-1.58533.32818a6.88792 6.88792 0 00-1.35559 1.46424c-.87317 1.0866-1.74481 2.17492-2.64 3.24566-.89251 1.07263-1.80658 2.129-2.76733 3.14893q-.717.76767-1.48962 1.49182c-.26056.23907-.52765.47327-.80829.69763-.14722.108-.285.22113-.4455.32159a2.54584 2.54584 0 01-.24658.14917 1.05441 1.05441 0 01-.36487.13514l.04767-.007a9.41017 9.41017 0 01-2.66376.28174 3.22555 3.22555 0 01-1.37951-.36719 1.937 1.937 0 01-.94422-1.17621 3.58449 3.58449 0 01.46869-2.75958 5.72114 5.72114 0 01.86048-1.06641l.89062-.94244 3.5625-3.77 1.78125-1.885a18.57736 18.57736 0 001.66565-1.8714 3.82261 3.82261 0 00.48407-1.037 1.43666 1.43666 0 00.06073-.86029c.03351-.04-.25275-.11364-.62085-.01953a3.14927 3.14927 0 00-1.012.43231 23.02371 23.02371 0 00-1.88349 1.64441c-.64312.587-1.31164 1.14868-1.97522 1.71558a42.26894 42.26894 0 01-4.23578 3.13141 19.16968 19.16968 0 01-2.35607 1.28784 10.19256 10.19256 0 01-1.298.49359 6.42261 6.42261 0 01-.70795.17432 2.86485 2.86485 0 01-.90332.03674l.26673.00263a5.04117 5.04117 0 01-1.70893.06591 2.21657 2.21657 0 01-.99353-.40863 1.83216 1.83216 0 01-.65673-.9953 3.23094 3.23094 0 01.15814-1.89142 4.13115 4.13115 0 01.975-1.48675 4.94478 4.94478 0 01.66327-.5445l.59656-.42236 1.1911-.84753 2.37238-1.70722c1.57623-1.14282 3.15228-2.28912 4.68145-3.47149a20.15 20.15 0 002.10785-1.793 1.15933 1.15933 0 00.16364-.20215l.06543-.09058a.159.159 0 01.01727-.0473c.018-.02368.009-.01825.00055.00812a.72566.72566 0 01.00507.09491 1.05143 1.05143 0 00.05267.13708c.03717.04517.05237.06092.05762.07025a2.42732 2.42732 0 00-.82282-.10876l.3512-.08942-7.106 3.56391-3.553 1.78192-.88824.44549c-.30146.14453-.56067.29853-.97461.4646a4.25058 4.25058 0 01-2.50232.20435 3.06884 3.06884 0 01-1.28937-.61859 2.14472 2.14472 0 01-.74652-1.53626 3.2189 3.2189 0 01.26471-1.37866 4.10294 4.10294 0 01.67871-1.09808 5.92576 5.92576 0 011.86841-1.35852l1.74164-.95923 6.96661-3.83673 6.96649-3.83673 3.48322-1.91834.87085-.47961c.27075-.16144.499-.32386.75238-.48285a7.73107 7.73107 0 001.34387-1.13849 13.61289 13.61289 0 002.79675-6.77564 29.76451 29.76451 0 00.18909-7.67822l-.00556-.05462-.00024-.00318-.76434-13.556-.71473-13.5553-.347-6.77649c-.087-1.12823-.06262-2.26062-.04254-3.3927l.06286-3.39593.262-13.57642a.09056.09056 0 01.18109 0l.262 13.56018.06281 3.38825c.01 1.12958.01562 2.25921.13275 3.3858l.52734 6.76361 1.03418 13.5249.98444 13.52417-.00574-.05743a31.36244 31.36244 0 01-.06543 8.17218 14.94428 14.94428 0 01-3.18475 7.72333 9.563 9.563 0 01-1.66852 1.43329c-.305.19714-.62213.41247-.92041.58941l-.86835.48218-3.47339 1.92889-6.94665 3.85773-6.9466 3.85761-1.73663.96441a4.36151 4.36151 0 00-1.35059.92719 2.19714 2.19714 0 00-.3692.58063 1.40479 1.40479 0 00-.12909.55291c.01545.12525.01306.12885.08734.2024a1.2683 1.2683 0 00.49176.21972 2.38766 2.38766 0 001.39966-.11358c.20374-.07465.52442-.24573.82019-.38691l.89228-.43737 3.56909-1.74945 7.13824-3.49891.0221-.0108a.78512.78512 0 01.32947-.07867 4.72078 4.72078 0 01.9096.06756 2.306 2.306 0 011.07593.44855 1.31764 1.31764 0 01.4812.81274 1.52268 1.52268 0 01-.09576.81293c-.04114.09686-.08576.19562-.13288.28644l-.14312.21033a2.58 2.58 0 01-.29651.36541 20.635 20.635 0 01-2.357 1.988c-1.57245 1.19061-3.16217 2.33179-4.76263 3.46l-2.4093 1.67609-1.20874.83136-.60541.41424a3.37794 3.37794 0 00-.47473.37372 2.62038 2.62038 0 00-.637.93079 1.858 1.858 0 00-.13073.97943c.05652.19177.11859.25958.47094.34448a3.6978 3.6978 0 001.20337-.042l.26715.00262c-.05792-.00824.07392.00019.13373-.00586l.25336-.02868a5.03779 5.03779 0 00.552-.12824 8.82661 8.82661 0 001.12976-.4107 18.18147 18.18147 0 002.20947-1.16278 41.0357 41.0357 0 004.17139-2.93207c.66382-.54 1.33313-1.07489 1.98071-1.63788l.97113-.8454a7.56336 7.56336 0 011.09827-.85888 4.22861 4.22861 0 011.37586-.54426 2.46125 2.46125 0 01.82269-.0382 1.20307 1.20307 0 01.90954.58435 1.55986 1.55986 0 01.15992.92993 3.7513 3.7513 0 01-.156.73706 4.87579 4.87579 0 01-.63592 1.2912 18.67037 18.67037 0 01-1.81257 1.96673l-1.82055 1.847-3.64112 3.69409a15.39342 15.39342 0 00-1.69744 1.851 2.84942 2.84942 0 00-.42749 2.20362 1.71586 1.71586 0 001.73382 1.08819 8.82309 8.82309 0 002.47705-.24817l.0481-.007c-.05518.00544.069-.02819.1159-.0625a1.977 1.977 0 00.20032-.11969c.13587-.0827.26843-.18982.40265-.28625.26471-.20837.52258-.43079.77673-.66034q.75586-.69736 1.471-1.45093c.95587-.999 1.87232-2.0415 2.76825-3.1015q1.35288-1.58249 2.62824-3.233a7.35837 7.35837 0 011.46124-1.59351 3.29862 3.29862 0 011.02826-.49658 1.42852 1.42852 0 011.259.164 1.70054 1.70054 0 01.57666 1.10321 3.02557 3.02557 0 01-.03772 1.15552 3.849 3.849 0 01-.41229 1.04706l-.46845.9201a21.53323 21.53323 0 00-1.48272 3.82624 8.76911 8.76911 0 00-.3299 1.97827 3.51127 3.51127 0 00.33734 1.83423c.3418.59436.632.7276 1.15015.37194a5.81711 5.81711 0 001.323-1.3991 60.89445 60.89445 0 004.058-7.20636 40.21368 40.21368 0 012.06506-3.71192c.09974-.153.22541-.31091.34681-.46472l.342-.39478.6842-.78961 1.36853-1.57928 5.43115-6.27576a7.7779 7.7779 0 001.36365-3.49029 9.20042 9.20042 0 00-.35766-3.79718.81375.81375 0 01-.03278-.26929l.45477-9.09375.52985-9.09 1.06189-18.18072c.17346-3.03736.46222-6.048.50433-9.07788q.12048-4.54514.12781-9.09327c-.00378-3.03082-.007-6.06286-.13153-9.08972-.064-1.513-.15344-3.0246-.29871-4.52984a21.531 21.531 0 00-.79138-4.4419l-.00317-.00964a.09036.09036 0 01.171-.0586z"></path><path fill="#020202" d="M475.146 355.633c.16293 9.05535-10.56775 11.87155-10.56775 11.87155s-57.755 9.662-62.10142-12.72281c-4.34661-22.3848 21.94993-31.9473 21.94993-31.9473 45.42177-26.29665 48.80846-22.16747 48.80846-22.16747l-.10855 10.80308a206.38211 206.38211 0 001.29485 22.81048s.39839 8.61164.62477 16.7252c-3.31418-.661-6.64671-1.15911-9.979-1.59375-3.48618-.4709-6.97258-.84209-10.468-1.1863-3.49524-.30786-6.9907-.59758-10.495-.77875-3.50453-.19013-7.0179-.31692-10.54962-.2716 3.45921.69728 6.93654 1.22245 10.41365 1.68418 3.4864.47089 6.9728.83324 10.468 1.16817 3.49524.308 6.9907.59768 10.49523.77886 3.3595.19012 6.72806.3168 10.11475.28066C475.09162 352.64483 475.11881 354.17513 475.146 355.633zM461.70159 284.15419l.282.4-.00866-.01343.07843.10388-.01142-.01318a.17669.17669 0 01.05731.12451l-.01355-.0567.09156.14288.006.00983c.35358.52289.66193 1.07221.97735 1.61871a.18.18 0 01.024.08155l.0011.02484.00037.00885-.02692-.1098c.31372.55481.6 1.1195.86871 1.70666l-.02465-.05084c.10571.2146.15289.34155.21887.48932l.189.43762c.12622.28894.23279.59827.34912.89954l.0163.11328c-.01544-.15021-.02-.1 0-.06568l-.022-.0531a.48784.48784 0 01.03644.09253.50684.50684 0 01.01733.12628l-.04334-.18353a.54718.54718 0 01.06446.24664l-.01746-.1184.18726.55993-.11041.429c.01336-.03241.06268-.0152.11938-.24219a.44282.44282 0 00-.04962-.269c-.01721-.029-.00617-.01251.01007.01855a.51264.51264 0 01.04816.2038l.00024.00732-.01416-.11059a12.53659 12.53659 0 01.44666 2.40161 8.09383 8.09383 0 01-.01221 1.26257 6.88 6.88 0 01-.25226 1.26862l-.27142-.7088a13.62418 13.62418 0 001.9508.76635 12.589 12.589 0 002.04157.44593 7.06247 7.06247 0 002.0011-.00782 4.63774 4.63774 0 00.92047-.24414l1.02057-.41919-.50049.74292-.124-2.78289a.77725.77725 0 01.85565-.80713l.02215.0025c1.77625.1936 3.55493.3537 5.33167.50867q2.66665.22549 5.33294.36c1.7771.09339 3.55671.1554 5.32892.10449a23.05178 23.05178 0 005.19257-.60034l.0542-.01489a.42432.42432 0 01.52173.29657.43815.43815 0 01.015.12561l-.03033.98682-.00452-.06018.22009 1.80029-.36627-.30145a38.13983 38.13983 0 005.33283-.51508 30.82822 30.82822 0 005.1651-1.39636 25.99017 25.99017 0 008.96844-5.61347l-.17285.39045-.00031-.00885a.49271.49271 0 01.15155-.37024l.02381-.02271a21.267 21.267 0 001.71576-1.8352c.26611-.32233.52185-.65064.76092-.98627a10.57665 10.57665 0 00.64649-1.00879l-.071.47015c-.62182-2.49316-1.186-4.99835-1.85144-7.47912q-.93036-3.73737-1.95868-7.44837c-1.37024-4.94793-2.81829-9.872-4.30731-14.78491-1.51855-4.90289-3.01465-9.81769-4.70172-14.67059q-2.44382-7.31-5.17895-14.53125l-.00477-.01264a.0951.0951 0 01-.00592-.03759l.00049-.00885.01184.05243-.22589-.56928a.09049.09049 0 01.05072-.11749.09564.09564 0 01.11572.04614l.28113.53534a.09932.09932 0 01.01129.04059l.00061.01227.00049.00885-.01056-.04987c2.31574 4.61261 4.32618 9.36865 6.2439 14.15942 1.84912 4.81623 3.6438 9.65961 5.2074 14.57959 1.61279 4.90442 2.9928 9.88294 4.25311 14.88813 1.30225 4.99518 2.38226 10.04541 3.38806 15.10528l.00769.0387a.598.598 0 01-.07873.43182 11.57818 11.57818 0 01-.80725 1.12079c-.28052.34967-.57349.68427-.874 1.00879a22.38832 22.38832 0 01-1.91436 1.82745l.17517-.39257-.00025.00885-.001.03283a.48975.48975 0 01-.17212.35791 27.80709 27.80709 0 01-4.49652 3.147 31.27534 31.27534 0 01-4.984 2.23144 37.38107 37.38107 0 01-5.26093 1.40418 52.78128 52.78128 0 01-5.40283.66992.343.343 0 01-.36261-.27985l-.00391-.02179-.32019-1.78522-.00378-.035-.00073-.02563-.03034-.98682.59076.40711a23.312 23.312 0 01-5.4353.9837c-1.813.154-3.628.217-5.43946.20349a92.64658 92.64658 0 01-10.80682-.81439l.87763-.80445.07525 2.77668a.77288.77288 0 01-.50067.74316l-1.036.38648a6.105 6.105 0 01-1.22052.28192 8.46425 8.46425 0 01-2.40137-.0636 12.30686 12.30686 0 01-2.24634-.59308 14.68371 14.68371 0 01-2.11248-.95557.58639.58639 0 01-.27716-.692l.00561-.01721a6.07025 6.07025 0 00.25452-1.01685 7.096 7.096 0 00.08252-1.078 11.5354 11.5354 0 00-.26355-2.2265l-.007-.03217a.33382.33382 0 01-.0072-.0788l.00024-.00732a.49027.49027 0 00.04559.1897c.01514.02893.02485.04339.00641.01226a.45367.45367 0 01-.05133-.27594c.05756-.23193.1106-.21838.1272-.25427l-.11029.42865-.13867-.5625-.01752-.11883a.28914.28914 0 00.02832.1203 1.01715 1.01715 0 01-.032-.12281l-.01136-.06115a.4205.4205 0 00.01313.08911.28372.28372 0 00.02264.05762l-.02215-.05347a.56091.56091 0 01-.03614-.192l.01624.11292c-.08527-.29486-.15723-.58979-.2569-.88843l-.14673-.4447c-.04632-.14618-.10766-.3147-.12518-.38971l-.02484-.05121c-.20355-.57459-.43366-1.153-.6886-1.71588l-.01007-.02222a.19569.19569 0 01-.017-.088l.00043-.00885.025.106c-.26751-.56275-.5155-1.13721-.7973-1.69513l.0058.00946-.08936-.18274-.01367-.05713c.01209.064.005.02594.02124.05249l-.00055.0022-.00226-.00055-.00885-.0152-.06622-.1131-.00891-.01373-.225-.41492-.0028-.00519a.09049.09049 0 01.1535-.09527zM448.45141 178.64686a15.31656 15.31656 0 00-2.48151 5.69763 19.23115 19.23115 0 00-.41058 3.04963 22.61 22.61 0 00.10272 3.07458l.08679.76813a5.87389 5.87389 0 01.04187.93017 7.324 7.324 0 01-.30341 1.77039 6.11324 6.11324 0 01-1.9616 2.97577 26.34531 26.34531 0 00-2.56855 1.84192 3.6349 3.6349 0 00-.81781 1.1582 2.22539 2.22539 0 00-.17749 1.322l-.0216-.049a1.71 1.71 0 00.52795.52588 2.351 2.351 0 00.76361.31751 4.29294 4.29294 0 001.73132.0249.27057.27057 0 01.31525.21692l.00379.02887.0014.01983c.06244.8421.11725 1.68463.19989 2.52442a27.04963 27.04963 0 001.62067 7.29 3.71758 3.71758 0 001.15246 1.69819c.05207.01971.09088.05981.14551.07495l.26587.08618c.18616.05572.37744.10773.572.15491.387.09979.783.18615 1.1825.25982a26.53694 26.53694 0 004.90087.3833c.82526-.02069 1.65064-.03753 2.47681-.08807l1.26013-.09052a5.40321 5.40321 0 011.52564.10352 4.96255 4.96255 0 012.64795 1.57544 7.28708 7.28708 0 011.38971 2.50134 16.55252 16.55252 0 01.78 5.24756 28.45522 28.45522 0 01-.43488 5.15814l.00177-.03991-.0835 1.14782-.0534.57062c-.02521.20276-.02454.3523-.07105.59876a.08453.08453 0 01-.16723-.00782l-.00458-.0495-.20789-2.24652.00183-.04028a39.18329 39.18329 0 00-.23345-5.01477 18.34006 18.34006 0 00-1.1045-4.724 4.12623 4.12623 0 00-2.84417-2.80176 4.551 4.551 0 00-1.00715-.045l-1.27984.08551c-.86865.04864-1.7406.07233-2.6131.04523a28.2804 28.2804 0 01-5.21918-.62494c-.43152-.09894-.86206-.20783-1.291-.342-.21375-.06842-.42755-.14307-.64295-.22486l-.331-.13488a2.90093 2.90093 0 01-.40735-.2381 3.53245 3.53245 0 01-1.028-1.222 7.686 7.686 0 01-.54731-1.28552c-1.00811-3.449-.88763-6.864-1.10229-10.27344l.32019.26544a5.36212 5.36212 0 01-1.95032-.00354 3.53009 3.53009 0 01-.95367-.35363 2.26842 2.26842 0 01-.80994-.73035.16077.16077 0 01-.02008-.04315l-.00171-.00623a3.77656 3.77656 0 01.86664-3.38574 23.01069 23.01069 0 012.39508-2.18445 5.605 5.605 0 001.36273-2.40722 5.88382 5.88382 0 00.22132-1.38215 4.25379 4.25379 0 00-.00824-.66955l-.06965-.82666a16.48412 16.48412 0 01.74634-6.57691 12.56464 12.56464 0 013.49121-5.509.0906.0906 0 01.13288.12158zM519.39938 291.32193c-10.86642 8.25847-24.48147 9.10922-24.48147 9.10922s2.69425 17.00637-.88257 46.09226a23.00113 23.00113 0 00-.38026 4.53673 87.73514 87.73514 0 018.9919-.20836 83.14081 83.14081 0 019.35425.67009 30.09066 30.09066 0 0012.1794-8.25848C536.351 326.52913 519.39938 291.32193 519.39938 291.32193zm-16.77959 60.43538c-2.98809-.09053-5.97662-.23544-8.96471-.61581.07252.89647.2989 1.59375.7877 1.68439L493.2567 367.1786l16.58018 1.07764s-2.7438-10.3775 1.67532-16.3812l.489-.35317A83.23727 83.23727 0 01502.61979 351.75731zm3.46827 14.8508a1.35916 1.35916 0 010-2.71661A1.35916 1.35916 0 01506.08806 366.60811zm.978-12.98545a1.35916 1.35916 0 010 2.7166A1.35916 1.35916 0 01507.06611 353.62266zm-.978 5.37893a1.35917 1.35917 0 010 2.71661A1.35917 1.35917 0 01506.08806 359.00159z"></path><path fill="#020202" d="M524.16594,343.17463a22.40637,22.40637,0,0,1,7.05567-.92157,17.02825,17.02825,0,0,1,3.608.46393,9.7692,9.7692,0,0,1,3.42792,1.49121,7.09393,7.09393,0,0,1,2.38977,2.95166c.241.62238.36,1.145.59741,1.64008a6.40649,6.40649,0,0,0,.91437,1.40008,12.25327,12.25327,0,0,0,5.8916,3.33484,52.33192,52.33192,0,0,0,6.75537,1.31189c1.16345.15027,2.22278.2464,3.47309.31311a22.33239,22.33239,0,0,1,3.56738.73035,15.0213,15.0213,0,0,1,3.41791,1.46521,7.47368,7.47368,0,0,1,1.53973,1.247,3.81686,3.81686,0,0,1,.983,1.90246,3.55535,3.55535,0,0,1-.30108,2.08435,6.18965,6.18965,0,0,1-1.08271,1.57392,12.83869,12.83869,0,0,1-2.83,2.2091.0911.0911,0,0,1-.12519-.03051.09428.09428,0,0,1,.01422-.11261,18.64072,18.64072,0,0,0,2.21827-2.629,5.15253,5.15253,0,0,0,.69689-1.42859,2.5379,2.5379,0,0,0,.01856-1.35175,3.79255,3.79255,0,0,0-2.00324-1.94073,15.52384,15.52384,0,0,0-3.07641-1.13129,31.97077,31.97077,0,0,0-3.28662-.71686c-1.07965-.10906-2.343-.289-3.488-.50115a28.99416,28.99416,0,0,1-6.8313-2.06342,19.45774,19.45774,0,0,1-5.985-3.87018,8.70978,8.70978,0,0,1-1.1316-1.43475,6.15283,6.15283,0,0,1-.45861-.81116l-.38953-.73865a6.10641,6.10641,0,0,0-2.30725-2.13775,16.90765,16.90765,0,0,0-6.31848-1.8208,57.16881,57.16881,0,0,0-6.923-.29993.09136.09136,0,0,1-.09564-.08679A.0964.0964,0,0,1,524.16594,343.17463Z"></path><path fill="#020202" d="M514.18773,350.68458a32.844,32.844,0,0,0,3.559-.60333,11.59173,11.59173,0,0,0,1.68085-.52008c.57166-.24139,1.15332-.43756,1.73877-.62994a22.12567,22.12567,0,0,1,7.34357-1.20508,9.96532,9.96532,0,0,1,3.81482.81744,6.992,6.992,0,0,1,1.70648,1.14337,6.33738,6.33738,0,0,1,1.24182,1.66028,7.89657,7.89657,0,0,1,.68213,1.90027l.23193.74139a6.26462,6.26462,0,0,0,.351.699,8.06553,8.06553,0,0,0,2.25775,2.34552,21.23858,21.23858,0,0,0,6.42224,2.80963c1.15277.31488,2.32312.58771,3.50689.80158,1.17975.2146,2.38416.3258,3.59742.53112a31.50961,31.50961,0,0,1,7.04931,1.99408,12.93668,12.93668,0,0,1,3.275,1.79706,4.58422,4.58422,0,0,1,1.23632,1.54852,3.79348,3.79348,0,0,1,.3194.98066,5.97579,5.97579,0,0,1,.03528,1.02563,7.91956,7.91956,0,0,1-1.44629,3.58667,17.37336,17.37336,0,0,1-1.11291,1.52075l-.14576.18457-.21789.20911a2.16177,2.16177,0,0,1-.457.351,5.27223,5.27223,0,0,1-.93708.47339,24.02588,24.02588,0,0,1-7.42962,1.06128,78.88137,78.88137,0,0,1-14.64313-1.13434,43.17454,43.17454,0,0,1-7.19165-1.82818c-1.2384-.48493-2.20264-.96552-3.35461-1.34308-1.11707-.39319-2.26734-.72254-3.42353-1.03449-4.63861-1.233-9.41418-2.08783-14.198-2.86456a.0907.0907,0,0,1-.07745-.10224.09286.09286,0,0,1,.09326-.07818,89.994,89.994,0,0,1,14.51087,1.66748c1.19745.26556,2.3938.5498,3.5813.908,1.17193.322,2.41668.85547,3.45373,1.20294a48.03159,48.03159,0,0,0,6.93158,1.5683,95.73929,95.73929,0,0,0,14.30194,1.33484c1.193.00574,2.38318-.035,3.5586-.12116a14.89634,14.89634,0,0,0,3.38617-.58349,3.92351,3.92351,0,0,0,.69787-.31116,1.0137,1.0137,0,0,0,.27179-.18573l.11957-.09521.14307-.16633a16.81583,16.81583,0,0,0,1.12536-1.34075,6.89426,6.89426,0,0,0,1.47437-2.989,3.18921,3.18921,0,0,0-1.1203-2.8601,10.73571,10.73571,0,0,0-3.00006-1.81592,25.11473,25.11473,0,0,0-6.89765-1.9798c-4.76648-.48792-9.81689-.83472-14.275-3.46893a8.8624,8.8624,0,0,1-2.80915-2.77814,7.81481,7.81481,0,0,1-.4674-.91962l-.31641-.99176a6.99616,6.99616,0,0,0-.52032-1.51892c-.88727-1.93811-3.13874-2.80054-5.41181-2.95129a23.90578,23.90578,0,0,0-7.00653.73144c-.58056.13721-1.15784.29785-1.72815.46253a12.28032,12.28032,0,0,1-1.84125.365,22.94445,22.94445,0,0,1-3.66461.17889.09079.09079,0,0,1-.08789-.0935A.09319.09319,0,0,1,514.18773,350.68458Z"></path><path fill="#fff" d="M475.48094,351.08723c-.14481,0-.28983.00906-.43464,0v-.08147Q475.26352,351.04655,475.48094,351.08723Z"></path><path fill="#020202" d="M459.05047,299.03059a27.30248,27.30248,0,0,1-2.75238,4.50024,26.99035,26.99035,0,0,1-3.48114,3.96357,26.99065,26.99065,0,0,1,2.75244-4.50025A27.29889,27.29889,0,0,1,459.05047,299.03059Z"></path><line x1="516.906" x2="518.64" y1="286.178" y2="291.322" fill="none" stroke="#020202" stroke-linecap="round" stroke-linejoin="round" stroke-width=".906"></line><path fill="#020202" d="M443.22759,283.13563c-2.35529,2.46363-4.77148,4.86334-7.17609,7.27832l-3.6762,3.55731-.9405.87958c-.1571.1452-.3468.29761-.48577.43738l-.36115.40295c-.516.64277-1.01544,1.324-1.51446,2.00611-3.97864,5.49566-7.82746,11.12189-11.79584,16.65832-1.998,2.76233-4.00794,5.50989-6.18311,8.17182-2.18274,2.62616-4.41516,5.22381-6.82092,7.66546A102.9825,102.9825,0,0,1,388.40734,343.13a.32438.32438,0,0,1-.06366.032q-6.79587,2.4798-13.50165,5.19922l-3.33288,1.38574a21.54045,21.54045,0,0,0-3.14875,1.547,4.93514,4.93514,0,0,0-1.18561,1.04046,1.08988,1.08988,0,0,0-.24285.50244.309.309,0,0,0,.10333.30219,2.74555,2.74555,0,0,0,1.21838.60846,11.88435,11.88435,0,0,0,1.66059.30109.73951.73951,0,0,1,.28216,1.37207l-.0188.01086a21.40007,21.40007,0,0,0-2.25561,1.495,9.84172,9.84172,0,0,0-.98657.85193,2.65332,2.65332,0,0,0-.62372.84247c-.04914.12116-.015.11188-.02442.08722a.82508.82508,0,0,0,.13227.0943,3.35732,3.35732,0,0,0,1.05865.29828,16.67608,16.67608,0,0,0,2.65826.12189.85705.85705,0,0,1,.53309,1.53857l-.02045.01538a11.24618,11.24618,0,0,0-1.35364,1.2013,3.97636,3.97636,0,0,0-.89355,1.29241c-.06128.19269-.0362.27546-.01667.3125a.68389.68389,0,0,0,.30463.24531,4.77769,4.77769,0,0,0,1.5708.39422.91349.91349,0,0,1,.73981,1.25366l-.00763.01783a1.30407,1.30407,0,0,0-.09247.67675c.00336.044-.00244-.03936-.02478-.01873.02972-.00666.03082.00585.0658.01715a.81012.81012,0,0,1,.16009.018,6.41811,6.41811,0,0,0,2.16937-.56732c1.54139-.68292,3.16413-1.50653,4.69941-2.33374,1.54882-.83618,3.06158-1.73315,4.51355-2.69019a19.41206,19.41206,0,0,0,3.89727-3.22308l.03382-.03906a.79331.79331,0,0,1,.16852-.14514,13.58736,13.58736,0,0,1,1.89471-1.01172,8.15938,8.15938,0,0,1,2.15375-.634c.20764-.01319.409-.03431.62158-.03309.22418.0207.44726.04218.67029.07868a6.39472,6.39472,0,0,1,.69238.25812,5.52769,5.52769,0,0,1,.61334.47033,3.79806,3.79806,0,0,1,.83515,2.42994.63673.63673,0,0,1-.04889.32l-.02509.05719a28.1257,28.1257,0,0,0-2.46924,8.01087,4.02756,4.02756,0,0,0,.17932,1.79,1.03278,1.03278,0,0,0,.44489.5019,4.88986,4.88986,0,0,0,.8205.44983c.69665.495,1.67364-1.03193,2.42358-2.1438,1.53888-2.40247,3.07288-4.94251,4.55945-7.35034a22.14881,22.14881,0,0,0,2.0567-8.28467.09066.09066,0,0,1,.09613-.08472.092.092,0,0,1,.0849.09,21.6182,21.6182,0,0,1-1.56793,8.60357c-.68,1.35468-1.41077,2.54956-2.10779,3.83661-.70636,1.26648-1.4,2.5365-2.14771,3.80048a15.33191,15.33191,0,0,1-1.26635,1.88214,3.13249,3.13249,0,0,1-1.0343.863,1.90179,1.90179,0,0,1-.79554.19323,2.45118,2.45118,0,0,1-.7417-.13775,5.45961,5.45961,0,0,1-1.10522-.54633,2.392,2.392,0,0,1-.57489-.45569,2.52006,2.52006,0,0,1-.419-.6206,5.30054,5.30054,0,0,1-.36828-2.47943,20.05281,20.05281,0,0,1,.8764-4.43317,41.96592,41.96592,0,0,1,1.50275-4.1814l-.074.37683a2.25513,2.25513,0,0,0-.39734-1.26782,1.26182,1.26182,0,0,0-1.10864-.19775,6.46977,6.46977,0,0,0-1.63745.51672,11.88469,11.88469,0,0,0-1.59985.87732l.202-.184a21.02291,21.02291,0,0,1-4.26306,3.64551,53.507,53.507,0,0,1-4.67071,2.79242c-1.60828.85553-3.16413,1.6615-4.89075,2.40466a7.82719,7.82719,0,0,1-2.999.66705c-.16791-.01928-.33637-.04412-.50238-.074a3.382,3.382,0,0,1-.55756-.221,1.83733,1.83733,0,0,1-.813-1.05627,2.38614,2.38614,0,0,1-.05975-1.05561,3.57282,3.57282,0,0,1,.24127-.88024l.73212,1.2713a6.38636,6.38636,0,0,1-2.21112-.62989,2.37771,2.37771,0,0,1-1.07715-1.10223,2.19181,2.19181,0,0,1-.02985-1.60828,5.53759,5.53759,0,0,1,1.31738-1.93377,12.84953,12.84953,0,0,1,1.61231-1.38575l.51263,1.55384a18.1876,18.1876,0,0,1-2.95794-.18683,4.78458,4.78458,0,0,1-1.61884-.52283,2.86917,2.86917,0,0,1-.44318-.335,1.71811,1.71811,0,0,1-.37561-.56787,1.68784,1.68784,0,0,1,.02088-1.27863,4.087,4.087,0,0,1,1.03558-1.40539,11.3784,11.3784,0,0,1,1.168-.958,22.816,22.816,0,0,1,2.478-1.549l.2633,1.38281a13.23557,13.23557,0,0,1-1.88623-.397,3.886,3.886,0,0,1-1.896-1.12195,1.86405,1.86405,0,0,1-.336-.63629,1.77217,1.77217,0,0,1-.02484-.73792l.08154-.34.13641-.28a2.50021,2.50021,0,0,1,.32209-.4834,6.14236,6.14236,0,0,1,1.56268-1.28454,22.42883,22.42883,0,0,1,3.39984-1.51246l3.40332-1.2611,13.6449-4.86054-.0633.03186A75.69233,75.69233,0,0,0,403.56066,329.522c2.26636-2.51318,4.37024-5.17358,6.42731-7.873,2.02349-2.69855,3.98639-5.48328,5.97454-8.23987l5.991-8.26819c2.01337-2.74762,3.98932-5.52069,6.09277-8.2182.534-.6709,1.06824-1.3421,1.64588-2.00427.15552-.17108.34534-.35089.5188-.52136.16894-.15332.31781-.26093.47912-.39771l.95887-.82666,3.80517-3.39465,7.64838-6.77344a.09061.09061,0,0,1,.12793.00775A.09167.09167,0,0,1,443.22759,283.13563Z"></path><path fill="#020202" d="M443.22487,283.13184c-2.35448,2.46308-4.77219,4.86271-7.172,7.28053l-3.6763,3.55875-.94179.87834c-.15409.14492-.34422.29884-.489.43469l-.36234.40745c-.516.64295-1.01409,1.3221-1.51217,2.00125l-11.79009,16.66186c-2.00119,2.76187-4.01145,5.51468-6.18465,8.17695-2.18248,2.62608-4.41912,5.21589-6.8187,7.66085a103.46962,103.46962,0,0,1-15.87405,12.94007.44214.44214,0,0,1-.06345.02719q-6.79152,2.48564-13.50145,5.19776c-1.11379.45277-2.22758.9146-3.3323,1.38544a22.55373,22.55373,0,0,0-3.1424,1.54849,4.79918,4.79918,0,0,0-1.18609,1.04139,1.63984,1.63984,0,0,0-.17221.27164l-.06323.12679a.44035.44035,0,0,1-.00907.10866.29047.29047,0,0,0,.09949.29879,2.74658,2.74658,0,0,0,1.22256.60675c.26264.0724.53434.12673.80583.18106l.41651.05433.43464.06339a.751.751,0,0,1,.63405.84214.77127.77127,0,0,1-.36213.54336h-.00928c-.41651.24451-.84209.5071-1.24954.78781q-.516.33957-1.005.70629a11.49082,11.49082,0,0,0-.98712.8512,2.87853,2.87853,0,0,0-.625.8422.242.242,0,0,0-.01813.09053l.00928.00906a.659.659,0,0,0,.11762.08147,3.22007,3.22007,0,0,0,1.0594.29884,13.53325,13.53325,0,0,0,2.03745.12679h.62477a.85817.85817,0,0,1,.8695.84214.77793.77793,0,0,1-.08158.35317.73072.73072,0,0,1-.25357.34411l-.0272.009a12.12,12.12,0,0,0-1.34924,1.20438,4.03956,4.03956,0,0,0-.89647,1.29491c-.06322.19018-.03625.27165-.01812.3079a.66774.66774,0,0,0,.308.24451,3.88441,3.88441,0,0,0,1.24046.35312c.10877.01813.21755.03626.32609.04527a.91072.91072,0,0,1,.80583,1.01425.69221.69221,0,0,1-.06323.23539l-.00906.01813a1.70273,1.70273,0,0,0-.05438.163v.00906a1.009,1.009,0,0,0-.03626.498.12123.12123,0,0,1,.04532.00907.89008.89008,0,0,1,.15387.01813,6.35763,6.35763,0,0,0,2.17342-.57049c1.53936-.67916,3.1603-1.50322,4.69967-2.32724,1.54843-.84214,3.06082-1.73861,4.50954-2.69847a19.60231,19.60231,0,0,0,3.90291-3.21469l.02719-.04527a.859.859,0,0,1,.172-.14486,15.28111,15.28111,0,0,1,1.89243-1.0142,8.30477,8.30477,0,0,1,2.15529-.63388c.20825-.00907.40744-.02719.62476-.02719a5.8779,5.8779,0,0,1,.67009.08152,5.65591,5.65591,0,0,1,.68822.25352,5.267,5.267,0,0,1,.6157.4709,3.827,3.827,0,0,1,.83324,2.42682.689.689,0,0,1-.05439.33505l-.01812.04532a40.27855,40.27855,0,0,0-1.54843,3.95718,19.28337,19.28337,0,0,0-.92367,4.05678,4.11337,4.11337,0,0,0,.18107,1.78387.93786.93786,0,0,0,.18128.28072.38222.38222,0,0,0,.09949.10871l.05438.04527.10877.0724a4.39419,4.39419,0,0,0,.824.44376c.69728.498,1.6751-1.03232,2.41771-2.1371,1.53936-2.4087,3.079-4.94419,4.56393-7.35294a22.24348,22.24348,0,0,0,2.05558-8.28561.08654.08654,0,0,1,.0997-.08153.08365.08365,0,0,1,.08136.09059,21.55642,21.55642,0,0,1-1.56656,8.60258c-.67915,1.34924-1.41268,2.54455-2.11,3.8304-.70613,1.26771-1.39456,2.54455-2.146,3.80325a15.59235,15.59235,0,0,1-1.26788,1.88348,3.11033,3.11033,0,0,1-1.03221.86027,1.91787,1.91787,0,0,1-.797.19924,2.351,2.351,0,0,1-.74238-.14491,5.71394,5.71394,0,0,1-1.10494-.5433,2.23,2.23,0,0,1-.57038-.45277,2.31775,2.31775,0,0,1-.42558-.62482,5.30358,5.30358,0,0,1-.36234-2.48116,20.20031,20.20031,0,0,1,.86949-4.42808c.40745-1.34017.87835-2.64414,1.41247-3.93905a1.92478,1.92478,0,0,0-.38025-1.13192,1.23038,1.23038,0,0,0-1.10473-.19925,6.44373,6.44373,0,0,0-1.63907.51617,12.42705,12.42705,0,0,0-1.5303.83307,21.643,21.643,0,0,1-4.12929,3.50442,53.41668,53.41668,0,0,1-4.67248,2.78906c-1.60282.86027-3.16031,1.66621-4.8898,2.4087a7.85571,7.85571,0,0,1-2.99738.67014c-.172-.02719-.33515-.04532-.50715-.08152a3.8688,3.8688,0,0,1-.55225-.21732,1.9517,1.9517,0,0,1-.76073-.88741.63072.63072,0,0,1-.05438-.172,2.333,2.333,0,0,1-.08158-.84214,5.00733,5.00733,0,0,1-.86022-.28077,3.168,3.168,0,0,1-.35306-.172,2.37807,2.37807,0,0,1-1.07753-1.09572,2.06722,2.06722,0,0,1-.136-1.19531,2.53339,2.53339,0,0,1,.10877-.41657,5.248,5.248,0,0,1,1.24046-1.85633c-.172-.00907-.344-.0362-.516-.05433-.08158-.00907-.16316-.02714-.24451-.0362a4.81762,4.81762,0,0,1-1.62095-.52523,3.54778,3.54778,0,0,1-.4437-.335,1.68231,1.68231,0,0,1-.37141-.57049,1.71561,1.71561,0,0,1,0-1.24058c.00906-.01813.00906-.02719.01813-.0362a4.081,4.081,0,0,1,1.0415-1.40363c.26264-.25352.53412-.4799.81489-.70628.24451-.17206.489-.35318.73354-.52523a.06873.06873,0,0,1,.03625-.01813c.14481-.09053.28077-.19013.42558-.28071-.00907,0-.00907,0-.01813-.009a3.72326,3.72326,0,0,1-1.86546-1.10478,1.93856,1.93856,0,0,1-.34421-.63389,1.878,1.878,0,0,1-.01791-.74254,2.36423,2.36423,0,0,1,.08136-.344l.136-.27171a2.84494,2.84494,0,0,1,.3168-.489,6.26844,6.26844,0,0,1,1.56678-1.28584,23.21029,23.21029,0,0,1,3.39576-1.51229l3.4046-1.25865,13.61021-4.84464a75.671,75.671,0,0,0,15.45754-13.094c2.26384-2.51741,4.36474-5.17062,6.42939-7.8691,2.01932-2.69853,3.98426-5.48754,5.96733-8.2404,3.98426-5.52374,7.91436-11.07467,12.089-16.48975.53412-.67014,1.06847-1.34023,1.64791-2.00125.15409-.17206.34422-.35317.51622-.52523.17222-.15392.317-.26258.48-.39844l.95992-.824,3.8032-3.39575,7.64266-6.77339a.09854.09854,0,0,1,.136.009A.085.085,0,0,1,443.22487,283.13184Z"></path><path fill="#020202" d="M382.28011 347.99875c-1.01793.97929-7.98454 5.21023-9.16419 5.91193-.9639.57067-1.94324 1.11042-2.938 1.61166-.23138.11569-.46275.23133-.70184.347a29.2307 29.2307 0 01-2.83768 1.24149c.00772-.01544.00772-.02315.01544-.03083a3.47519 3.47519 0 01.8869-1.19527c.22366-.21589.45484-.40867.69394-.60145.20822-.14652.41643-.30075.62465-.44726a.05853.05853 0 01.03088-.01544c.11559-.08481.23118-.16963.347-.24672.46256-.3239.933-.64 1.411-.95623.55537-.35468 1.11055-.7017 1.68118-1.03327C373.5092 351.875 380.93065 348.43057 382.28011 347.99875zM382.28011 352.13085c-1.11044 1.2008-8.15866 6.14-9.46629 7.06118l-.71566.49352c-1.08555.74022-2.18776 1.43936-3.3229 2.11381-.19739.11511-.39478.23027-.59217.3372a2.30172 2.30172 0 01.0988-.37836 4.76662 4.76662 0 011.12671-1.6861c-.15623-.00823-.31245-.03288-.46868-.04935.61687-.48524 1.24177-.9623 1.8751-1.42289.34559-.2632.6992-.50994 1.05282-.75668C373.17567 356.922 380.77489 352.77237 382.28011 352.13085zM382.28011 356.12966c-.96719 1.16048-8.219 7.097-9.4046 7.9715-.23548.17662-.47939.35318-.72329.52137v.00842c-.5381.38685-1.07641.76522-1.63135 1.12687a.58574.58574 0 01-.0505-.15978 2.16643 2.16643 0 01-.07576-.78206 4.6497 4.6497 0 01-.79884-.26073c.52989-.44567 2.06023-1.63135 2.27909-1.79955C373.05207 361.87274 380.89246 356.73515 382.28011 356.12966zM480.61431 230.77992a14.25389 14.25389 0 019.08111.70789 20.38921 20.38921 0 017.34546 5.5913 42.30417 42.30417 0 015.20984 7.63007 71.24923 71.24923 0 013.88636 8.3548 144.74716 144.74716 0 015.48132 17.53235c1.52179 5.92968 2.62189 11.95068 3.64545 17.97277a.81118.81118 0 01.01068.1269v.00885l-.01062-.126c1.41449 8.787 2.39257 17.63342 3.16876 26.48541.36181 4.42914.763 8.85346 1.04925 13.28711.27979 4.43439.56336 8.86469.7627 13.30823l-.462-.24616a26.84245 26.84245 0 019.01526-3.16149 23.8931 23.8931 0 019.56757.293c1.57831.37195 3.07928.96943 4.54175 1.43293a26.75 26.75 0 004.53479.951 16.44 16.44 0 004.55218-.06434 11.33206 11.33206 0 002.15845-.57226 6.97925 6.97925 0 001.83142-1.012l.01868 1.02857a25.47725 25.47725 0 01-4.7193-6.83875c-1.25757-2.41491-2.37915-4.88018-3.44812-7.3645-2.12915-4.97156-4.05964-10.009-5.95685-15.05438-3.81165-10.08466-7.32178-20.26324-11.03461-30.36047-3.755-10.07715-7.44482-20.18634-11.875-29.96515-1.10425-2.45215-2.25366-4.84778-3.56006-7.17713a57.09664 57.09664 0 00-4.40545-6.67016 42.04707 42.04707 0 00-11.7583-10.74073l-.00733-.00427a.17559.17559 0 01-.08655-.15478l.00019-.00885.09314.15838c-.62195-.36242-1.25727-.70263-1.90723-1.01324q-.48716-.23346-.98572-.44257c-.318-.14172-.69812-.2655-.985-.36889l-.05078-.01831a.08534.08534 0 01.05078-.16279 10.31318 10.31318 0 011.06817.33924q.512.19051 1.01459.40552c.67.28643 1.32684.60357 1.97156.944a.17483.17483 0 01.0932.15063l.00012.00806.00018.00885-.09362-.15882a40.92079 40.92079 0 0112.3432 10.45569 64.72123 64.72123 0 018.48022 13.85852c4.60175 9.77716 8.5968 19.8086 12.332 29.91706 3.7555 10.10235 7.35205 20.2547 10.997 30.37377 1.84253 5.05134 3.71741 10.09058 5.779 15.03876 1.03955 2.46845 2.09046 4.93353 3.28449 7.31336a24.509 24.509 0 004.26825 6.48657l.0708.06885a.63787.63787 0 01.01239.9021.69992.69992 0 01-.06452.05792 9.7276 9.7276 0 01-4.73553 1.82837 17.63229 17.63229 0 01-4.88928-.0542 27.81937 27.81937 0 01-4.69959-1.11383c-1.53277-.53467-2.96478-1.13751-4.45593-1.525a23.08945 23.08945 0 00-9.23865-.48974 25.87326 25.87326 0 00-8.80163 2.98785l-.012.00678a.30182.30182 0 01-.41131-.11414.30677.30677 0 01-.03894-.13885c-.143-4.42908-.40766-8.86237-.7685-13.28369-.36047-4.42188-.73-8.84394-1.2539-13.24958-.49811-4.40808-1.08386-8.805-1.71613-13.19287-.60846-4.39227-1.39068-8.75409-2.129-13.12219a.87361.87361 0 01-.01062-.12634V288.696l.01068.12646c-1.03485-5.9931-2.29931-11.93976-3.68847-17.84961a143.29616 143.29616 0 00-5.23645-17.40887c-2.17237-5.62482-4.69013-11.22626-8.5235-15.87427a20.51091 20.51091 0 00-6.87744-5.646 14.27031 14.27031 0 00-8.7948-1.08679.09056.09056 0 01-.10626-.07153A.09254.09254 0 01480.61431 230.77992zM215.71318 184.72361s5.81942 7.24841 14.51255 4.8578c0 0 18.24232-8.01144.799-16.53482s-18.05748-6.48412-24.74038-7.7922c-1.76671-.3458-13.816-3.43351-20.258 4.39987a13.91665 13.91665 0 00-2.91079 10.52512c.12208 1.01054.26531 2.10767.41554 3.07632a13.768 13.768 0 01-.0865 4.73843 46.31555 46.31555 0 00.54958 19.513s10.78168 1.604 16.9289-6.04928c0 0 1.2058-13.55938 8.618-4.70028C209.541 196.75762 215.71318 199.06728 215.71318 184.72361z"></path><path fill="none" d="M468.49022,276.57077c-.12678-.67009-.2445-1.34924-.37127-2.01934-.02717-.13583-.04528-.27166-.07244-.40749"></path><path fill="#020202" d="M443.2553 206.15376a16.35846 16.35846 0 003.35175.04108 4.83808 4.83808 0 001.47534-.46234 6.3875 6.3875 0 001.33813-1.01191 2.83707 2.83707 0 01-.93426 1.5918 3.555 3.555 0 01-1.74915.77808 4.75977 4.75977 0 01-1.8565-.13282A4.26238 4.26238 0 01443.2553 206.15376zM221.37371 215.2967a3.77283 3.77283 0 01-3.283 3.73346 3.70959 3.70959 0 01-2.871-.86242 3.7932 3.7932 0 01-.00275-5.74475 3.70343 3.70343 0 012.87378-.86438A3.77775 3.77775 0 01221.37371 215.2967zm0 0a2.908 2.908 0 00-1.05139-2.23162 2.79818 2.79818 0 00-2.23163-.59626 2.87328 2.87328 0 000 5.66053 2.79983 2.79983 0 002.23251-.6001A2.91078 2.91078 0 00221.37371 215.2967z"></path><path fill="#fff" d="M493.65508 351.06014a.19381.19381 0 010 .0723c-.13574-.00907-.26264-.02709-.39838-.04521C493.39244 351.07816 493.51934 351.06014 493.65508 351.06014zM461.9523 284.72066a.06837.06837 0 01.01813.03614c-.03626-.05427-.06345-.09959-.09064-.14491C461.907 284.64814 461.92511 284.6844 461.9523 284.72066z"></path><path fill="none" d="M468.49022,276.57077c-.12678-.67009-.2445-1.34924-.37127-2.01934-.02717-.13583-.04528-.27166-.07244-.40749"></path><path fill="#020202" d="M549.93514 338.895a1.35911 1.35911 0 000-2.7166 1.35911 1.35911 0 000 2.7166zM543.0893 337.265a1.35912 1.35912 0 000-2.71661 1.35912 1.35912 0 000 2.71661zM536.89544 335.63509a1.35912 1.35912 0 000-2.71661 1.35912 1.35912 0 000 2.71661zM530.70158 335.63509a1.35912 1.35912 0 000-2.71661 1.35912 1.35912 0 000 2.71661z"></path><path d="M330.47729 264.28761a15.3169 15.3169 0 013.51751 1.7793 15.1425 15.1425 0 013.019 2.53466 15.1427 15.1427 0 01-3.51745-1.77929A15.31688 15.31688 0 01330.47729 264.28761zM327.592 267.98286a15.07641 15.07641 0 013.49109 1.762 14.905 14.905 0 012.99261 2.51722 14.90289 14.90289 0 01-3.49108-1.76191A15.07256 15.07256 0 01327.592 267.98286zM323.27031 271.13337a21.70043 21.70043 0 014.153 2.19873 21.45028 21.45028 0 013.65442 2.95411 21.45644 21.45644 0 01-4.153-2.19873A21.69566 21.69566 0 01323.27031 271.13337zM308.85247 273.16761a73.205 73.205 0 017.45819 4.38007 72.34392 72.34392 0 016.95965 5.13544 72.34335 72.34335 0 01-7.45812-4.38007A73.20269 73.20269 0 01308.85247 273.16761zM305.91442 276.82808a73.20309 73.20309 0 017.45819 4.38006 72.3453 72.3453 0 016.95966 5.13544 72.34244 72.34244 0 01-7.45813-4.38007A73.20432 73.20432 0 01305.91442 276.82808zM302.91649 280.85219a73.19811 73.19811 0 017.45813 4.38012 72.33474 72.33474 0 016.95972 5.13544 72.3385 72.3385 0 01-7.45819-4.38013A73.2008 73.2008 0 01302.91649 280.85219zM312.449 269.8401a73.19348 73.19348 0 017.4582 4.38013 72.34444 72.34444 0 016.95965 5.13537 72.34342 72.34342 0 01-7.45813-4.38006A73.19407 73.19407 0 01312.449 269.8401zM313.4937 182.43861a32.25356 32.25356 0 001.59247-7.863 29.32922 29.32922 0 00.0531-4.01428c-.02185-.66882-.14868-1.33056-.21765-1.9953a15.05843 15.05843 0 00-.31482-1.97925l-.4389-1.95593c-.1579-.64844-.40283-1.27344-.59949-1.91058a32.47517 32.47517 0 00-1.49548-3.70673 31.89406 31.89406 0 00-4.40106-6.6311l-.63593-.76648c-.22491-.24365-.46893-.47-.70227-.70587l-1.41394-1.40161-1.54022-1.26032-.77143-.62787c-.26745-.19537-.55108-.36871-.82568-.5542l-1.65924-1.096c-.57141-.33416-1.16473-.63214-1.746-.95044a30.83655 30.83655 0 00-3.62519-1.6297 31.629 31.629 0 00-15.69116-1.55023 30.93262 30.93262 0 00-3.88861.91138c-.63238.20892-1.29.35071-1.90314.61481l-1.8526.76025a30.35546 30.35546 0 00-15.983 17.11334 30.381 30.381 0 00-1.53686 15.73084 30.77839 30.77839 0 006.47577 14.364l.14886.183-.0788.22686-4.90741 14.123-.54937-.63129 19.69616-3.976.12079-.02435.11865.03759a31.20882 31.20882 0 0023.02723-1.55731 30.3462 30.3462 0 0015.54522-17.27716zm.08832.03107a31.79522 31.79522 0 01-15.3916 17.73272 30.953 30.953 0 01-23.5592 1.9762l.23907.01325-19.69391 3.98754-.834.16883.28454-.8003 5.00855-14.08746.07.40949a31.36161 31.36161 0 01-4.65692-30.77631 31.95241 31.95241 0 0123.918-19.80237 31.22431 31.22431 0 0116.06128 1.34308 30.57949 30.57949 0 0113.19586 9.283c.42444.53076.86518 1.04932 1.27057 1.59344l1.11292 1.70685a14.0241 14.0241 0 011.01556 1.7616c.30725.60443.64484 1.19379.926 1.80951a33.27957 33.27957 0 011.41986 3.80243c.18316.651.41394 1.28894.55719 1.94922l.39361 1.9887A32.19147 32.19147 0 01313.582 182.46968z"></path></svg>