<svg xmlns="http://www.w3.org/2000/svg" data-name="Layer 1" viewBox="0 0 700 550" id="female-holding-umbrella-walking-in-rain"><path d="M359.00588,60.09644a49.75283,49.75283,0,0,0-17.12275,8.31115,51.557,51.557,0,0,0-12.8739,14.27706,63.85968,63.85968,0,0,0-7.379,17.72124,66.28632,66.28632,0,0,0-2.139,18.9576s-23.29468-14.50278-38.239,0C281.25225,119.36349,291.61411,71.14524,359.00588,60.09644Z"></path><path d="M365.33484,81.86044l-.03929,3.75812-.13727,3.74835c-.18649,5.00437-.53973,9.99886-.96171,14.99341q-.677,7.50647-1.58961,15.00317s-26.8566-23.28485-43.11573,0a77.23108,77.23108,0,0,1,1.32466-9.39049c.60836-3.09088,1.37376-6.15241,2.27643-9.155a80.34749,80.34749,0,0,1,3.25779-8.81153,61.09577,61.09577,0,0,1,4.337-8.29151A56.42863,56.42863,0,0,1,342.8252,69.60468a54.54254,54.54254,0,0,1,7.71243-5.34772,66.66381,66.66381,0,0,1,8.48789-4.16052c.0097,0,.0097-.00976.01953-.00976,1.66818-.27478,3.37553-.52009,5.11235-.74576.52,5.024.9616,10.00869,1.09887,15.013.06875,1.256.02946,2.512.06875,3.75817C365.35449,79.35823,365.37413,80.61425,365.33484,81.86044Z"></path><path d="M405.84055,109.91413c.81427,3.11052,1.462,6.26033,1.97231,9.44936,0,0-20.54728-22.41159-45.2059,0a113.537,113.537,0,0,0,3.11046-14.81673,149.70683,149.70683,0,0,0,1.40335-15.10133,124.392,124.392,0,0,0-.33371-15.17985,84.30072,84.30072,0,0,0-2.62966-14.92466c.7751-.09816,1.56-.19626,2.34506-.2846a55.019,55.019,0,0,1,16.41617,9.75356,53.70246,53.70246,0,0,1,6.6332,6.80982,61.32128,61.32128,0,0,1,5.5147,7.75184,88.25862,88.25862,0,0,1,8.02649,17.32871Q404.65329,105.24834,405.84055,109.91413Z"></path><path d="M451.74309 119.35367c-.64777-.40228-31.7531-19.99772-43.93023.00982a78.02 78.02 0 00-3.26762-19.1244 75.65681 75.65681 0 00-7.80083-17.888 55.39972 55.39972 0 00-12.84454-14.72846 45.99117 45.99117 0 00-17.39741-8.56629c1.01071-.12756 2.04106-.23548 3.08112-.33358C369.58358 58.72274 431.5294 57.84942 451.74309 119.35367zM364.39289 190.219a12.94454 12.94454 0 00-3.9839 2.14892c0-1.95272.05893-3.89556.14721-5.8384.17667-3.05165.31394-5.77953.30412-8.73308 0-2.90444-.04911-5.82858-.11763-8.75267-.11786-5.84822-.1375-11.716-.00982-17.58384q.19117-8.8018.66718-17.62313c.31407-5.88746.72611-11.76509 1.43258-17.66236a.29935.29935 0 01.3337-.265.3024.3024 0 01.25514.24531c.98124 5.86787 1.61895 11.73568 2.11939 17.61331s.87332 11.76509 1.07947 17.65254q.32376 8.83118-.04911 17.69183c-.13739 2.95355-.29442 5.907-.50045 8.88023-.18638 2.9339-.52008 6.06407-.8145 8.87041-.098 1.04993-.18638 2.10969-.24532 3.15963C364.79511 190.09145 364.58909 190.15032 364.39289 190.219zM392.09334 213.965a13.69089 13.69089 0 01-4.49417 7.99709 12.73316 12.73316 0 01-9.06667 2.3453 16.224 16.224 0 01-8.88029-3.248 19.63378 19.63378 0 01-5.71078-7.5948 33.20482 33.20482 0 01-1.80545-5.19081 7.02682 7.02682 0 011.20691-.03923c.8635.049 1.77611.0981 2.61014.13739a28.2345 28.2345 0 001.1481 3.75811 16.69686 16.69686 0 004.40576 6.65285 13.66712 13.66712 0 007.27092 3.15952A10.66308 10.66308 0 00386.51 220.51a12.23317 12.23317 0 004.37642-6.84911 27.342 27.342 0 00.95177-8.57605v-.01958a.29016.29016 0 01.5789-.03929A27.9474 27.9474 0 01392.09334 213.965zM321.81815 160.051c1.999 2.73828-8.04549 8.67138-8.04549 8.67138-14.05519-11.98148.69124-25.34543.69124-25.34543 14.05519-11.29024 24.65419 2.41933 24.65419 2.41933s-7.60363 8.98611-13.59437 7.94925c0 0-3.68661-3.0592-4.49305.08329A7.24674 7.24674 0 00321.81815 160.051zM325.40852 164.22938c.76736.97375 1.35785 1.94745 2.03259 2.85173a10.13447 10.13447 0 002.34525 2.44772 3.127 3.127 0 01-1.78965-.55776 5.37993 5.37993 0 01-1.34768-1.31178 6.82934 6.82934 0 01-.86891-1.62823A5.30824 5.30824 0 01325.40852 164.22938zM332.32091 153.28473a4.07533 4.07533 0 011.301-.61052 5.866 5.866 0 011.39651-.22836 4.9931 4.9931 0 011.42766.1493 2.77048 2.77048 0 011.28954.68958l-2.68167.14116A12.43392 12.43392 0 01332.32091 153.28473zM335.54669 157.35536a.96063.96063 0 000-1.9201.96063.96063 0 000 1.9201z"></path><path d="M339.11809 145.79629q.19374 2.1414.30435 4.28976c.06446 1.43539.15255 2.85994.08188 4.32078a5.18531 5.18531 0 01-.07008.569c-.02278.09672-.09237.26537-.09038.29963a.08721.08721 0 01-.01433.04672l.01186.08833a2.56153 2.56153 0 00.39411.85679 13.915 13.915 0 001.29905 1.648c.24563.28376.45731.47319.74541.81714a1.81254 1.81254 0 01.37791 1.2444 1.64775 1.64775 0 01-.73068 1.11144 4.07884 4.07884 0 01-1.06938.51488l.27028-.41163a17.98621 17.98621 0 01-.33239 6.2353 6.511 6.511 0 01-1.46342 2.90617c-.212.19231-.44364.37025-.66836.55147a7.60982 7.60982 0 01-.786.38186 7.44678 7.44678 0 01-1.6198.26688 12.88925 12.88925 0 00-5.56551 1.7658 11.38438 11.38438 0 00-3.98 4.24083 13.8993 13.8993 0 00-.63424 1.32088 5.61206 5.61206 0 00-.319 1.37784 6.04183 6.04183 0 00.40545 2.80238c.78689 1.848 1.62666 3.72967 2.464 5.58076q1.26534 2.78355 2.58467 5.54081c.44329.91733.89871 1.82863 1.38131 2.725.244.44648.49394.88973.75818 1.32418a3.40573 3.40573 0 00.96566 1.15576 3.44434 3.44434 0 01-1.05692-1.09485c-.30009-.41552-.57393-.84835-.84246-1.28381-.53239-.87368-1.03784-1.76293-1.53115-2.65823-.99245-1.788-1.90958-3.61444-2.81461-5.44577-.90474-1.83893-1.78952-3.65636-2.66254-5.53583a6.69851 6.69851 0 01-.50433-3.19054 6.47622 6.47622 0 01.35245-1.59931 14.47842 14.47842 0 01.672-1.44419 12.31222 12.31222 0 014.257-4.6276 13.0082 13.0082 0 015.99478-1.89206 6.56327 6.56327 0 001.39212-.20237c.194-.0981.404-.16541.59085-.27747l.51577-.41588a5.666 5.666 0 001.26837-2.498 18.65821 18.65821 0 00.41049-5.9247l-.00168-.02636a.3764.3764 0 01.27213-.38557c.62713-.179 1.2608-.5138 1.33016-.97849a1.1424 1.1424 0 00-.22506-.76665c-.16349-.21028-.46447-.52488-.67934-.78942a14.4555 14.4555 0 01-1.30068-1.76754 2.941 2.941 0 01-.44067-1.10312l-.00812-.17931a1.72876 1.72876 0 01.0598-.21141l.07051-.21273a4.91374 4.91374 0 00.07532-.49409c.13919-1.39742.13238-2.842.1425-4.26892zM313.77266 168.7224a29.41332 29.41332 0 01-3.18361 8.75231 18.22623 18.22623 0 01-2.77367 3.81453 7.02148 7.02148 0 01-4.06568 2.29482 8.69918 8.69918 0 003.49495-2.80532 26.76016 26.76016 0 002.48937-3.78423c.75446-1.3198 1.42312-2.69428 2.09154-4.074z"></path><path d="M336.35314 163.76852a7.42 7.42 0 012.07413.23124c.31255.07851.61484.13864.91222.20656a2.08275 2.08275 0 00.97555.02306 1.16125 1.16125 0 01-.93888.74174 2.7434 2.7434 0 01-1.16415-.01468A3.135 3.135 0 01336.35314 163.76852zM337.01817 238.29172c-1.776 2.28632-3.11058 3.9348-3.6993 4.51369-3.07129 2.99278-12.16743 3.454-17.58384-.81438-5.41648-4.25862-9.85171-18.6142-9.85171-18.6142s6.98644-7.96768 15.03264-7.84012l6.10335 10.21471s5.98556-5.387 9.72409-9.35121c1.40317-4.04271.16679-10.87218-.67706-14.53219a3.207 3.207 0 00-3.27732-2.48257c-1.4915.06869-3.37547.19626-5.13194.33364a5.65105 5.65105 0 01-5.91685-4.19974c-2.84563-11.20577-17.98619-11.93188-17.98619-11.93188-20.04677 12.20666-12.09873 30.52643-11.51978 43.891.56914 13.36451-3.925 17.39746-3.925 17.39746l53.51693.46116A15.65339 15.65339 0 01337.01817 238.29172zm-17.90767-29.2116a1.4728 1.4728 0 010 2.94373A1.4728 1.4728 0 01319.1105 209.08012zm-5.652 1.76623a1.47279 1.47279 0 010 2.94372A1.47279 1.47279 0 01313.45854 210.84635zm-5.29873 2.355a1.4728 1.4728 0 010 2.94373A1.4728 1.4728 0 01308.15981 213.20135zm-5.18093 3.88574a1.4728 1.4728 0 010 2.94373A1.4728 1.4728 0 01302.97888 217.08709zm.71629 8.34056l-.01965.01959a.70049.70049 0 01-.90272.157 8.00522 8.00522 0 01-2.17833-2.15875 17.432 17.432 0 01-1.49151-2.49233 40.59381 40.59381 0 01-2.1391-5.26926c-.56914-1.79569-1.08917-3.611-1.50133-5.446-.42193-1.82509-.81439-3.66-1.08916-5.5244.52984 1.80552 1.04993 3.60121 1.64847 5.36743s1.19715 3.53245 1.8938 5.25944a40.8807 40.8807 0 002.30595 5.024 12.18044 12.18044 0 002.78669 3.66984 37.45345 37.45345 0 013.47364-3.5815 31.39961 31.39961 0 014.54316-3.3853 22.1946 22.1946 0 015.22015-2.3059 15.40572 15.40572 0 015.19081-.45139c.12757-1.7564.21585-3.51286.32377-5.27909q.162-2.89952.157-5.80893c.265 1.92319.36306 3.87592.45139 5.81876s.07846 3.88568.05888 5.8384a.49426.49426 0 01-.50045.49062H321.858a15.38373 15.38373 0 00-5.25944.61819 23.17628 23.17628 0 00-4.83752 2.28625 30.14043 30.14043 0 00-4.29785 3.27737A34.23472 34.23472 0 00303.69517 225.42765z"></path><path d="M336.788,216.44244c-1.44686,1.7307-2.98368,3.38553-4.57,4.9855l-2.38879,2.39226-2.46278,2.31739a.51284.51284,0,0,1-.78735-.10409l-.00975-.01617c-1.03233-1.69339-2.09514-3.36859-3.09285-5.08265-1.01388-1.70441-1.97668-3.43931-2.93428-5.17739l.36482.21087a14.99822,14.99822,0,0,0-4.19691.49542,18.66807,18.66807,0,0,0-3.96038,1.6562,25.26919,25.26919,0,0,0-3.54338,2.46568,24.54135,24.54135,0,0,0-3.09275,2.99326l.06283-.2946c.62008,1.79383,1.34164,3.56461,2.09094,5.31077.73779,1.75227,1.53444,3.47813,2.39493,5.16278a38.13491,38.13491,0,0,0,2.89123,4.83243,12.42092,12.42092,0,0,0,3.90762,3.73751,15.75,15.75,0,0,0,5.12648,1.892,17.12705,17.12705,0,0,0,5.52627.20573,14.57012,14.57012,0,0,0,2.69444-.60058,7.20077,7.20077,0,0,0,2.34464-1.32537c1.30782-1.32933,2.5498-2.82018,3.81263-4.24856a.06405.06405,0,0,1,.09037-.00689.065.065,0,0,1,.01073.08541c-1.10315,1.57337-2.165,3.1434-3.44245,4.633a9.7,9.7,0,0,1-5.35937,2.46873,17.47179,17.47179,0,0,1-11.50335-1.92511,12.36985,12.36985,0,0,1-2.402-1.84462,17.54037,17.54037,0,0,1-1.87565-2.3123,39.3326,39.3326,0,0,1-2.87651-5.06935,71.84618,71.84618,0,0,1-4.02106-10.81331l-.00544-.01863a.284.284,0,0,1,.06834-.27627,35.04939,35.04939,0,0,1,3.27917-2.93127,34.483,34.483,0,0,1,3.621-2.47054,25.60658,25.60658,0,0,1,3.99079-1.85659,15.55286,15.55286,0,0,1,4.38056-.81116.39052.39052,0,0,1,.34371.17776l.02139.03323c1.07682,1.66681,2.14843,3.33673,3.16895,5.0372,1.0367,1.69076,2.0083,3.42045,3.01038,5.13193l-.79685-.1202,5.03419-4.47416c1.665-1.50774,3.34452-2.99918,4.99234-4.53309a.06411.06411,0,0,1,.09313.0878Z"></path><path d="M336.67074 216.3305c.70675-.95357 1.42431-1.88163 2.14383-2.79885.6684-.9837 1.33831-1.98423 2.09155-2.90977a70.65207 70.65207 0 014.73417-5.364 59.22442 59.22442 0 015.24182-4.8586c1.67882-1.54924 3.36677-3.25977 5.06388-4.88567.85712-.81385 1.69827-1.64261 2.56926-2.445.419-.40528.941-.80828 1.40529-1.207a12.89553 12.89553 0 011.571-1.0164 14.18544 14.18544 0 013.43162-1.326 28.89375 28.89375 0 013.53622-.72874 11.653 11.653 0 013.64983-.01953 4.32417 4.32417 0 011.75625.72012 1.33906 1.33906 0 01.60286.93154 1.21675 1.21675 0 01-.54347.97944 11.08788 11.08788 0 01-3.36718 1.42623c-1.15364.32826-2.30949.59806-3.488.84266l.33427-.519a2.18622 2.18622 0 001.0052.94177 3.89657 3.89657 0 00.72743.27622c.25858.07887.48451.09588.87946.221a1.485 1.485 0 01.95126.91 1.971 1.971 0 01-.072 1.21248 5.69872 5.69872 0 01-1.0046 1.69861l.167-.43145a5.45413 5.45413 0 00.3141 1.55056 2.826 2.826 0 00.14825.32227 3.713 3.713 0 01.2219.53488 6.73267 6.73267 0 01.22369.995 7.72969 7.72969 0 01.06351 2.01518 3.20915 3.20915 0 01-.13191.60274 1.55525 1.55525 0 01-.21782.41588l-.09319.117c-.02994.03492-.00751.01294-.0144.0215 0 0-.00219-.00072-.00554.01126a1.36234 1.36234 0 00-.11679.48925 3.88 3.88 0 00.16132 1.47821 3.87588 3.87588 0 01.15946 1.15648 1.81566 1.81566 0 01-.2569.84978 1.64255 1.64255 0 01-.72812.63179 2.83311 2.83311 0 01-1.26473.2071l-.91773-.02025-1.83435-.04342a32.64906 32.64906 0 00-3.45744-.05037 6.1584 6.1584 0 00-3.97689 2.15516c-.2978.36329-.69853.92979-1.04541 1.38939q-1.07144 1.45776-2.1751 2.89174-4.36833 5.77-8.86355 11.44228c-3.01527 3.7665-6.02974 7.53186-9.15637 11.20619a.09816.09816 0 01-.13841.01114.10224.10224 0 01-.01662-.13146c2.62937-4.05895 5.37089-8.027 8.1116-11.99369q4.14317-5.92572 8.40442-11.75772 1.05849-1.46332 2.14192-2.90815c.38141-.5002.67119-.923 1.13459-1.49384a8.09457 8.09457 0 011.52169-1.40137 7.91015 7.91015 0 013.84241-1.39724 31.76933 31.76933 0 013.76473.13565l1.77829.089a7.77885 7.77885 0 001.39937.0218c.01949-.00616-.02977.02366-.04815.06223-.01785.04941-.01273.03288-.0018-.00713a2.5223 2.5223 0 00-.08609-.62777 5.571 5.571 0 01-.11565-2.10382 2.75116 2.75116 0 01.4372-1.21332 1.44143 1.44143 0 01.13412-.16578c.01722-.02036.06576-.06965.05828-.06492l-.02632.02588c-.03579.06821-.014.017-.00839.0179a1.65886 1.65886 0 00.071-.27633 6.26974 6.26974 0 00.0162-1.58937 5.32607 5.32607 0 00-.13439-.7748 2.90935 2.90935 0 00-.10014-.30849 4.262 4.262 0 01-.19428-.51338 6.72412 6.72412 0 01-.26337-2.00447l0-.00994a.62362.62362 0 01.16709-.42181 4.60254 4.60254 0 00.86455-1.23829 1.00353 1.00353 0 00.10574-.49865c-.00872-.08007-.09059-.15954-.27122-.24764-.15643-.06852-.50966-.14482-.80462-.25082a4.84874 4.84874 0 01-.88246-.40037 2.91178 2.91178 0 01-1.35307-1.54337.39163.39163 0 01.31488-.51662l.01955-.00257a30.85082 30.85082 0 003.44657-.66652 9.7989 9.7989 0 003.16553-1.25015c.4645-.35174.421-.62088-.04121-.9613a3.726 3.726 0 00-1.511-.584 9.86629 9.86629 0 00-3.41345.15362 24.34089 24.34089 0 00-3.35727.94555 13.18627 13.18627 0 00-3.07874 1.45587 11.55886 11.55886 0 00-1.3387 1.01083c-.40208.40659-.802.7506-1.20386 1.19846-.7975.8759-1.62922 1.721-2.45044 2.57558-1.67336 1.69568-3.31624 3.3523-5.15748 4.9676-1.8843 1.45252-3.5865 3.01212-5.31986 4.61964-1.7193 1.60188-3.40344 3.24569-5.00825 4.95927-.80215.85883-1.58117 1.73149-2.33849 2.63547-.83427.86769-1.67052 1.7246-2.51756 2.556a.09794.09794 0 01-.14728-.12822zM323.56522 231.27953a3.46942 3.46942 0 01.13427-1.73628 6.33629 6.33629 0 013.32192-3.79363 13.02709 13.02709 0 01-.86631 1.44144c-.28992.45966-.60846.88632-.89075 1.33424C324.66985 229.40988 324.11369 230.26511 323.56522 231.27953zM294.994 245.12023a15.22442 15.22442 0 01.556 2.868 26.05759 26.05759 0 01.159 2.8679 25.63583 25.63583 0 01-.15688 2.86791 15.05637 15.05637 0 01-.55809 2.86791 15.05787 15.05787 0 01-.55807-2.86791 25.63821 25.63821 0 01-.15688-2.86791 26.06 26.06 0 01.159-2.8679A15.226 15.226 0 01294.994 245.12023zM334.625 245.12023a15.2236 15.2236 0 01.55595 2.868 26.05267 26.05267 0 01.159 2.8679 25.6382 25.6382 0 01-.15687 2.86791 15.05793 15.05793 0 01-.55809 2.86791 15.05712 15.05712 0 01-.55808-2.86791 25.64058 25.64058 0 01-.15687-2.86791 26.05759 26.05759 0 01.159-2.8679A15.22516 15.22516 0 01334.625 245.12023z"></path><path d="M357.53592,454.93035c-3.07129-7.06489-16.61242-69.15793-15.70969-111.24342.893-42.09526-4.89639-93.16891-4.89639-93.16891H292.23426c-15.51343,42.01674-4.15063,70.43354-4.15063,75.34957S255.8302,452.438,261.05036,445.05906c5.22021-7.38872,33.94119-2.39423,44.833,5.55392C321.70094,462.17193,360.60722,461.99525,357.53592,454.93035Zm-91.4125-16.23954a1.4728,1.4728,0,0,1,0-2.94373A1.4728,1.4728,0,0,1,266.12342,438.69081Zm9.18442-.471a1.4728,1.4728,0,0,1,0-2.94373A1.4728,1.4728,0,0,1,275.30784,438.21983Zm10.36191,2.11946a1.4728,1.4728,0,0,1,0-2.94373A1.4728,1.4728,0,0,1,285.66975,440.33929Zm10.12643,3.06147a1.4728,1.4728,0,0,1,0-2.94373A1.4728,1.4728,0,0,1,295.79618,443.40076Zm9.4199,4.47452a1.47283,1.47283,0,0,1,0-2.94379A1.47283,1.47283,0,0,1,305.21608,447.87528Zm3.89556-79.255c-.40234,9.72409-1.413,19.35989-2.59049,28.97606s-2.6199,19.19309-4.30767,28.7308l2.78676-28.8976c.43174-4.80811.8929-9.626,1.25595-14.43409.39253-4.81788.73594-9.63581.90279-14.44386.07846-2.39423.13733-4.79829.04905-7.17288a26.39062,26.39062,0,0,0-.32383-3.47363,5.60975,5.60975,0,0,0-.17661-.79481c-.07852-.24531-.12757-.471-.25514-.785-.21584-.5789-.43174-1.16768-.61818-1.74658-1.52092-4.63149-2.91426-9.25311-4.26838-13.90424Q297.4888,326.736,293.922,312.66005q4.68061,13.74724,9.106,27.56312c1.51109,4.59221,2.95355,9.21388,4.553,13.74722.1962.57889.4121,1.11857.61818,1.66806a9.34582,9.34582,0,0,1,.53968,1.91343,25.9718,25.9718,0,0,1,.38269,3.73853C309.22939,363.75334,309.1901,366.1868,309.11164,368.62032Zm4.58239,83.965a1.4728,1.4728,0,0,1,0-2.94373A1.4728,1.4728,0,0,1,313.694,452.58529Zm9.89094,2.82586a1.47279,1.47279,0,0,1,0-2.94372A1.47279,1.47279,0,0,1,323.585,455.41115Zm10.83289,1.413a1.47279,1.47279,0,0,1,0-2.94372A1.47279,1.47279,0,0,1,334.41786,456.8242Zm9.4199,0a1.47279,1.47279,0,0,1,0-2.94372A1.47279,1.47279,0,0,1,343.83776,456.8242Zm8.949-1.17756a1.4728,1.4728,0,0,1,0-2.94373A1.4728,1.4728,0,0,1,352.78674,455.64664Z"></path><path fill="#020202" d="M319.68877,454.93071a36.971,36.971,0,0,1-.66289,8.79477,12.16235,12.16235,0,0,1-.72523,2.12682,18.66448,18.66448,0,0,0-.66947,2.01914,8.97272,8.97272,0,0,0-.19506,4.10812,6.43989,6.43989,0,0,0,2.02748,3.41734,9.40061,9.40061,0,0,0,.802.64214l.43139.28759c.16231.10673.32809.21417.479.32892a9.84517,9.84517,0,0,0,1.73149,1.16379,12.20748,12.20748,0,0,0,4.097.85367c1.44.101,2.89656.12158,4.35321.10517a145.79283,145.79283,0,0,0,17.43649-1.60326l17.35009-2.50976-.5303.53577a2.14238,2.14238,0,0,0-.0733-.3276,2.40482,2.40482,0,0,0-.19716-.43468,4.101,4.101,0,0,0-.62061-.83367,9.09093,9.09093,0,0,0-1.72658-1.40107,23.39511,23.39511,0,0,0-4.1589-2.04705c-1.47231-.5595-2.95421-1.025-4.50016-1.47941-1.53663-.46535-3.05907-.9816-4.56946-1.53331a44.25811,44.25811,0,0,1-8.729-4.13315,16.5455,16.5455,0,0,1-3.71766-3.13118,6.68732,6.68732,0,0,1-1.75875-4.45105.062.062,0,0,1,.12388-.00108,6.56964,6.56964,0,0,0,1.99074,4.13411,17.229,17.229,0,0,0,3.74767,2.81784,49.83967,49.83967,0,0,0,8.70887,3.71906c2.998,1.03371,6.09679,1.70663,9.17387,2.82562a23.57778,23.57778,0,0,1,4.41559,2.18025,9.61282,9.61282,0,0,1,1.95308,1.64111,5.337,5.337,0,0,1,.77977,1.09959,2.82457,2.82457,0,0,1,.38638,1.51055.55033.55033,0,0,1-.47993.52955l-.05055.00647c-5.801.74312-11.61149,1.42826-17.44045,1.94428-5.83163.49721-11.64088,1.13037-17.49209,1.51031-1.46375.09463-2.9325.15607-4.41295.12936a12.7876,12.7876,0,0,1-4.48-.7206,10.677,10.677,0,0,1-1.94127-1.21242l-.91213-.60153a10.50124,10.50124,0,0,1-.9125-.7218,7.22016,7.22016,0,0,1-2.3079-4.03014,9.95767,9.95767,0,0,1,.29921-4.567,14.06671,14.06671,0,0,1,.78127-2.11461,11.25424,11.25424,0,0,0,.79327-1.97817,49.01108,49.01108,0,0,0,1.27874-8.60072.062.062,0,0,1,.06489-.05894A.06457.06457,0,0,1,319.68877,454.93071Z"></path><path fill="#020202" d="M324.1696 462.83671a6.317 6.317 0 00.63427 2.82047 3.856 3.856 0 00.85758 1.101 9.06867 9.06867 0 001.1961.898 3.38411 3.38411 0 01-1.49034-.51446 3.103 3.103 0 01-1.10936-1.19289A3.53456 3.53456 0 01324.1696 462.83671zM318.57563 475.78021s-3.478 1.338-1.32276 7.66251c0 0-.206 2.38664 8.24809 1.66083l42.64341-1.35457s2.92564-7.081-3.67512-8.23246l-10.67206 1.34481s2.45285-6.45873 1.64118-8.51424a9.87146 9.87146 0 00-11.41789-3.91145s.77816 10.20775-6.98586 13.96247C337.03462 478.39811 325.42515 478.19794 318.57563 475.78021zM273.28131 441.9062c-2.0575 1.71232-4.52481 2.733-6.17308 4.65245a6.58705 6.58705 0 00-1.46481 6.80437c.189.54812.46791 1.25411.62757 1.87a5.915 5.915 0 00.73685 1.65584 13.6491 13.6491 0 002.61536 2.74573 62.19484 62.19484 0 006.36 4.58844c4.4016 2.86347 9.034 5.35778 13.67353 7.81867l13.94093 7.34974-.744.12122a2.51892 2.51892 0 00.13935-.32317 2.63188 2.63188 0 00.09481-.48907 4.47253 4.47253 0 00-.02367-1.08162 9.94481 9.94481 0 00-.62359-2.22779 24.15474 24.15474 0 00-2.29434-4.23317c-.8841-1.37352-1.89029-2.63445-2.89312-3.9936-.98-1.35616-1.90481-2.752-2.76248-4.18849a38.63641 38.63641 0 01-4.10273-9.14488 18.59976 18.59976 0 01-.79226-4.96862 7.75113 7.75113 0 011.34077-4.78445.062.062 0 01.08688-.01144.06337.06337 0 01.014.08342 7.69121 7.69121 0 00-.97086 4.69582 19.55907 19.55907 0 001.01976 4.76942 42.26091 42.26091 0 004.338 8.78567c.88022 1.38238 1.82713 2.72213 2.82326 4.02295.97784 1.29339 2.06236 2.60738 2.99268 4.00677a23.69611 23.69611 0 012.42909 4.483 10.28623 10.28623 0 01.67091 2.55264 5.714 5.714 0 01-.00094 1.39425 2.8452 2.8452 0 01-.58332 1.50013.54942.54942 0 01-.69943.14613l-.04489-.02479c-4.60753-2.53264-9.20568-5.08528-13.722-7.78358l-13.5445-8.09549c-2.22832-1.39963-4.50041-2.73555-6.62274-4.34264a14.451 14.451 0 01-2.94552-2.80335 6.6939 6.6939 0 01-.92419-1.90031c-.1966-.65041-.42017-1.16092-.65873-1.85433a7.5426 7.5426 0 01-.24055-4.17339 8.096 8.096 0 012.02121-3.63606 13.39089 13.39089 0 013.20926-2.49443 26.56463 26.56463 0 013.63741-1.60033.06261.06261 0 01.08049.037A.06563.06563 0 01273.28131 441.9062z"></path><path fill="#020202" d="M276.61346 445.133a6.31705 6.31705 0 00-1.14639 2.65392 3.85648 3.85648 0 00.04577 1.39491 9.06471 9.06471 0 00.439 1.4297 3.38282 3.38282 0 01-.90251-1.2928 3.10228 3.10228 0 01-.19536-1.61715A3.53454 3.53454 0 01276.61346 445.133zM264.47534 452.30893s-3.59965-.96413-5.57743 5.41812c0 0-1.57066 1.80874 5.69277 6.1953l35.28048 23.99131s6.5315-4.00491 1.87119-8.81922l-9.4211-5.19078s5.78311-3.77987 6.336-5.91956a9.87146 9.87146 0 00-6.932-9.88s-5.37586 8.71229-13.8631 7.181C277.86212 465.28513 268.59188 458.29353 264.47534 452.30893z"></path><path d="M308.76118 151.78434s-9.50454-8.29216 0-14.2829 11.29982 2.53169 11.29982 2.53169M294.01369 192.88921c-3.51948 15.92758-7.42774 31.75154-11.24383 47.59917-3.83739 15.8408-8.31808 31.527-12.0564 47.39507q-2.80807 11.89914-5.3226 23.865c-1.71762 7.96056-3.109 16.00358-5.303 23.91407a122.05074 122.05074 0 01-3.7933 11.7131 60.38941 60.38941 0 01-5.48836 11.13025 29.3714 29.3714 0 01-3.971 4.92723 15.78983 15.78983 0 01-5.47423 3.52035 10.77815 10.77815 0 01-6.63243.1308 13.24858 13.24858 0 01-5.617-3.43932l1.4941-1.30058a51.41773 51.41773 0 009.84287 8.6481 31.97618 31.97618 0 0011.97854 5.06133 21.727 21.727 0 006.49137.21548l3.30175-.5229a31.61566 31.61566 0 013.3925-.338 11.84017 11.84017 0 016.65722 1.49947 5.34393 5.34393 0 012.04886 2.76663 6.509 6.509 0 01.11644 3.39362.09795.09795 0 01-.192-.0385l.00151-.00869a6.23224 6.23224 0 00-.28313-3.22293 4.87158 4.87158 0 00-1.999-2.42245 11.31444 11.31444 0 00-6.30676-1.0561 30.66131 30.66131 0 00-3.2674.45055l-3.30639.65035a23.018 23.018 0 01-6.87826.02893 32.93447 32.93447 0 01-12.70248-4.99383 50.31358 50.31358 0 01-5.50249-4.04864 44.30963 44.30963 0 01-4.9141-4.79272.98935.98935 0 011.445-1.34993l.04907.04935a11.362 11.362 0 004.72215 2.84251 8.73157 8.73157 0 005.38741-.13 13.771 13.771 0 004.70894-3.08411 31.59619 31.59619 0 003.70424-4.56076 58.49416 58.49416 0 005.439-10.69832c1.48335-3.75267 2.76583-7.59457 3.90991-11.48462.59239-1.93841 1.08461-3.90886 1.63236-5.86278l1.4575-5.91872 2.8716-11.89013q2.91835-11.87812 5.70145-23.78441c3.7377-15.86882 6.95207-31.86755 10.95515-47.67547 4.02983-15.79971 8.099-31.59074 12.75535-47.22695a.09818.09818 0 01.18991.04947zM276.61346 39.82482L267.78484 57.353a.2131.2131 0 01-.38066-.19171l.00212-.00413zM249.85013 92.72063L231.81952 128.0387a.75082.75082 0 01-1.33741-.68281l.00374-.00724 18.41228-35.12056a.53594.53594 0 01.952.49254zM213.70705 163.31437l-18.15831 35.252a.94457.94457 0 11-1.67943-.86506l.00156-.003 18.28457-35.18668a.87349.87349 0 011.55161.80277zM177.32912 233.7866l-18.285 35.18643a.87508.87508 0 01-1.55444-.8042l18.15791-35.2522a.94661.94661 0 111.68308.86691zM140.71537 304.13683l-18.4135 35.11989a.538.538 0 01-.95566-.49439l18.02938-35.31867a.75425.75425 0 111.34356.68586zM103.79286 374.32727L94.58472 391.659l8.82762-17.52862a.21423.21423 0 11.38267.19273zM629.945 158.341l-8.82866 17.52814a.21309.21309 0 11-.3806-.19177l.00209-.00413zM603.18169 211.23671l-18.0306 35.31808a.75082.75082 0 11-1.33741-.68281l.00374-.00719 18.41225-35.12061a.53595.53595 0 01.952.49253zM567.03863 281.83046l-18.15832 35.252a.94458.94458 0 01-1.67944-.86512l.00156-.003L565.487 281.02769a.8735.8735 0 011.55164.80277zM530.66067 352.30268l-18.285 35.18643a.87507.87507 0 01-1.55443-.8042l18.1579-35.2522a.94663.94663 0 111.68309.867zM494.04694 422.65291l-18.41351 35.12a.538.538 0 01-.95567-.49446l18.0294-35.31867a.75424.75424 0 111.34355.68586zM457.12443 492.84341l-9.20816 17.33177 8.82762-17.52869a.21423.21423 0 11.38267.19273zM252.32336 228.51458q-4.33869 8.80316-8.75162 17.568a.29981.29981 0 11-.536-.26885l.00345-.00664Q247.65722 237.14836 252.32336 228.51458zM223.26707 286.28557q-5.07382 10.052-10.24145 20.0554l-10.29394 20.0282a.91963.91963 0 11-1.63587-.84073l.00227-.00444 10.40136-19.97262q5.18489-9.99456 10.45385-19.94556a.73964.73964 0 011.31378.67975zM182.03806 366.371l-10.4017 19.9725q-5.1881 9.99285-10.45219 19.94634a.743.743 0 01-1.31977-.68281q5.07242-10.05267 10.2431-20.0545l10.29361-20.02844a.92153.92153 0 111.63924.84247zM140.09672 446.08785q-4.619 8.65826-9.28562 17.2917 4.33755-8.80386 8.75014-17.56875a.30148.30148 0 01.539.27029zM191.56723 61.74466q-4.33871 8.80315-8.75163 17.56792a.29979.29979 0 01-.53595-.26879l.00345-.00671Q186.90109 70.37839 191.56723 61.74466zM162.51094 119.5156q-5.07382 10.05195-10.24145 20.05539l-10.29394 20.02827a.91965.91965 0 11-1.63587-.8408l.00227-.00437 10.40136-19.97269q5.18489-9.99445 10.45385-19.9455a.73963.73963 0 011.31378.6797zM121.28193 199.601l-10.4017 19.97245q-5.1881 9.99283-10.4522 19.94639a.743.743 0 01-1.31976-.6828q5.07241-10.05268 10.2431-20.05456l10.2936-20.02839a.92153.92153 0 111.63924.84248zM79.34059 279.31788q-4.619 8.65824-9.28562 17.2917 4.33754-8.80379 8.75014-17.56869a.30148.30148 0 11.539.27028zM538.93065 45.834q-4.33874 8.80315-8.75164 17.56792a.29979.29979 0 01-.536-.26879l.00344-.00671Q534.26453 54.4677 538.93065 45.834zM509.87435 103.60491q-5.07381 10.05195-10.24145 20.05539L489.339 143.68857a.91965.91965 0 11-1.63587-.8408l.00227-.00437 10.40136-19.97269q5.1849-9.99446 10.45385-19.9455a.73963.73963 0 011.31378.6797zM468.64535 183.69036l-10.40172 19.97245q-5.18808 9.99283-10.4522 19.94639a.743.743 0 01-1.31974-.6828q5.07237-10.05268 10.24309-20.05456l10.29361-20.02839a.92153.92153 0 111.63923.84248zM426.704 263.40719q-4.619 8.65824-9.28563 17.2917 4.33752-8.80379 8.75015-17.56869a.30148.30148 0 11.539.27028zM518.31564 216.82555q-4.33869 8.80325-8.75161 17.568a.29981.29981 0 01-.536-.26885l.00344-.00665Q513.6495 225.45934 518.31564 216.82555zM489.25934 274.59655q-5.07381 10.052-10.24145 20.05539L468.724 314.68021a.91964.91964 0 01-1.63584-.8408l.00224-.00437 10.40136-19.97269q5.18489-9.99455 10.45387-19.9455a.73962.73962 0 011.31376.6797zM448.03033 354.68194l-10.40168 19.97251q-5.18813 9.99284-10.4522 19.9464a.743.743 0 01-1.31977-.68281q5.07242-10.05278 10.24309-20.05456L446.39338 353.835a.92154.92154 0 011.63926.84248zM406.089 434.39883q-4.619 8.65815-9.28563 17.2917 4.33757-8.80379 8.75015-17.56875a.30148.30148 0 11.539.27028zM322.073 160.79683a8.17949 8.17949 0 011.15234.74192 2.212 2.212 0 001.11031.50062.87628.87628 0 01-.74041.37186 1.38816 1.38816 0 01-.79682-.27358A1.70031 1.70031 0 01322.073 160.79683z"></path><path fill="#fff" d="M319.1105,212.02385a1.4728,1.4728,0,0,1,0-2.94373A1.4728,1.4728,0,0,1,319.1105,212.02385Z"></path></svg>